<svg width="186" height="284" viewBox="0 0 186 284" fill="none" xmlns="http://www.w3.org/2000/svg">
<path d="M110.135 130.942L92.9998 148.743L76.0313 130.942H35.2736C30.4492 130.942 26.4566 132.606 23.1294 135.933C19.8023 139.26 18.1387 143.253 18.1387 147.911V283.992L60.8927 270.35V165.046H71.706V266.857L92.9998 260.203L114.46 267.023V165.046H125.273V270.35L167.861 283.992V147.911C167.861 143.253 166.197 139.26 162.87 135.933C159.543 132.606 155.55 130.942 150.892 130.942H110.135Z" fill="#00CCBB"/>
<path fill-rule="evenodd" clip-rule="evenodd" d="M22.0769 62.8182C25.6098 55.276 20.1985 46.5269 11.8599 46.3368C5.76453 46.1978 0.515066 50.904 0.0368879 56.9824C-0.484728 63.6041 4.59243 69.1819 11.0296 69.4859C13.8831 74.929 20.061 87.6096 24.3639 102.923C24.584 103.706 25.2938 104.251 26.1075 104.251H159.227C160.04 104.251 160.75 103.706 160.97 102.923C165.273 87.6129 171.448 74.929 174.301 69.4859C180.742 69.1855 185.819 63.603 185.297 56.9813C184.818 50.904 179.57 46.1986 173.475 46.3368C165.138 46.5258 159.724 55.2767 163.257 62.8182C156.904 68.2081 148.043 73.7573 143.301 72.57C142.834 72.4542 140.467 69.5221 140.448 58.3984C140.441 53.8519 140.832 49.3417 141.198 46.1236C146.944 45.0181 151.186 39.655 150.514 33.4604C149.836 27.2217 144.404 22.7552 138.144 23.1968C129.584 23.8006 124.576 33.4003 129.126 40.7953C124.767 47.2928 117.915 54.8184 113.13 55.0175C112.525 54.6773 108.656 51.9479 103.454 35.7348C101.241 28.835 99.4034 21.1198 99.4034 20.9985C102.339 18.899 104.25 15.4602 104.25 11.5834C104.25 4.92072 98.6016 -0.442762 91.8405 0.0289005C86.0995 0.429252 81.4628 5.10388 81.1067 10.8478C80.8478 15.0229 82.8105 18.7672 85.9308 20.9985C85.9308 21.1458 83.8595 29.5612 81.8802 35.7348C76.6785 51.9479 72.809 54.6773 72.2044 55.0175C67.419 54.8184 60.5704 47.2965 56.2085 40.7953C60.7597 33.3975 55.7469 23.7984 47.1864 23.1964C40.9271 22.7563 35.497 27.2235 34.8201 33.4615C34.1479 39.6558 38.3906 45.0181 44.136 46.1236C44.5016 49.3417 44.8926 53.8519 44.8853 58.3984C44.8672 69.5221 42.4999 72.4542 42.0329 72.57C37.291 73.7537 28.4296 68.2081 22.0769 62.8182ZM101.354 82.5317C101.354 90.3252 97.8613 95.5631 92.6669 95.5631C87.4725 95.5631 83.9793 90.3252 83.9793 82.5317C83.9793 74.7383 87.4725 69.5004 92.6669 69.5004C97.8613 69.5004 101.354 74.7383 101.354 82.5317ZM156.376 133.191C156.377 128.078 156.848 122.946 157.645 117.926C157.82 116.828 156.972 115.834 155.86 115.834H29.4739C28.3615 115.834 27.5141 116.828 27.6886 117.926C28.4857 122.946 28.957 128.078 28.9581 133.191C28.9588 136.392 31.5176 139.001 34.7183 139.001H150.615C153.816 139.001 156.375 136.392 156.376 133.191Z" fill="url(#paint0_linear_408_18)"/>
<rect x="82.0195" y="134.861" width="26.0258" height="17.7449" fill="#00CCBB"/>
<defs>
<linearGradient id="paint0_linear_408_18" x1="92.6669" y1="115.834" x2="92.6669" y2="139.001" gradientUnits="userSpaceOnUse">
<stop stop-color="#FFDA00"/>
<stop offset="1" stop-color="#00CCBB"/>
</linearGradient>
</defs>
</svg>
