<svg width="200" height="84" viewBox="0 0 200 84" fill="none" xmlns="http://www.w3.org/2000/svg">
<g clip-path="url(#clip0_21452_2)">
<path d="M15.677 46.4767C14.4894 46.4767 13.8559 45.8433 13.8559 44.5764C13.8559 43.3888 14.4894 42.7554 15.677 42.7554C16.8646 42.7554 17.4189 43.3888 17.4189 44.5764C17.4189 45.8433 16.8646 46.4767 15.677 46.4767ZM20.7443 46.4767C19.5566 46.4767 18.9232 45.8433 18.9232 44.5764C18.9232 43.3888 19.5566 42.7554 20.7443 42.7554C21.9319 42.7554 22.4862 43.3888 22.4862 44.5764C22.5653 45.8433 21.9319 46.4767 20.7443 46.4767ZM29.4537 69.042H30.958V71.8132H29.0578C25.8908 71.8132 23.5946 70.5464 22.407 68.0127C20.8235 69.5962 18.9232 70.4672 16.7063 70.4672C14.1726 70.4672 12.1141 69.5171 10.6097 67.5377C9.34288 65.8749 8.70947 63.8164 8.70947 61.3619C8.70947 58.5115 9.58041 56.2154 11.2431 54.4735C12.6683 52.9692 14.4894 52.1774 16.7063 52.1774C18.6857 52.1774 20.2692 52.7316 21.6152 53.9193V51.4648L24.6239 49.8813V63.8955C24.4656 67.3001 26.1283 69.042 29.4537 69.042ZM21.5361 57.3239C20.1901 55.7403 18.6065 54.9486 16.7063 54.9486C15.2019 54.9486 14.0143 55.582 13.0642 56.7696C12.1141 57.9573 11.639 59.5408 11.639 61.4411C11.639 63.4205 12.1141 64.9248 13.0642 66.1125C14.0143 67.3001 15.2811 67.8544 16.7855 67.8544C18.7649 67.8544 20.3484 66.9834 21.6152 65.3207C21.5361 64.7665 21.5361 64.3706 21.5361 64.0539V57.3239ZM44.4972 69.042H46.0807V71.8132H44.1805C41.4885 71.8132 39.5091 70.8631 38.1631 69.042C36.7379 70.8631 34.7585 71.8132 32.0665 71.8132H30.1663V69.042H31.7498C35.0752 69.042 36.6588 67.3001 36.6588 63.8955V54.1568L39.6675 52.5733V63.8955C39.5883 67.3001 41.251 69.042 44.4972 69.042ZM37.6089 76.4846C38.7965 76.4846 39.3507 77.118 39.3507 78.3057C39.3507 79.5725 38.7965 80.2059 37.6089 80.2059C36.4212 80.2059 35.7878 79.5725 35.7878 78.3057C35.7878 77.118 36.4212 76.4846 37.6089 76.4846ZM45.2098 71.8132V69.042H47.981C51.3064 69.042 52.9691 67.3001 52.9691 63.8955V57.403L55.9778 55.8195V63.8163C55.9778 67.2209 57.6405 68.9628 60.8867 68.9628H62.5494C65.8749 68.9628 67.4584 67.2209 67.4584 63.8163V55.8195L70.4671 54.236V63.8955C70.4671 67.3001 72.1298 69.042 75.4552 69.042H77.0387C80.3641 69.042 82.0268 67.3001 82.0268 63.8955V54.1568L85.0355 52.5733V63.9747C85.0355 66.4292 84.323 68.4086 82.8186 69.8338C81.4726 71.1006 79.7307 71.8132 77.5138 71.8132H75.0593C72.2881 71.8132 70.2296 70.8631 69.0419 68.8837C67.7751 70.8631 65.7165 71.8132 63.0245 71.8132H60.57C57.7989 71.8132 55.7403 70.8631 54.4734 68.8837C53.2066 70.8631 51.2272 71.8132 48.456 71.8132H45.2098ZM100.633 71.8132C98.0997 71.8132 96.1202 71.0214 94.7742 69.3587C93.6658 67.9335 93.0324 66.1916 93.0324 64.0539V44.4181L96.0411 42.8345V63.8955C96.0411 67.3001 97.7038 69.042 100.95 69.042H102.534V71.8132H100.633ZM109.184 46.7142C107.997 46.7142 107.363 46.0808 107.363 44.814C107.363 43.6263 107.997 42.9929 109.184 42.9929C110.372 42.9929 110.926 43.6263 110.926 44.814C110.926 46.0808 110.293 46.7142 109.184 46.7142ZM116.073 69.042H117.656V71.8132H115.756C113.064 71.8132 111.085 70.8631 109.739 69.042C108.313 70.8631 106.334 71.8132 103.642 71.8132H101.742V69.042H103.325C106.651 69.042 108.234 67.3001 108.234 63.8955V54.1568L111.243 52.5733V63.8955C111.164 67.3001 112.826 69.042 116.073 69.042ZM123.278 59.7783C123.278 57.2447 124.07 55.2653 125.574 53.8401C126.92 52.6524 128.662 52.019 130.8 52.019C133.571 52.019 135.708 53.0483 137.213 55.1069C138.48 56.8488 139.113 59.1449 139.113 61.9161C139.113 65.0832 138.321 67.6168 136.659 69.4379C135.233 71.0214 133.333 71.8132 131.037 71.8132C128.266 71.8132 126.128 70.9422 124.782 69.1212C123.436 70.9422 121.457 71.8132 118.765 71.8132H116.864V69.042H118.448C121.773 69.042 123.357 67.3001 123.357 63.8955V59.7783H123.278ZM126.286 64.0539C126.286 67.3793 127.87 68.9628 131.116 68.9628C132.7 68.9628 133.887 68.3294 134.758 67.0626C135.629 65.7958 136.104 64.0539 136.104 61.8369C136.104 59.62 135.629 57.8781 134.679 56.6113C133.729 55.3445 132.462 54.711 130.72 54.711C127.712 54.711 126.207 56.4529 126.207 59.9367V64.0539H126.286Z" fill="#00CCBB"/>
<path d="M174.676 43.1632L170.163 47.8346L165.729 43.1632H154.961C153.694 43.1632 152.665 43.6382 151.794 44.5092C150.923 45.3801 150.448 46.4094 150.448 47.6762V83.5431L161.691 79.9802V52.2685H164.542V79.1093L170.163 77.3674L175.785 79.1884V52.1101H178.635V79.8219L189.878 83.3848V47.597C189.878 46.4094 189.403 45.3009 188.532 44.43C187.661 43.559 186.632 43.084 185.365 43.084H174.676V43.1632Z" fill="#00CCBB"/>
<path fill-rule="evenodd" clip-rule="evenodd" d="M151.478 25.1902C152.428 23.2108 151.003 20.9147 148.786 20.8355C147.202 20.8355 145.777 22.0231 145.698 23.6067C145.539 25.3485 146.885 26.8529 148.627 26.9321C149.34 28.3572 151.003 31.6826 152.111 35.7206C152.19 35.9582 152.349 36.0373 152.586 36.0373H187.582C187.82 36.0373 187.978 35.879 188.057 35.7206C189.166 31.6826 190.828 28.3572 191.541 26.9321C193.204 26.8529 194.55 25.3485 194.471 23.6067C194.312 22.0231 192.966 20.7563 191.383 20.8355C189.166 20.9147 187.741 23.2108 188.691 25.1902C187.028 26.6154 184.653 28.0405 183.465 27.7238C183.307 27.7238 182.752 26.9321 182.752 24.0025C182.752 22.8149 182.832 21.6273 182.911 20.7563C184.415 20.4396 185.524 19.0144 185.365 17.4309C185.207 15.7682 183.782 14.5806 182.119 14.7389C179.902 14.8973 178.556 17.4309 179.744 19.4103C178.635 21.1522 176.814 23.1316 175.547 23.1316C175.389 23.0524 174.36 22.3398 173.014 18.0643C172.459 16.2433 171.984 14.1847 171.984 14.1847C172.776 13.6304 173.251 12.7595 173.251 11.7302C173.251 9.98833 171.747 8.56316 170.005 8.72151C168.501 8.80069 167.234 10.0675 167.155 11.5719C167.075 12.6803 167.63 13.6304 168.421 14.2639C168.421 14.2639 167.867 16.4808 167.392 18.1435C166.046 22.419 165.017 23.1316 164.858 23.2108C163.592 23.1316 161.771 21.1522 160.662 19.4895C161.85 17.5101 160.504 14.9764 158.287 14.8181C156.624 14.7389 155.199 15.8474 155.041 17.5101C154.882 19.1728 155.991 20.5188 157.495 20.8355C157.574 21.7064 157.733 22.8941 157.653 24.0817C157.653 27.0112 157.02 27.803 156.941 27.803C155.436 28.1197 153.14 26.6154 151.478 25.1902ZM172.38 30.4158C172.38 32.4744 171.43 33.8204 170.084 33.8204C168.738 33.8204 167.788 32.4744 167.788 30.4158C167.788 28.3572 168.738 27.0112 170.084 27.0112C171.43 26.9321 172.38 28.3572 172.38 30.4158ZM186.87 43.7175C186.87 42.3715 187.028 41.0255 187.186 39.6795C187.265 39.3628 187.028 39.1252 186.711 39.1252H153.457C153.14 39.1252 152.903 39.3628 152.982 39.6795C153.22 41.0255 153.299 42.3715 153.299 43.7175C153.299 44.5884 154.011 45.2218 154.803 45.2218H185.365C186.157 45.301 186.87 44.5884 186.87 43.7175Z" fill="url(#paint0_linear_21452_2)"/>
<path d="M174.122 44.1926H167.234V48.864H174.122V44.1926Z" fill="#00CCBB"/>
</g>
<defs>
<linearGradient id="paint0_linear_21452_2" x1="170.06" y1="39.1636" x2="170.06" y2="45.2652" gradientUnits="userSpaceOnUse">
<stop stop-color="#FFDA00"/>
<stop offset="1" stop-color="#00CCBB"/>
</linearGradient>
<clipPath id="clip0_21452_2">
<rect width="200" height="83.6896" fill="white"/>
</clipPath>
</defs>
</svg>
