<svg width="408" height="408" viewBox="0 0 408 408" fill="none" xmlns="http://www.w3.org/2000/svg">
<rect width="408" height="408" rx="50" fill="#00CCBB"/>
<path d="M221.135 192.978L204 210.778L187.031 192.978H146.274C141.449 192.978 137.457 194.641 134.129 197.968C130.802 201.295 129.139 205.288 129.139 209.946V346.027L171.893 332.386V227.081H182.706V328.892L204 322.238L225.46 329.058V227.081H236.273V332.386L278.861 346.027V209.946C278.861 205.288 277.197 201.295 273.87 197.968C270.543 194.641 266.55 192.978 261.892 192.978H221.135Z" fill="white"/>
<path fill-rule="evenodd" clip-rule="evenodd" d="M133.077 124.853C136.61 117.311 131.199 108.562 122.86 108.372C116.765 108.233 111.515 112.939 111.037 119.018C110.515 125.639 115.592 131.217 122.03 131.521C124.883 136.964 131.061 149.645 135.364 164.958C135.584 165.741 136.294 166.286 137.108 166.286H270.227C271.04 166.286 271.75 165.741 271.97 164.958C276.273 149.648 282.448 136.964 285.301 131.521C291.742 131.221 296.819 125.638 296.297 119.016C295.818 112.939 290.57 108.234 284.475 108.372C276.138 108.561 270.724 117.312 274.257 124.853C267.904 130.243 259.043 135.792 254.301 134.605C253.834 134.489 251.467 131.557 251.448 120.434C251.441 115.887 251.832 111.377 252.198 108.159C257.944 107.053 262.186 101.69 261.514 95.4956C260.836 89.2568 255.404 84.7903 249.144 85.232C240.584 85.8357 235.576 95.4355 240.126 102.83C235.767 109.328 228.915 116.854 224.13 117.053C223.525 116.712 219.656 113.983 214.454 97.7699C212.241 90.8702 210.403 83.1549 210.403 83.0337C213.339 80.9342 215.25 77.4953 215.25 73.6185C215.25 66.9559 209.602 61.5924 202.84 62.0641C197.099 62.4644 192.463 67.139 192.107 72.883C191.848 77.0581 193.811 80.8024 196.931 83.0337C196.931 83.181 194.86 91.5963 192.88 97.7699C187.679 113.983 183.809 116.712 183.204 117.053C178.419 116.854 171.57 109.332 167.208 102.83C171.76 95.4326 166.747 85.8336 158.186 85.2316C151.927 84.7914 146.497 89.2586 145.82 95.4967C145.148 101.691 149.391 107.053 155.136 108.159C155.502 111.377 155.893 115.887 155.885 120.434C155.867 131.557 153.5 134.489 153.033 134.605C148.291 135.789 139.43 130.243 133.077 124.853ZM212.354 144.567C212.354 152.36 208.861 157.598 203.667 157.598C198.472 157.598 194.979 152.36 194.979 144.567C194.979 136.773 198.472 131.536 203.667 131.536C208.861 131.536 212.354 136.773 212.354 144.567ZM267.376 195.226C267.377 190.113 267.848 184.981 268.645 179.961C268.82 178.863 267.972 177.869 266.86 177.869H140.474C139.362 177.869 138.514 178.863 138.689 179.961C139.486 184.981 139.957 190.114 139.958 195.226C139.959 198.427 142.518 201.036 145.718 201.036H261.615C264.816 201.036 267.375 198.427 267.376 195.226Z" fill="url(#paint0_linear_402_117)"/>
<rect x="193.02" y="196.896" width="26.0258" height="17.7449" fill="white"/>
<defs>
<linearGradient id="paint0_linear_402_117" x1="203.667" y1="177.869" x2="203.667" y2="201.036" gradientUnits="userSpaceOnUse">
<stop stop-color="#FFDA00"/>
<stop offset="1" stop-color="white"/>
</linearGradient>
</defs>
</svg>
