<svg xmlns="http://www.w3.org/2000/svg" version="1.1" xmlns:xlink="http://www.w3.org/1999/xlink" width="32" height="32" x="0" y="0" viewBox="0 0 100 100" style="enable-background:new 0 0 512 512" xml:space="preserve" class=""><g><g fill="#000" fill-rule="evenodd" clip-rule="evenodd"><path d="M16.938 21.13a4 4 0 0 1 4-4h20.7a4 4 0 0 1 4 4v20.702a4 4 0 0 1-4 4h-20.7a4 4 0 0 1-4-4zm4-1h20.7a1 1 0 0 1 1 1v20.702a1 1 0 0 1-1 1h-20.7a1 1 0 0 1-1-1V21.13a1 1 0 0 1 1-1zM54.633 21.13a4 4 0 0 1 4-4h20.7a4 4 0 0 1 4 4v20.702a4 4 0 0 1-4 4h-20.7a4 4 0 0 1-4-4zm4-1h20.7a1 1 0 0 1 1 1v20.702a1 1 0 0 1-1 1h-20.7a1 1 0 0 1-1-1V21.13a1 1 0 0 1 1-1zM20.938 54.169a4 4 0 0 0-4 4v20.7a4 4 0 0 0 4 4h20.7a4 4 0 0 0 4-4v-20.7a4 4 0 0 0-4-4zm20.7 3h-20.7a1 1 0 0 0-1 1v20.7a1 1 0 0 0 1 1h20.7a1 1 0 0 0 1-1v-20.7a1 1 0 0 0-1-1zM54.633 58.169a4 4 0 0 1 4-4h20.7a4 4 0 0 1 4 4v20.7a4 4 0 0 1-4 4h-20.7a4 4 0 0 1-4-4zm4-1h20.7a1 1 0 0 1 1 1v20.7a1 1 0 0 1-1 1h-20.7a1 1 0 0 1-1-1v-20.7a1 1 0 0 1 1-1z" fill="#000000" opacity="1" data-original="#000000"></path></g></g></svg>