<svg width="790" height="227" viewBox="0 0 790 227" fill="none" xmlns="http://www.w3.org/2000/svg">
<path d="M789.626 203.832C789.626 206.816 789.038 209.771 787.895 212.528C786.752 215.284 785.077 217.789 782.965 219.898C780.853 222.007 778.346 223.679 775.588 224.819C772.829 225.958 769.873 226.544 766.888 226.54H22.768C16.7369 226.547 10.9502 224.158 6.68051 219.899C2.41085 215.641 0.00785999 209.861 0 203.832V22.7382C0.00785638 16.706 2.4099 10.9234 6.6787 6.66017C10.9475 2.39694 16.7341 0.00156579 22.768 0H766.882C769.869 -1.01559e-07 772.826 0.588185 775.585 1.73096C778.344 2.87374 780.851 4.54872 782.963 6.66024C785.074 8.77175 786.749 11.2784 787.891 14.0371C789.034 16.7958 789.621 19.7525 789.62 22.7382L789.626 203.832Z" fill="white"/>
<path d="M789.626 203.832C789.626 206.816 789.038 209.771 787.895 212.528C786.752 215.284 785.077 217.789 782.965 219.898C780.853 222.007 778.346 223.679 775.588 224.819C772.829 225.958 769.873 226.544 766.888 226.54H22.768C16.7369 226.547 10.9502 224.158 6.68051 219.899C2.41085 215.641 0.00785999 209.861 0 203.832V22.7382C0.00785638 16.706 2.4099 10.9234 6.6787 6.66017C10.9475 2.39694 16.7341 0.00156579 22.768 0H766.882C769.869 -1.01559e-07 772.826 0.588185 775.585 1.73096C778.344 2.87374 780.851 4.54872 782.963 6.66024C785.074 8.77175 786.749 11.2784 787.891 14.0371C789.034 16.7958 789.621 19.7525 789.62 22.7382L789.626 203.832Z" fill="black"/>
<path d="M173.401 112.027C173.229 92.9169 189.052 83.62 189.776 83.1872C180.815 70.1253 166.925 68.3407 162.044 68.1984C150.378 66.971 139.062 75.177 133.12 75.177C127.059 75.177 117.908 68.3169 108.045 68.5185C95.3531 68.7142 83.4799 76.0604 76.9679 87.4681C63.529 110.728 73.5519 144.91 86.4274 163.711C92.8682 172.925 100.394 183.2 110.245 182.838C119.883 182.447 123.482 176.702 135.113 176.702C146.636 176.702 150.016 182.838 160.063 182.607C170.406 182.447 176.918 173.358 183.134 164.067C190.577 153.519 193.566 143.119 193.684 142.585C193.447 142.502 173.603 134.925 173.401 112.027ZM154.423 55.8302C159.606 49.3496 163.153 40.533 162.168 31.5859C154.666 31.918 145.284 36.7739 139.881 43.1122C135.101 48.6974 130.831 57.852 131.934 66.4611C140.361 67.0896 149.014 62.2099 154.423 55.8302Z" fill="white"/>
<path d="M312.993 181.514H299.524L292.146 158.337H266.502L259.474 181.514H246.361L271.774 102.609H287.467L312.993 181.514ZM289.922 148.614L283.25 128.01C282.545 125.905 281.216 120.948 279.271 113.146H279.034C278.251 116.501 276.999 121.458 275.285 128.01L268.726 148.614H289.922ZM378.219 152.367C378.219 162.043 375.591 169.692 370.331 175.307C365.622 180.305 359.768 182.801 352.788 182.801C345.25 182.801 339.829 180.115 336.538 174.731V204.585H323.893V143.319C323.893 137.242 323.733 131.01 323.425 124.618H334.545L335.251 133.637H335.488C339.705 126.842 346.104 123.444 354.692 123.444C361.405 123.444 367.01 126.095 371.493 131.401C375.971 136.72 378.219 143.704 378.219 152.367ZM365.337 152.829C365.337 147.291 364.092 142.726 361.589 139.127C358.855 135.386 355.184 133.512 350.582 133.512C347.462 133.512 344.627 134.556 342.095 136.613C339.556 138.688 337.896 141.398 337.119 144.754C336.772 146.009 336.575 147.3 336.532 148.602V158.094C336.532 162.227 337.801 165.719 340.339 168.577C342.878 171.423 346.175 172.852 350.232 172.852C354.994 172.852 358.701 171.008 361.352 167.35C364.009 163.68 365.337 158.841 365.337 152.829ZM443.676 152.367C443.676 162.043 441.049 169.692 435.788 175.307C431.073 180.305 425.226 182.801 418.239 182.801C410.701 182.801 405.281 180.115 401.989 174.731V204.585H389.345V143.319C389.345 137.242 389.185 131.01 388.876 124.618H399.996L400.702 133.637H400.939C405.15 126.842 411.549 123.444 420.143 123.444C426.851 123.444 432.455 126.095 436.951 131.401C441.422 136.72 443.676 143.704 443.676 152.367ZM430.789 152.829C430.789 147.291 429.537 142.726 427.034 139.127C424.3 135.386 420.641 133.512 416.039 133.512C412.919 133.512 410.084 134.556 407.54 136.613C405.002 138.688 403.347 141.398 402.57 144.754C402.185 146.319 401.977 147.594 401.977 148.602V158.094C401.977 162.227 403.252 165.719 405.779 168.577C408.317 171.417 411.615 172.852 415.683 172.852C420.451 172.852 424.158 171.008 426.803 167.35C429.46 163.68 430.789 158.841 430.789 152.829ZM516.861 159.381C516.861 166.099 514.512 171.559 509.845 175.775C504.709 180.376 497.539 182.682 488.346 182.682C479.853 182.682 473.045 181.046 467.909 177.767L470.833 167.231C476.378 170.516 482.469 172.152 489.099 172.152C493.868 172.152 497.574 171.073 500.219 168.933C502.87 166.786 504.211 163.917 504.211 160.336C504.211 157.128 503.102 154.442 500.925 152.254C498.737 150.072 495.119 148.038 490.036 146.171C476.218 141.018 469.303 133.482 469.303 123.569C469.303 117.094 471.746 111.794 476.621 107.649C481.496 103.511 487.961 101.441 496.003 101.441C503.185 101.441 509.169 102.692 513.919 105.189L510.746 115.493C506.275 113.074 501.228 111.865 495.582 111.865C491.122 111.865 487.623 112.962 485.12 115.144C483.014 117.094 481.947 119.472 481.947 122.294C481.947 125.407 483.163 127.992 485.582 130.02C487.682 131.888 491.513 133.921 497.052 136.103C503.849 138.842 508.843 142.032 512.039 145.696C515.26 149.361 516.861 153.932 516.861 159.381ZM558.773 134.105H544.836V161.729C544.836 168.755 547.291 172.259 552.214 172.259C554.473 172.259 556.348 172.069 557.83 171.672L558.18 181.271C555.689 182.202 552.41 182.671 548.347 182.671C543.353 182.671 539.451 181.147 536.634 178.099C533.829 175.052 532.417 169.947 532.417 162.761V134.081H524.114V124.595H532.417V114.177L544.836 110.43V124.595H558.773V134.105ZM621.532 152.598C621.532 161.343 619.029 168.524 614.036 174.139C608.811 179.919 601.86 182.801 593.195 182.801C584.833 182.801 578.184 180.032 573.226 174.5C568.268 168.956 565.789 161.972 565.789 153.547C565.789 144.73 568.351 137.508 573.458 131.893C578.576 126.273 585.467 123.462 594.132 123.462C602.483 123.462 609.19 126.237 614.267 131.775C619.118 137.147 621.532 144.084 621.532 152.598ZM608.425 152.889C608.425 147.677 607.298 143.206 605.039 139.465C602.388 134.947 598.592 132.688 593.675 132.688C588.611 132.688 584.726 134.947 582.081 139.465C579.815 143.206 578.688 147.754 578.688 153.126C578.688 158.343 579.815 162.826 582.081 166.555C584.815 171.073 588.628 173.332 593.569 173.332C598.402 173.332 602.192 171.026 604.932 166.443C607.257 162.612 608.425 158.112 608.425 152.889ZM662.65 135.736C661.334 135.498 660 135.381 658.664 135.386C654.216 135.386 650.776 137.058 648.357 140.425C646.257 143.39 645.201 147.137 645.201 151.661V181.514H632.557V142.536C632.568 136.564 632.446 130.591 632.189 124.624H643.203L643.665 135.51H644.015C645.356 131.769 647.455 128.751 650.337 126.492C652.976 124.518 656.181 123.449 659.477 123.444C660.645 123.444 661.701 123.527 662.638 123.676L662.65 135.736ZM719.199 150.375C719.231 152.296 719.076 154.216 718.736 156.108H680.803C680.946 161.729 682.784 166.033 686.307 168.998C689.504 171.642 693.638 172.971 698.714 172.971C704.331 172.971 709.455 172.081 714.063 170.285L716.044 179.054C710.659 181.402 704.301 182.57 696.965 182.57C688.14 182.57 681.213 179.973 676.172 174.791C671.142 169.603 668.622 162.63 668.622 153.896C668.622 145.323 670.964 138.178 675.656 132.48C680.566 126.397 687.203 123.355 695.553 123.355C703.755 123.355 709.965 126.397 714.181 132.48C717.52 137.301 719.199 143.277 719.199 150.375ZM707.142 147.096C707.231 143.343 706.4 140.111 704.686 137.378C702.498 133.856 699.129 132.101 694.616 132.101C690.482 132.101 687.114 133.814 684.552 137.253C682.446 139.987 681.195 143.271 680.809 147.084L707.142 147.096Z" fill="white"/>
<path d="M262.853 74.7145C259.337 74.7145 256.294 74.5425 253.762 74.252V36.1039C257.304 35.5569 260.883 35.2873 264.467 35.2976C278.967 35.2976 285.645 42.4303 285.645 54.0574C285.645 67.4691 277.757 74.7145 262.853 74.7145ZM264.977 40.1891C263.02 40.1891 261.353 40.3077 259.971 40.5923V69.5917C260.718 69.7103 262.154 69.7636 264.17 69.7636C273.671 69.7636 279.08 64.3563 279.08 54.2293C279.08 45.1992 274.187 40.1891 264.977 40.1891ZM306.456 75.005C298.284 75.005 292.987 68.9039 292.987 60.6209C292.987 51.9881 298.396 45.8337 306.919 45.8337C314.973 45.8337 320.387 51.6442 320.387 60.1644C320.387 68.9039 314.806 75.005 306.456 75.005ZM306.693 50.3754C302.204 50.3754 299.327 54.5732 299.327 60.443C299.327 66.2002 302.263 70.3981 306.634 70.3981C311.005 70.3981 313.941 65.9097 313.941 60.3245C313.941 54.6325 311.064 50.3754 306.693 50.3754ZM366.991 46.4088L358.243 74.3706H352.544L348.92 62.2277C348.019 59.2575 347.269 56.2436 346.672 53.1976H346.554C346.097 56.2452 345.231 59.2987 344.312 62.2277L340.457 74.3706H334.698L326.466 46.4088H332.854L336.021 59.7019C336.768 62.8681 337.397 65.8563 337.918 68.6786H338.037C338.494 66.3247 339.241 63.3839 340.338 59.7612L344.312 46.4147H349.377L353.178 59.4766C354.097 62.6428 354.845 65.7496 355.426 68.6845H355.592C355.995 65.8089 356.63 62.7554 357.49 59.4766L360.888 46.4147L366.991 46.4088ZM399.194 74.3706H392.979V58.3145C392.979 53.3696 391.081 50.8912 387.339 50.8912C383.656 50.8912 381.124 54.0574 381.124 57.7394V74.3706H374.908V54.4013C374.908 51.9288 374.849 49.2785 374.677 46.4028H380.145L380.436 50.7193H380.608C382.28 47.731 385.672 45.8337 389.474 45.8337C395.345 45.8337 399.2 50.322 399.2 57.6267L399.194 74.3706ZM416.334 74.3706H410.113V33.5781H416.334V74.3706ZM438.995 75.005C430.829 75.005 425.527 68.9039 425.527 60.6209C425.527 51.9881 430.936 45.8337 439.452 45.8337C447.512 45.8337 452.921 51.6442 452.921 60.1644C452.927 68.9039 447.34 75.005 438.995 75.005ZM439.227 50.3754C434.737 50.3754 431.861 54.5732 431.861 60.443C431.861 66.2002 434.802 70.3981 439.162 70.3981C443.538 70.3981 446.468 65.9097 446.468 60.3245C446.474 54.6325 443.604 50.3754 439.227 50.3754ZM477.426 74.3706L476.976 71.1511H476.81C474.912 73.7421 472.142 75.005 468.631 75.005C463.62 75.005 460.061 71.495 460.061 66.7754C460.061 59.8738 466.045 56.3045 476.406 56.3045V55.7887C476.406 52.1067 474.455 50.2627 470.6 50.2627C467.842 50.2627 465.423 50.9564 463.294 52.3379L462.03 48.2527C464.616 46.64 467.842 45.8337 471.632 45.8337C478.939 45.8337 482.628 49.6876 482.628 57.4014V67.7003C482.628 70.5226 482.752 72.7104 483.031 74.3765L477.426 74.3706ZM476.572 60.443C469.669 60.443 466.206 62.1151 466.206 66.0817C466.206 69.0166 467.991 70.4514 470.47 70.4514C473.631 70.4514 476.572 68.0383 476.572 64.7595V60.443ZM512.809 74.3706L512.518 69.8822H512.346C510.561 73.2737 507.56 75.005 503.367 75.005C496.624 75.005 491.631 69.0759 491.631 60.7336C491.631 51.9881 496.808 45.8277 503.877 45.8277C507.62 45.8277 510.271 47.0906 511.765 49.6283H511.89V33.5781H518.111V66.8347C518.111 69.5383 518.176 72.0701 518.342 74.3706H512.809ZM511.89 57.9172C511.89 54.004 509.298 50.6659 505.342 50.6659C500.734 50.6659 497.917 54.7511 497.917 60.5023C497.917 66.1409 500.841 70.0008 505.218 70.0008C509.126 70.0008 511.89 66.6034 511.89 62.5775V57.9172ZM557.556 75.005C549.39 75.005 544.094 68.9039 544.094 60.6209C544.094 51.9881 549.502 45.8337 558.019 45.8337C566.079 45.8337 571.487 51.6442 571.487 60.1644C571.493 68.9039 565.913 75.005 557.556 75.005ZM557.788 50.3754C553.304 50.3754 550.428 54.5732 550.428 60.443C550.428 66.2002 553.363 70.3981 557.728 70.3981C562.105 70.3981 565.035 65.9097 565.035 60.3245C565.047 54.6325 562.17 50.3754 557.788 50.3754ZM604.913 74.3706H598.692V58.3145C598.692 53.3696 596.794 50.8912 593.052 50.8912C589.369 50.8912 586.842 54.0574 586.842 57.7394V74.3706H580.621V54.4013C580.621 51.9288 580.561 49.2785 580.389 46.4028H585.858L586.148 50.7193H586.32C587.987 47.731 591.385 45.8277 595.181 45.8277C601.052 45.8277 604.913 50.3161 604.913 57.6208V74.3706ZM646.73 51.0691H639.892V64.6468C639.892 68.1035 641.09 69.8289 643.51 69.8289C644.607 69.8289 645.526 69.7103 646.268 69.5383L646.44 74.2579C645.236 74.7204 643.623 74.9516 641.618 74.9516C636.719 74.9516 633.79 72.248 633.79 65.1686V51.0691H629.709V46.4088H633.79V41.286L639.892 39.442V46.4028H646.73V51.0691ZM679.634 74.3706H673.424V58.4331C673.424 53.4289 671.533 50.8971 667.784 50.8971C664.564 50.8971 661.563 53.085 661.563 57.5141V74.3706H655.354V33.5781H661.563V50.3754H661.688C663.645 47.3278 666.48 45.8277 670.097 45.8277C676.016 45.8277 679.634 50.4287 679.634 57.7394V74.3706ZM713.344 61.8838H694.692C694.811 67.1785 698.316 70.1668 703.505 70.1668C706.263 70.1668 708.801 69.7044 711.043 68.8446L712.01 73.161C709.365 74.3113 706.251 74.8864 702.627 74.8864C693.879 74.8864 688.702 69.3605 688.702 60.7929C688.702 52.2193 694.004 45.7744 701.927 45.7744C709.074 45.7744 713.558 51.0691 713.558 59.0675C713.598 60.0114 713.526 60.9567 713.344 61.8838ZM707.645 57.4548C707.645 53.1383 705.468 50.0908 701.494 50.0908C697.924 50.0908 695.101 53.1976 694.698 57.4548H707.645Z" fill="white"/>
</svg>
