<svg xmlns="http://www.w3.org/2000/svg" version="1.1" xmlns:xlink="http://www.w3.org/1999/xlink" width="20" height="20" x="0" y="0" viewBox="0 0 512 512" style="enable-background:new 0 0 512 512" xml:space="preserve"><g><path fill="#EAE8E8" d="M455.667 53.932h-48.039V32.48c0-10.923-11.5-19.48-26.17-19.48-14.691 0-26.2 8.557-26.2 19.48v21.452H282.2V32.48C282.2 21.557 270.69 13 256 13s-26.2 8.557-26.2 19.48v21.452h-73.032V32.48c0-10.923-11.507-19.48-26.2-19.48s-26.2 8.557-26.2 19.48v21.452H56.361a31.817 31.817 0 0 0-31.782 31.781v381.505A31.819 31.819 0 0 0 56.361 499h399.306a31.8 31.8 0 0 0 31.754-31.782V85.713a31.8 31.8 0 0 0-31.754-31.781zM371.26 32.6c.49-1.05 4.17-3.6 10.2-3.6 6.012 0 9.682 2.554 10.17 3.6v21.332h-20.37zm-125.46.009C246.3 31.556 249.984 29 256 29s9.7 2.556 10.2 3.609v21.323h-20.4zm-125.43 0c.5-1.053 4.183-3.609 10.2-3.609s9.7 2.556 10.2 3.609v21.323h-20.4z" opacity="1" data-original="#eae8e8"></path><path fill="#484868" d="M238.12 205.162v35.914a8 8 0 0 1-8 8h-40.7a8 8 0 0 1-8-8v-35.914a8 8 0 0 1 8-8h40.7a8 8 0 0 1 8 8zm84.464-8h-40.7a8 8 0 0 0-8 8v35.914a8 8 0 0 0 8 8h40.7a8 8 0 0 0 8-8v-35.914a8 8 0 0 0-8-8zm-184.9 87.871H96.952a8 8 0 0 0-8 8v35.914a8 8 0 0 0 8 8h40.733a8 8 0 0 0 8-8v-35.914a8 8 0 0 0-8-8zm92.435 0h-40.7a8 8 0 0 0-8 8v35.914a8 8 0 0 0 8 8h40.7a8 8 0 0 0 8-8v-35.914a8 8 0 0 0-7.999-8zm92.464 0h-40.7a8 8 0 0 0-8 8v35.914a8 8 0 0 0 8 8h40.7a8 8 0 0 0 8-8v-35.914a8 8 0 0 0-7.999-8zm-184.9 87.9H96.952a8 8 0 0 0-8 8v35.885a8 8 0 0 0 8 8h40.733a8 8 0 0 0 8-8v-35.884a8 8 0 0 0-8-8zm92.435 0h-40.7a8 8 0 0 0-8 8v35.885a8 8 0 0 0 8 8h40.7a8 8 0 0 0 8-8v-35.884a8 8 0 0 0-7.998-8zm-92.433-175.771H96.952a8 8 0 0 0-8 8v35.914a8 8 0 0 0 8 8h40.733a8 8 0 0 0 8-8v-35.914a8 8 0 0 0-8-8zm277.363 87.871h-40.7a8 8 0 0 0-8 8v35.914a8 8 0 0 0 8 8h40.7a8 8 0 0 0 8-8v-35.914a8 8 0 0 0-8-8zm-92.464 87.9h-40.7a8 8 0 0 0-8 8v35.885a8 8 0 0 0 8 8h40.7a8 8 0 0 0 8-8v-35.884a8 8 0 0 0-8-8z" opacity="1" data-original="#484868"></path><g fill="#3D3D54"><path d="M137.685 197.162h-10a8 8 0 0 1 8 8v35.914a8 8 0 0 1-8 8h10a8 8 0 0 0 8-8v-35.914a8 8 0 0 0-8-8zM230.12 372.934h-10a8 8 0 0 1 8 8v35.885a8 8 0 0 1-8 8h10a8 8 0 0 0 8-8v-35.885a8 8 0 0 0-8-8zM230.12 285.033h-10a8 8 0 0 1 8 8v35.914a8 8 0 0 1-8 8h10a8 8 0 0 0 8-8v-35.914a8 8 0 0 0-8-8zM137.685 372.934h-10a8 8 0 0 1 8 8v35.885a8 8 0 0 1-8 8h10a8 8 0 0 0 8-8v-35.885a8 8 0 0 0-8-8zM137.685 285.033h-10a8 8 0 0 1 8 8v35.914a8 8 0 0 1-8 8h10a8 8 0 0 0 8-8v-35.914a8 8 0 0 0-8-8zM322.584 372.934h-10a8 8 0 0 1 8 8v35.885a8 8 0 0 1-8 8h10a8 8 0 0 0 8-8v-35.885a8 8 0 0 0-8-8zM322.584 197.162h-10a8 8 0 0 1 8 8v35.914a8 8 0 0 1-8 8h10a8 8 0 0 0 8-8v-35.914a8 8 0 0 0-8-8zM230.12 197.162h-10a8 8 0 0 1 8 8v35.914a8 8 0 0 1-8 8h10a8 8 0 0 0 8-8v-35.914a8 8 0 0 0-8-8zM415.048 285.033h-10a8 8 0 0 1 8 8v35.914a8 8 0 0 1-8 8h10a8 8 0 0 0 8-8v-35.914a8 8 0 0 0-8-8zM322.584 285.033h-10a8 8 0 0 1 8 8v35.914a8 8 0 0 1-8 8h10a8 8 0 0 0 8-8v-35.914a8 8 0 0 0-8-8z" fill="#3D3D54" opacity="1" data-original="#3d3d54"></path></g><path fill="#D22E2E" d="M389.649 246.78a8 8 0 0 1-5.632-2.318l-16.44-16.3a8 8 0 0 1 11.265-11.362l10.3 10.208 20.939-24.721a8 8 0 0 1 12.209 10.342l-26.532 31.322a8 8 0 0 1-5.758 2.821 8.334 8.334 0 0 1-.351.008z" opacity="1" data-original="#d22e2e"></path><path fill="#D1C9C9" d="M417.446 473.242a8 8 0 0 1-5.658 2.345H56.361a31.819 31.819 0 0 1-31.782-31.782v23.413A31.819 31.819 0 0 0 56.361 499h399.306a31.8 31.8 0 0 0 31.754-31.782v-67.293a8 8 0 0 1-2.342 5.655z" opacity="1" data-original="#d1c9c9"></path><path fill="#BCB3B3" d="M487.421 399.925v-1.049h-60.48a16 16 0 0 0-16 16v60.711h.847a8 8 0 0 0 5.658-2.345l67.633-67.662a8 8 0 0 0 2.342-5.655z" opacity="1" data-original="#bcb3b3"></path><path fill="#D22E2E" d="M455.667 53.932H371.26v30.282c.47 1.05 4.138 3.619 10.2 3.619a8 8 0 0 1 0 16c-14.691 0-26.2-8.569-26.2-19.509V53.932H245.8v30.276c.478 1.054 4.151 3.625 10.2 3.625a8 8 0 0 1 0 16c-14.691 0-26.2-8.569-26.2-19.509V53.932H120.372v30.276c.478 1.054 4.151 3.625 10.2 3.625a8 8 0 0 1 0 16c-14.69 0-26.2-8.569-26.2-19.509V53.932H56.361a31.817 31.817 0 0 0-31.782 31.781v68.207h462.842V85.713a31.8 31.8 0 0 0-31.754-31.781z" opacity="1" data-original="#d22e2e"></path><path fill="#D1C9C9" d="M24.579 153.92h462.842v12.492H24.579z" opacity="1" data-original="#d1c9c9"></path><path fill="#484868" d="M264 95.833a8 8 0 0 1-8 8c-14.691 0-26.2-8.569-26.2-19.509V32.48C229.8 21.557 241.309 13 256 13s26.2 8.557 26.2 19.48v21.452h-16V32.609C265.7 31.556 262.015 29 256 29s-9.7 2.556-10.2 3.609v51.6c.478 1.054 4.151 3.625 10.2 3.625a8 8 0 0 1 8 7.999zm-133.43-8c-6.047 0-9.72-2.571-10.2-3.625v-51.6c.5-1.053 4.183-3.609 10.2-3.609s9.7 2.556 10.2 3.609v21.324h16V32.48c0-10.923-11.507-19.48-26.2-19.48s-26.2 8.557-26.2 19.48v51.844c0 10.94 11.508 19.509 26.2 19.509a8 8 0 0 0 0-16zm250.888 0c-6.06 0-9.728-2.569-10.2-3.619V32.6c.49-1.05 4.17-3.6 10.2-3.6 6.012 0 9.682 2.554 10.17 3.6v21.332h16V32.48c0-10.923-11.5-19.48-26.17-19.48-14.691 0-26.2 8.557-26.2 19.48v51.844c0 10.94 11.507 19.509 26.2 19.509a8 8 0 0 0 0-16z" opacity="1" data-original="#484868"></path><path fill="#AD1E1E" d="M130.62 80.834a14.926 14.926 0 0 0-9.949 3.8c1.068 1.194 4.553 3.2 9.9 3.2a8 8 0 0 1 0 16 33.375 33.375 0 0 1-14.062-2.966 14.992 14.992 0 1 0 14.111-20.034zM256 80.834a14.925 14.925 0 0 0-9.921 3.771c1.039 1.191 4.535 3.228 9.921 3.228a8 8 0 0 1 0 16 33.362 33.362 0 0 1-14.123-2.994 14.992 14.992 0 1 0 14.123-20zM381.444 80.834a14.921 14.921 0 0 0-9.916 3.767c1.023 1.186 4.519 3.232 9.93 3.232a8 8 0 0 1 0 16 33.357 33.357 0 0 1-14.14-3 14.992 14.992 0 1 0 14.126-20z" opacity="1" data-original="#ad1e1e"></path></g></svg>