<svg width="25" height="25" viewBox="0 0 25 25" fill="none" xmlns="http://www.w3.org/2000/svg">
<path d="M24.2 0.5H0.199951V24.5H24.2V0.5Z" fill="white"/>
<path d="M4.69995 13.5864V20C4.69995 20.1989 4.77897 20.3897 4.91962 20.5303C5.06027 20.671 5.25104 20.75 5.44995 20.75H18.95C19.1489 20.75 19.3396 20.671 19.4803 20.5303C19.6209 20.3897 19.7 20.1989 19.7 20V13.5865" fill="#1ABC9C"/>
<path d="M4.69995 13.5864V20C4.69995 20.1989 4.77897 20.3897 4.91962 20.5303C5.06027 20.671 5.25104 20.75 5.44995 20.75H18.95C19.1489 20.75 19.3396 20.671 19.4803 20.5303C19.6209 20.3897 19.7 20.1989 19.7 20V13.5865" stroke="white" stroke-linecap="round" stroke-linejoin="round"/>
<path d="M5.26568 4.25H19.1342C19.2972 4.25 19.4558 4.30309 19.5859 4.40124C19.716 4.49939 19.8106 4.63725 19.8554 4.79396L21.2 9.5H3.19995L4.54453 4.79396C4.58931 4.63725 4.68391 4.49939 4.81403 4.40124C4.94415 4.30309 5.10269 4.25 5.26568 4.25Z" fill="#1ABC9C" stroke="white" stroke-linecap="round" stroke-linejoin="round"/>
<path d="M9.19995 9.5V11C9.19995 11.7956 8.88388 12.5587 8.32127 13.1213C7.75866 13.6839 6.9956 14 6.19995 14C5.4043 14 4.64124 13.6839 4.07863 13.1213C3.51602 12.5587 3.19995 11.7956 3.19995 11V9.5" fill="#1ABC9C"/>
<path d="M9.19995 9.5V11C9.19995 11.7956 8.88388 12.5587 8.32127 13.1213C7.75866 13.6839 6.9956 14 6.19995 14C5.4043 14 4.64124 13.6839 4.07863 13.1213C3.51602 12.5587 3.19995 11.7956 3.19995 11V9.5" stroke="#F5F5F5" stroke-linecap="round" stroke-linejoin="round"/>
<path d="M15.2 9.5V11C15.2 11.7956 14.8839 12.5587 14.3213 13.1213C13.7587 13.6839 12.9956 14 12.2 14C11.4043 14 10.6412 13.6839 10.0786 13.1213C9.51602 12.5587 9.19995 11.7956 9.19995 11V9.5" fill="#1ABC9C"/>
<path d="M15.2 9.5V11C15.2 11.7956 14.8839 12.5587 14.3213 13.1213C13.7587 13.6839 12.9956 14 12.2 14C11.4043 14 10.6412 13.6839 10.0786 13.1213C9.51602 12.5587 9.19995 11.7956 9.19995 11V9.5" stroke="#F5F5F5" stroke-linecap="round" stroke-linejoin="round"/>
<path d="M21.2 9.5V11C21.2 11.7956 20.8839 12.5587 20.3213 13.1213C19.7587 13.6839 18.9956 14 18.2 14C17.4043 14 16.6412 13.6839 16.0786 13.1213C15.516 12.5587 15.2 11.7956 15.2 11V9.5" fill="#1ABC9C"/>
<path d="M21.2 9.5V11C21.2 11.7956 20.8839 12.5587 20.3213 13.1213C19.7587 13.6839 18.9956 14 18.2 14C17.4043 14 16.6412 13.6839 16.0786 13.1213C15.516 12.5587 15.2 11.7956 15.2 11V9.5" stroke="#F5F5F5" stroke-linecap="round" stroke-linejoin="round"/>
</svg>
