<svg xmlns="http://www.w3.org/2000/svg" version="1.1" xmlns:xlink="http://www.w3.org/1999/xlink" width="32" height="32" x="0" y="0" viewBox="0 0 512 512" style="enable-background:new 0 0 512 512" xml:space="preserve" class=""><g><path fill="#FFB632" d="m368 176 96 224H256z" opacity="1" data-original="#ffb632" class=""></path><circle cx="368" cy="160" r="16" fill="#FFD33A" opacity="1" data-original="#ffd33a" class=""></circle><path fill="#FFB632" d="M144 176 48 400h208z" opacity="1" data-original="#ffb632" class=""></path><path fill="#EB423F" d="M256 256C40 256 48 400 48 400h416s8-144-208-144z" opacity="1" data-original="#eb423f" class=""></path><path fill="#FFB632" d="M472 432H40c-8.837 0-16-7.163-16-16s7.163-16 16-16h432c8.837 0 16 7.163 16 16s-7.163 16-16 16z" opacity="1" data-original="#ffb632" class=""></path><path fill="#FFD33A" d="m352 328-96-216-96 216L40 192l8 208h416l8-208z" opacity="1" data-original="#ffd33a" class=""></path><path fill="#C7312E" d="m256 368-48-48 48-112 48 112z" opacity="1" data-original="#c7312e"></path><path fill="#962523" d="M256 304v64l-48-48z" opacity="1" data-original="#962523"></path><path fill="#EB423F" d="m304 320-48-16v-96z" opacity="1" data-original="#eb423f" class=""></path><g fill="#FFD33A"><circle cx="40" cy="176" r="16" fill="#FFD33A" opacity="1" data-original="#ffd33a" class=""></circle><circle cx="144" cy="160" r="16" fill="#FFD33A" opacity="1" data-original="#ffd33a" class=""></circle><circle cx="256" cy="96" r="16" fill="#FFD33A" opacity="1" data-original="#ffd33a" class=""></circle><circle cx="472" cy="176" r="16" fill="#FFD33A" opacity="1" data-original="#ffd33a" class=""></circle></g><path fill="#FFB632" d="m72 272 8 96h72zM440 272l-8 96h-72z" opacity="1" data-original="#ffb632" class=""></path></g></svg>