<svg width="13" height="13" viewBox="0 0 13 13" fill="none" xmlns="http://www.w3.org/2000/svg">
<path d="M1.40044 10.2729H1.46845L4.74845 9.55894C4.81236 9.5483 4.87159 9.51868 4.91845 9.47394L10.4754 3.91694C10.6764 3.7165 10.8355 3.4781 10.9435 3.2156C11.0515 2.95311 11.1062 2.67177 11.1044 2.38794C11.1053 1.80983 10.8795 1.25443 10.4754 0.840939C10.275 0.639978 10.0366 0.480879 9.77411 0.372895C9.51162 0.264911 9.23028 0.210198 8.94645 0.211939C8.66081 0.209346 8.37768 0.265333 8.11453 0.376441C7.85137 0.48755 7.61379 0.651422 7.41645 0.857939L1.87645 6.41194C1.8283 6.45156 1.79341 6.50494 1.77645 6.56494L1.06245 9.84494C1.05258 9.90285 1.05649 9.96227 1.07386 10.0184C1.09123 10.0745 1.12158 10.1257 1.16245 10.1679C1.22472 10.2331 1.31033 10.2709 1.40044 10.2729ZM8.94645 0.891939C9.14062 0.891808 9.33293 0.92994 9.51236 1.00416C9.6918 1.07838 9.85485 1.18722 9.9922 1.32448C10.1295 1.46174 10.2385 1.62472 10.3128 1.8041C10.3872 1.98349 10.4254 2.17576 10.4254 2.36994C10.4254 2.37594 10.4254 2.38161 10.4254 2.38694C10.4283 2.57953 10.392 2.77069 10.319 2.94891C10.246 3.12713 10.1376 3.28872 10.0004 3.42394L7.91045 1.31694C8.0467 1.18145 8.20834 1.07417 8.38611 1.00124C8.56389 0.928316 8.7543 0.891172 8.94645 0.891939ZM7.43345 1.81194L9.52345 3.90194L4.68045 8.72594L2.58645 6.65294L7.43345 1.81194ZM2.31845 7.33294L4.00145 9.01194L1.84345 9.48794L2.31845 7.33294Z" fill="#0EBFB1"/>
<path d="M12.1923 12.1079H0.806309C0.716136 12.1079 0.629655 12.1438 0.565893 12.2075C0.50213 12.2713 0.466309 12.3578 0.466309 12.4479C0.466309 12.5381 0.50213 12.6246 0.565893 12.6884C0.629655 12.7521 0.716136 12.7879 0.806309 12.7879H12.1923C12.2825 12.7879 12.369 12.7521 12.4327 12.6884C12.4965 12.6246 12.5323 12.5381 12.5323 12.4479C12.5323 12.3578 12.4965 12.2713 12.4327 12.2075C12.369 12.1438 12.2825 12.1079 12.1923 12.1079Z" fill="#0EBFB1"/>
</svg>
