<svg width="720" height="372" viewBox="0 0 720 372" fill="none" xmlns="http://www.w3.org/2000/svg">
<path d="M252.16 213.31C248.321 213.116 243.711 213.243 241.673 216.044C239.373 219.206 242.082 223.45 240.869 227.029C239.193 231.972 231.635 232.903 225.642 232.892C192.724 232.831 159.806 232.769 126.889 232.708C120.911 232.697 114.538 232.783 109.559 235.624C104.58 238.465 102.156 245.164 106.367 248.809C109.697 251.69 115.465 251.46 118.915 254.235C123.279 257.745 121.468 264.462 116.848 267.721C112.228 270.98 105.931 271.709 99.9872 272.267C92.415 272.978 84.5307 273.704 78.0759 277.177C71.6211 280.651 67.1348 287.79 70.0011 293.852C71.9555 297.984 76.8493 300.662 81.9077 301.673C86.966 302.685 92.2439 302.29 97.4165 301.889C122.773 299.926 148.13 297.962 173.488 295.998C177.295 295.704 181.232 295.421 184.855 296.47C188.477 297.518 191.721 300.274 191.722 303.557C191.724 307.492 187.324 310.368 183.023 311.722C178.722 313.077 173.937 313.659 170.351 316.108C164.382 320.184 164.051 328.409 168.134 333.94C172.218 339.472 179.579 342.633 186.981 344.208C226.703 352.659 266.844 322.64 306.949 329.635C318.127 331.584 328.333 336.31 338.881 340.04C343.432 341.65 348.183 343.084 353.007 344.019C362.503 345.86 369.414 336.368 363.337 329.836C357.872 323.962 350.636 319.295 342.455 316.607C335.006 314.16 326.804 313.24 320.005 309.661C313.205 306.081 308.231 298.353 312.088 292.357C315.431 287.159 323.517 285.893 330.405 286.41C337.293 286.927 344.316 288.622 350.995 287.088C359.467 285.143 365.428 278.217 367.533 270.905C370.485 260.652 366.781 249.287 358.488 241.488C350.195 233.69 337.66 229.518 325.373 229.96C320.086 230.15 314.859 231.138 309.568 231.171C304.454 231.202 298.586 230.204 294.953 226.841C291.82 223.941 291.941 219.233 288.257 216.698C280.684 211.488 261.364 213.775 252.159 213.31H252.16Z" fill="#F2F2F2"/>
<path d="M401.973 255.928C392.91 260.735 388.142 272.551 395.406 279.243C399.755 283.249 406.737 284.122 413.113 284.018C419.49 283.914 426.022 283.093 432.141 284.638C438.26 286.182 443.895 291.105 442.854 296.509C442.044 300.714 437.42 303.764 432.585 304.725C427.75 305.685 422.703 304.985 417.808 304.281C413.634 308.643 415.604 315.617 420.357 319.517C425.11 323.417 431.785 324.971 438.201 326.201C483.554 334.895 531.293 334.263 576.313 324.373C581.898 323.146 587.683 321.664 591.846 318.239C596.008 314.813 597.917 308.856 594.578 304.819C591.331 300.895 584.966 300.356 579.466 299.428C573.966 298.5 567.617 295.693 567.624 290.878C567.634 284.672 577.276 282.776 584.488 282.395C599.006 281.628 613.397 279.116 627.112 274.955C637.472 271.811 648.719 266.386 650.617 257.091C652.43 248.215 644.647 239.913 635.936 234.89C615.664 223.198 589.763 222.29 565.351 221.796C533.748 221.156 502.144 220.559 470.538 220.007C460.643 219.834 449.482 220.097 442.708 226.294C438.638 230.018 437.148 235.235 434.414 239.771C426.512 252.881 410.259 251.534 401.974 255.928H401.973Z" fill="#F2F2F2"/>
<path d="M503.435 214.794V90.5208H429.311L395.643 188.969V129.454C395.643 116.037 390.274 105.7 379.685 98.7317C374.579 95.3717 368.237 92.8446 360.835 91.2207C353.864 89.6914 345.722 88.916 336.634 88.916C327.394 88.916 319.117 89.6947 312.033 91.2305C304.517 92.8599 298.079 95.3952 292.895 98.7662C287.458 102.302 283.32 106.791 280.595 112.107C277.983 117.205 276.658 123.122 276.658 129.694V214.794H266.365V90.5208H192.24L147.112 222.479V255.079H206.378V277.09H266.365V255.079H280.071C280.41 255.735 280.772 256.38 281.161 257.013C284.167 261.906 288.667 266.085 294.535 269.435C305.296 275.58 319.367 278.695 336.359 278.695C352.89 278.695 366.779 275.537 377.638 269.308C383.541 265.922 388.069 261.72 391.096 256.817C391.447 256.248 391.777 255.667 392.088 255.079H443.449V277.09H503.435V255.079H525.326V214.793H503.435V214.794Z" fill="#00CCBB"/>
<path d="M272.811 247.776H250.92V269.788H207.939V247.776H148.674V223.529L191.663 97.8235H250.921V222.096H272.811V247.776ZM207.939 222.096V154.36L188.121 222.096H207.939Z" fill="white"/>
<path d="M278.22 240.436V129.694C278.22 107.378 295.376 96.2185 329.694 96.2185C363.364 96.2185 380.2 107.299 380.2 129.454V240.195C380.2 250.116 375.457 257.797 365.975 263.235C356.494 268.673 344.31 271.393 329.418 271.393C314.059 271.393 301.687 268.713 292.302 263.353C282.913 257.994 278.22 250.356 278.22 240.436ZM336.151 242.162V124.99C336.151 121.555 333.902 119.835 329.41 119.835C324.646 119.835 322.269 121.555 322.269 124.99V242.162C322.269 245.602 324.646 247.318 329.41 247.318C333.902 247.318 336.151 245.602 336.151 242.162Z" fill="white"/>
<path d="M509.883 247.776H487.992V269.788H445.011V247.776H385.745V223.529L428.734 97.8235H487.992V222.096H509.883V247.776ZM445.011 222.096V154.36L425.193 222.096H445.011Z" fill="white"/>
<path d="M537.259 115.466L528.606 109.319L519.952 115.466L509.517 108.054L513.08 104.353L519.952 109.234L528.606 103.087L537.259 109.234L545.911 103.087L554.565 109.234L563.219 103.087L571.872 109.234L580.526 103.088L589.181 109.234L596.055 104.353L599.618 108.054L589.181 115.466L580.526 109.319L571.872 115.466L563.219 109.319L554.565 115.466L545.911 109.319L537.259 115.466Z" fill="#00CCBB"/>
<path d="M537.259 103.37L528.606 97.2231L519.952 103.37L509.517 95.9575L513.08 92.2569L519.952 97.1382L528.606 90.9914L537.259 97.1381L545.911 90.9912L554.565 97.1382L563.219 90.9914L571.872 97.1382L580.526 90.9915L589.181 97.1383L596.055 92.2568L599.618 95.9576L589.181 103.37L580.526 97.2231L571.872 103.37L563.219 97.2231L554.565 103.37L545.911 97.2232L537.259 103.37Z" fill="#00CCBB"/>
<path d="M537.259 91.274L528.606 85.1272L519.952 91.274L509.517 83.8616L513.08 80.161L519.952 85.0423L528.606 78.8955L537.259 85.0422L545.911 78.8953L554.565 85.0423L563.219 78.8955L571.872 85.0423L580.526 78.8956L589.181 85.0424L596.055 80.1609L599.618 83.8617L589.181 91.2738L580.526 85.127L571.872 91.2739L563.219 85.1272L554.565 91.274L545.911 85.1273L537.259 91.274Z" fill="#00CCBB"/>
<path d="M80.7058 278.695C77.581 283.294 75.371 288.227 79.7689 292.852C81.6071 294.762 84.0791 296.123 86.6491 297.235C87.0675 297.417 87.5033 297.593 87.9291 297.765C88.9586 298.178 89.0786 298.142 87.84 298.03C85.5721 297.764 83.3922 297.146 81.4014 296.144C79.6495 295.267 78.1004 294.057 76.9913 292.594C73.3936 287.782 75.9683 282.105 80.7058 278.695Z" fill="white"/>
<path d="M85.3515 282.241C83.6567 285.629 82.7935 288.314 86.4646 291.033C87.3365 291.687 88.389 292.273 89.3938 292.802C89.5479 292.883 89.7037 292.963 89.8585 293.054C89.1191 293.095 88.3789 293.032 87.6545 292.894C81.1533 291.591 79.8438 285.425 85.3515 282.241Z" fill="white"/>
<path d="M176.638 315.895C173.027 321.21 170.473 326.91 175.555 332.256C177.679 334.463 180.536 336.035 183.506 337.321C183.99 337.531 184.494 337.734 184.986 337.933C186.175 338.411 186.314 338.369 184.882 338.239C182.262 337.932 179.742 337.218 177.442 336.059C175.417 335.047 173.627 333.648 172.345 331.958C168.187 326.397 171.163 319.835 176.638 315.895Z" fill="white"/>
<path d="M182.007 319.993C180.048 323.909 179.051 327.011 183.293 330.153C184.301 330.909 185.517 331.587 186.679 332.198C186.856 332.291 187.037 332.384 187.216 332.488C186.361 332.536 185.506 332.463 184.669 332.304C177.155 330.798 175.642 323.673 182.007 319.993Z" fill="white"/>
<path d="M588.595 233.125C605.675 230.897 626.048 234.852 636.705 247.303C635.784 246.814 634.879 246.238 633.962 245.747C633.393 245.44 632.82 245.117 632.258 244.803C631.458 244.405 630.633 243.956 629.838 243.56C624.786 241.063 619.407 239.093 613.83 237.657C610.792 236.852 607.671 236.222 604.573 235.621C603.791 235.494 602.204 235.222 601.424 235.082C599.843 234.82 598.246 234.581 596.657 234.333C595.107 234.13 593.385 233.839 591.837 233.635C590.76 233.486 589.679 233.324 588.595 233.125Z" fill="white"/>
<path d="M586.922 238.804C604.002 236.576 624.375 240.531 635.033 252.982C634.111 252.493 633.206 251.917 632.29 251.427C631.72 251.119 631.148 250.796 630.585 250.482C629.785 250.084 628.96 249.635 628.166 249.24C623.113 246.742 617.734 244.773 612.157 243.336C609.119 242.532 605.999 241.901 602.9 241.3C602.118 241.173 600.531 240.901 599.751 240.761C598.17 240.5 596.573 240.26 594.984 240.012C593.434 239.809 591.712 239.519 590.164 239.314C589.087 239.165 588.007 239.004 586.922 238.804Z" fill="white"/>
<path d="M299.02 358.306C307.113 358.306 313.673 352.672 313.673 345.721C313.673 338.77 307.113 333.136 299.02 333.136C290.928 333.136 284.367 338.77 284.367 345.721C284.367 352.672 290.928 358.306 299.02 358.306Z" fill="#00CCBB"/>
<path d="M526.534 181.096C534.627 181.096 541.187 175.461 541.187 168.511C541.187 161.56 534.627 155.926 526.534 155.926C518.441 155.926 511.881 161.56 511.881 168.511C511.881 175.461 518.441 181.096 526.534 181.096Z" fill="#00CCBB"/>
<path d="M526.534 191.017L537.465 207.278H515.603L526.534 191.017Z" fill="#00CCBB"/>
<path d="M283.743 61.9102L294.674 78.1713H272.812L283.743 61.9102Z" fill="#00CCBB"/>
<path d="M308.266 83.5917L297.335 67.3306H319.197L308.266 83.5917Z" fill="#00CCBB"/>
<path d="M543.352 200.361H565.783V181.096H543.352V200.361Z" fill="#00CCBB"/>
<path d="M320.705 63.35H343.136V44.085H320.705V63.35Z" fill="#00CCBB"/>
<path d="M255.789 367.939H278.22V348.674H255.789V367.939Z" fill="#00CCBB"/>
<path d="M181.874 297.469C183.317 297.493 184.805 297.859 185.843 298.721C186.842 299.551 187.325 300.759 187.415 301.951C187.545 303.648 186.891 305.422 185.462 306.6C184.033 307.778 181.803 308.26 179.971 307.613C176.908 306.53 175.862 302.931 172.781 301.886C171.843 301.568 170.635 301.412 170.265 300.606C169.901 299.81 170.718 298.925 171.663 298.655C172.576 298.395 173.534 298.523 174.474 298.519C175.381 298.516 176.207 298.312 177.077 298.117C178.633 297.768 180.259 297.441 181.874 297.469Z" fill="#F2F2F2"/>
<path d="M173.887 308.471C173.476 309.048 172.831 309.523 172.065 309.679C170.962 309.903 169.776 309.421 169.073 308.658C168 307.495 167.158 304.196 169.093 303.305C170.789 302.523 173.493 304.125 174.131 305.421C174.609 306.393 174.53 307.568 173.887 308.471Z" fill="#F2F2F2"/>
<path d="M314.265 294.802C313.771 295.74 313.611 296.793 313.695 297.821C313.943 300.842 316.439 303.639 319.771 304.631C322.288 305.379 325.239 305.092 327.381 303.732C329.523 302.371 330.718 299.927 330.154 297.691C329.689 295.846 328.134 294.302 326.272 293.3C324.487 292.34 321.631 291.192 319.486 291.613C317.288 292.044 315.235 292.958 314.265 294.802Z" fill="#F2F2F2"/>
<path d="M326.474 307.269C326.648 307.936 327.057 308.541 327.531 309.089C328.02 309.653 328.596 310.178 329.316 310.512C330.036 310.845 330.918 310.968 331.684 310.721C332.537 310.444 333.134 309.745 333.4 308.996C333.791 307.892 333.527 306.633 332.712 305.716C331.896 304.799 330.195 304.008 328.815 304.249C327.122 304.543 326.097 305.821 326.474 307.269Z" fill="#F2F2F2"/>
<path d="M573.66 286.819C572.72 287.707 572.441 289.022 572.758 290.19C573.074 291.358 573.928 292.382 574.981 293.169C576.114 294.016 577.493 294.618 578.957 294.906C579.903 295.092 580.967 295.131 581.774 294.667C582.585 294.201 582.944 293.349 583.252 292.554C584.021 290.578 584.789 288.602 585.557 286.625C585.78 286.053 585.999 285.416 585.711 284.866C585.354 284.183 584.371 283.937 583.5 283.893C581.409 283.788 579.794 284.493 578.015 285.315C576.594 285.972 574.815 285.728 573.66 286.819Z" fill="#F2F2F2"/>
<path d="M587.406 285.435C586.728 286.18 586.425 287.199 586.738 288.105C587.05 289.012 588.029 289.752 589.129 289.794C590.253 289.837 591.3 289.169 591.817 288.311C592.335 287.453 592.399 286.442 592.277 285.482C592.212 284.971 592.088 284.444 591.725 284.035C591.471 283.75 591.017 283.488 590.582 283.504C590.033 283.523 590.122 283.731 589.777 283.969C588.993 284.509 588.065 284.71 587.406 285.435Z" fill="#F2F2F2"/>
<path d="M595.205 282.82C594.532 282.82 594.009 282.958 593.516 283.239C593.023 283.521 592.682 284.062 592.87 284.545C592.984 284.84 593.277 285.066 593.608 285.193C593.938 285.321 594.305 285.36 594.666 285.377C595.181 285.4 595.707 285.378 596.194 285.234C596.682 285.091 597.131 284.814 597.373 284.424C597.615 284.033 597.62 283.523 597.317 283.165C597.014 282.806 595.878 282.82 595.205 282.82Z" fill="#F2F2F2"/>
<path d="M171.761 80.0185C159.385 95.6072 144.122 108.716 125.972 119.345C124.145 120.398 120.831 120.633 118.735 119.802C104.8 114.156 94.546 105.349 87.9718 93.3811C87.0043 91.5806 87.2776 88.7346 88.5043 87.1653C100.88 71.5764 116.143 58.4676 134.293 47.8389C136.12 46.785 139.434 46.5503 141.53 47.3815C155.465 53.0278 165.719 61.835 172.293 73.8026C173.26 75.603 172.987 78.4491 171.761 80.0185Z" fill="#F2F2F2"/>
<path d="M120.978 88.7303H114.011V82.7463H111.139V88.7303H104.172V91.1966H111.139V97.1807H114.011V91.1966H120.978V88.7303Z" fill="#00CCBB"/>
<path d="M145.954 67.2794H138.986V61.2954H136.115V67.2794H129.147V69.7457H136.115V75.7298H138.986V69.7457H145.954V67.2794Z" fill="#00CCBB"/>
<path d="M157.958 84.4528L156.11 86.0393C154.272 84.4607 151.304 83.9852 147.753 84.7003C143.979 85.4603 140.067 87.4532 136.738 90.312C133.41 93.1708 131.089 96.5305 130.204 99.772C129.372 102.822 129.926 105.371 131.764 106.95L129.916 108.537C127.415 106.389 126.614 103.094 127.661 99.2599C128.655 95.6171 131.223 91.8759 134.891 88.7256C138.559 85.5753 142.915 83.37 147.156 82.5159C151.621 81.617 155.457 82.3048 157.958 84.4528Z" fill="#00CCBB"/>
<path d="M491.916 75.5571C473.766 64.9282 458.503 51.8195 446.127 36.2307C444.901 34.6614 444.627 31.8153 445.595 30.0149C452.169 18.0471 462.423 9.24007 476.358 3.59372C478.454 2.76274 481.768 2.99748 483.595 4.05108C501.745 14.6799 517.008 27.7888 529.384 43.3775C530.611 44.9467 530.884 47.7929 529.916 49.5934C523.342 61.5611 513.088 70.3681 499.153 76.0145C497.057 76.8452 493.743 76.6105 491.916 75.5571Z" fill="#00CCBB"/>
<path d="M481.773 31.942V25.958H488.74V23.4917H481.773V17.5076H478.901V23.4917H471.934V25.958H478.901V31.942H481.773Z" fill="white"/>
<path d="M506.748 53.3928V47.4087H513.716V44.9424H506.748V38.9583H503.877V44.9424H496.909V47.4087H503.877V53.3928H506.748Z" fill="white"/>
<path d="M486.753 63.7023L484.906 62.1157C486.744 60.5371 487.298 57.9879 486.465 54.9378C485.58 51.6962 483.26 48.3367 479.931 45.4779C476.603 42.6191 472.691 40.626 468.917 39.866C465.365 39.1509 462.397 39.6265 460.559 41.2051L458.712 39.6185C461.213 37.4705 465.049 36.7826 469.513 37.6815C473.754 38.5355 478.11 40.7408 481.778 43.8912C485.446 47.0416 488.014 50.7827 489.008 54.4255C490.055 58.2596 489.254 61.5543 486.753 63.7023Z" fill="white"/>
<path d="M146.344 320.97L137.69 314.823L129.037 320.97L118.602 313.557L122.165 309.857L129.037 314.738L137.69 308.591L146.344 314.738L154.996 308.591L163.65 314.738L172.303 308.591L180.958 314.738L189.611 308.591L198.266 314.738L205.14 309.857L208.703 313.557L198.266 320.969L189.611 314.823L180.958 320.97L172.303 314.823L163.65 320.97L154.996 314.823L146.344 320.97Z" fill="#00CCBB"/>
<path d="M146.344 308.874L137.69 302.727L129.037 308.874L118.602 301.461L122.165 297.761L129.037 302.642L137.69 296.495L146.344 302.642L154.996 296.495L163.65 302.642L172.303 296.495L180.958 302.642L189.611 296.495L198.266 302.642L205.14 297.761L208.703 301.461L198.266 308.874L189.611 302.727L180.958 308.874L172.303 302.727L163.65 308.874L154.996 302.727L146.344 308.874Z" fill="#00CCBB"/>
<path d="M146.344 296.778L137.69 290.631L129.037 296.778L118.602 289.365L122.165 285.665L129.037 290.546L137.69 284.399L146.344 290.546L154.996 284.399L163.65 290.546L172.303 284.399L180.958 290.546L189.611 284.399L198.266 290.546L205.14 285.665L208.703 289.365L198.266 296.778L189.611 290.631L180.958 296.778L172.303 290.631L163.65 296.778L154.996 290.631L146.344 296.778Z" fill="#00CCBB"/>
</svg>
