<svg xmlns="http://www.w3.org/2000/svg" version="1.1" xmlns:xlink="http://www.w3.org/1999/xlink" width="20" height="20" x="0" y="0" viewBox="0 0 512 512" style="enable-background:new 0 0 512 512" xml:space="preserve"><g><path fill="#E62E6B" d="m365.587 55.108-75.55 61.408-61.408 75.55c12.607 12.607 33.046 12.607 45.653 0l52.724-38.582 38.582-52.724c12.606-12.606 12.606-33.046-.001-45.652z" opacity="1" data-original="#e62e6b"></path><path fill="#FF4D88" d="M319.935 55.108 267.211 93.69l-38.581 52.724c-12.607 12.607-12.607 33.046 0 45.653L365.587 55.108c-12.606-12.607-33.046-12.607-45.652 0z" opacity="1" data-original="#ff4d88"></path><path fill="#E62E6B" d="m319.935 9.455-75.55 61.408-61.408 75.55c12.607 12.607 33.046 12.607 45.653 0l91.305-91.305c12.606-12.607 12.606-33.046 0-45.653z" opacity="1" data-original="#e62e6b"></path><path fill="#FF4D88" d="m274.282 9.455-91.305 91.305c-12.607 12.607-12.607 33.046 0 45.653L319.935 9.455c-12.607-12.607-33.046-12.607-45.653 0z" opacity="1" data-original="#ff4d88"></path><path fill="#B32453" d="m502.545 192.065-75.55 61.408-61.408 75.55c12.607 12.607 33.046 12.607 45.653 0l91.305-91.305c12.607-12.607 12.607-33.046 0-45.653z" opacity="1" data-original="#b32453"></path><path fill="#E62E6B" d="m456.892 192.065-52.724 38.582-38.582 52.724c-12.607 12.607-12.607 33.046 0 45.653l136.958-136.958c-12.606-12.607-33.045-12.607-45.652-.001z" opacity="1" data-original="#e62e6b"></path><path fill="#B32453" d="m456.892 146.413-75.55 61.408-61.408 75.55c12.607 12.607 33.046 12.607 45.653 0l91.305-91.305c12.607-12.607 12.607-33.047 0-45.653z" opacity="1" data-original="#b32453"></path><path fill="#E62E6B" d="M456.892 146.413c-12.607-12.607-33.046-12.607-45.653 0l-52.724 38.582-38.582 52.724c-12.607 12.607-12.607 33.046 0 45.653z" opacity="1" data-original="#e62e6b"></path><path fill="#FFBB33" d="M22.826 489.174 45.653 512l35.046-35.046-22.827-36.969z" opacity="1" data-original="#ffbb33"></path><path fill="#FFDD33" d="M35.046 431.301 0 466.347l22.826 22.827 42.117-42.117z" opacity="1" data-original="#ffdd33"></path><path fill="#FFDD33" d="m57.872 454.128 22.827 22.826 21.213-21.213-22.826-36.969z" opacity="1" data-original="#ffdd33"></path><path fill="#FFEE99" d="m86.157 425.843-29.898-15.755-21.213 21.213 22.826 22.827z" opacity="1" data-original="#ffee99"></path><path fill="#FFBB33" d="m79.086 432.914 22.826 22.827 24.439-24.44-22.826-36.968z" opacity="1" data-original="#ffbb33"></path><path fill="#FFDD33" d="m110.596 401.404-29.897-15.755-24.44 24.439 22.827 22.826z" opacity="1" data-original="#ffdd33"></path><path fill="#FFDD33" d="m103.525 408.475 22.826 22.826 21.213-21.213-22.826-36.968z" opacity="1" data-original="#ffdd33"></path><path fill="#FFEE99" d="m131.809 380.191-29.897-15.755-21.213 21.213 22.826 22.826z" opacity="1" data-original="#ffee99"></path><path fill="#FFBB33" d="m124.738 387.262 22.826 22.826 24.44-24.439-22.826-36.969z" opacity="1" data-original="#ffbb33"></path><path fill="#FFDD33" d="m156.249 355.751-29.898-15.755-24.439 24.44 22.826 22.826z" opacity="1" data-original="#ffdd33"></path><path fill="#FFDD33" d="m149.178 362.822 22.826 22.827 21.213-21.213-22.826-36.969z" opacity="1" data-original="#ffdd33"></path><path fill="#FFEE99" d="m177.462 334.538-29.898-15.755-21.213 21.213 22.827 22.826z" opacity="1" data-original="#ffee99"></path><path fill="#FFBB33" d="m170.391 341.609 22.826 22.827 126.718-126.718-22.827-36.969z" opacity="1" data-original="#ffbb33"></path><path fill="#FFDD33" d="m304.179 207.821-29.897-15.756-126.718 126.718 22.827 22.826z" opacity="1" data-original="#ffdd33"></path><path fill="#FFDD33" d="m297.108 214.892 22.827 22.826 21.213-21.213-22.826-36.969z" opacity="1" data-original="#ffdd33"></path><path fill="#FFEE99" d="m325.393 186.607-29.898-15.755-21.213 21.213 22.826 22.827z" opacity="1" data-original="#ffee99"></path><path fill="#FFBB33" d="m318.322 193.678 22.826 22.827 48.879-48.879-22.827-36.968z" opacity="1" data-original="#ffbb33"></path><path fill="#FFDD33" d="m374.271 137.729-29.897-15.756-48.879 48.879 22.827 22.826z" opacity="1" data-original="#ffdd33"></path><path fill="#FFDD33" d="m388.414 123.586-17.678 3.536L367.2 144.8l22.827 22.826 21.213-21.213z" opacity="1" data-original="#ffdd33"></path><path fill="#FFEE99" d="m344.325 122 21.21-21.21 22.823 22.822-21.21 21.21z" opacity="1" data-original="#ffee99"></path></g></svg>