<svg width="16" height="32" viewBox="0 0 16 32" fill="none" xmlns="http://www.w3.org/2000/svg">
<path d="M16 8C16 3.588 12.412 0 8 0C3.588 0 0 3.588 0 8C0.00241611 9.88989 0.67283 11.7181 1.89276 13.1615C3.11269 14.6049 4.8036 15.5707 6.66667 15.888V30.6667C6.66667 31.0203 6.80714 31.3594 7.05719 31.6095C7.30724 31.8595 7.64638 32 8 32C8.35362 32 8.69276 31.8595 8.94281 31.6095C9.19286 31.3594 9.33333 31.0203 9.33333 30.6667V15.888C11.1964 15.5707 12.8873 14.6049 14.1072 13.1615C15.3272 11.7181 15.9976 9.88989 16 8Z" fill="#006980"/>
</svg>
