<svg xmlns="http://www.w3.org/2000/svg" version="1.1" xmlns:xlink="http://www.w3.org/1999/xlink" width="512" height="512" x="0" y="0" viewBox="0 0 512 512" style="enable-background:new 0 0 512 512" xml:space="preserve" class=""><g transform="matrix(1,0,0,1,95,0)"><path d="M160 512C71.766 512 0 440.234 0 352V128c0-11.797 9.559-21.332 21.332-21.332 11.777 0 21.336 9.535 21.336 21.332v224c0 64.684 52.629 117.332 117.332 117.332S277.332 416.684 277.332 352V117.332c0-41.172-33.492-74.664-74.664-74.664-41.176 0-74.668 33.492-74.668 74.664v213.336c0 17.64 14.355 32 32 32s32-14.36 32-32V128c0-11.797 9.559-21.332 21.332-21.332 11.777 0 21.336 9.535 21.336 21.332v202.668c0 41.172-33.496 74.664-74.668 74.664s-74.668-33.492-74.668-74.664V117.332C85.332 52.652 137.961 0 202.668 0 267.371 0 320 52.652 320 117.332V352c0 88.234-71.766 160-160 160zm0 0" fill="#000000" opacity="1" data-original="#000000" class=""></path></g></svg>