<svg width="800" height="238" viewBox="0 0 800 238" fill="none" xmlns="http://www.w3.org/2000/svg">
<path d="M770.37 237.037H29.6296C13.037 237.037 0 224 0 207.407V29.6296C0 13.037 13.037 0 29.6296 0H770.37C786.963 0 800 13.037 800 29.6296V207.407C800 224 786.963 237.037 770.37 237.037Z" fill="black"/>
<path d="M280.89 60.4462C280.89 65.1869 279.704 69.3351 276.741 72.298C273.186 75.8536 269.038 77.6314 263.704 77.6314C258.371 77.6314 254.223 75.8536 250.667 72.298C247.112 68.7425 245.334 64.5943 245.334 59.261C245.334 53.9277 247.112 49.7795 250.667 46.224C254.223 42.6684 258.371 40.8906 263.704 40.8906C266.075 40.8906 268.445 41.4832 270.815 42.6684C273.186 43.8536 274.964 45.0388 276.149 46.8166L273.186 49.7795C270.815 46.8165 267.852 45.6314 263.704 45.6314C260.149 45.6314 256.593 46.8165 254.223 49.7795C251.26 52.1499 250.075 55.7054 250.075 59.8536C250.075 64.0017 251.26 67.5573 254.223 69.9277C257.186 72.298 260.149 74.0758 263.704 74.0758C267.852 74.0758 270.815 72.8906 273.778 69.9277C275.556 68.1499 276.741 65.7795 276.741 62.8166H263.704V58.0758H280.89V60.4462ZM308.149 45.6314H292.149V56.8906H306.964V61.0388H292.149V72.298H308.149V77.0388H287.408V41.4832H308.149V45.6314ZM327.704 77.0388H322.964V45.6314H312.89V41.4832H337.778V45.6314H327.704V77.0388ZM354.964 77.0388V41.4832H359.704V77.0388H354.964ZM379.852 77.0388H375.112V45.6314H365.038V41.4832H389.334V45.6314H379.26V77.0388H379.852ZM436.149 72.298C432.593 75.8536 428.445 77.6314 423.112 77.6314C417.778 77.6314 413.63 75.8536 410.075 72.298C406.519 68.7425 404.741 64.5943 404.741 59.261C404.741 53.9277 406.519 49.7795 410.075 46.224C413.63 42.6684 417.778 40.8906 423.112 40.8906C428.445 40.8906 432.593 42.6684 436.149 46.224C439.704 49.7795 441.482 53.9277 441.482 59.261C441.482 64.5943 439.704 68.7425 436.149 72.298ZM413.63 69.3351C416.001 71.7054 419.556 73.4832 423.112 73.4832C426.667 73.4832 430.223 72.298 432.593 69.3351C434.964 66.9647 436.741 63.4091 436.741 59.261C436.741 55.1128 435.556 51.5573 432.593 49.1869C430.223 46.8166 426.667 45.0388 423.112 45.0388C419.556 45.0388 416.001 46.224 413.63 49.1869C411.26 51.5573 409.482 55.1128 409.482 59.261C409.482 63.4091 410.667 66.9647 413.63 69.3351ZM448.001 77.0388V41.4832H453.334L470.519 69.3351V41.4832H475.26V77.0388H470.519L452.149 48.0017V77.0388H448.001Z" fill="white" stroke="white" stroke-width="1.18519" stroke-miterlimit="10"/>
<path d="M403.555 129.188C389.332 129.188 378.073 139.854 378.073 154.669C378.073 168.891 389.332 180.151 403.555 180.151C417.777 180.151 429.036 169.484 429.036 154.669C429.036 139.262 417.777 129.188 403.555 129.188ZM403.555 169.484C395.851 169.484 389.332 162.966 389.332 154.077C389.332 145.188 395.851 138.669 403.555 138.669C411.258 138.669 417.777 144.595 417.777 154.077C417.777 162.966 411.258 169.484 403.555 169.484ZM348.444 129.188C334.221 129.188 322.962 139.854 322.962 154.669C322.962 168.891 334.221 180.151 348.444 180.151C362.666 180.151 373.925 169.484 373.925 154.669C373.925 139.262 362.666 129.188 348.444 129.188ZM348.444 169.484C340.74 169.484 334.221 162.966 334.221 154.077C334.221 145.188 340.74 138.669 348.444 138.669C356.147 138.669 362.666 144.595 362.666 154.077C362.666 162.966 356.147 169.484 348.444 169.484ZM282.666 136.891V147.558H308.147C307.555 153.484 305.184 158.225 302.221 161.188C298.666 164.743 292.74 168.891 282.666 168.891C266.666 168.891 254.814 156.447 254.814 140.447C254.814 124.447 267.258 112.003 282.666 112.003C290.962 112.003 297.481 115.558 302.221 119.706L309.925 112.003C303.407 106.077 295.11 101.336 283.258 101.336C261.925 101.336 243.555 119.114 243.555 140.447C243.555 161.78 261.925 179.558 283.258 179.558C295.11 179.558 303.407 176.003 310.518 168.299C317.629 161.188 319.999 151.114 319.999 143.41C319.999 141.04 319.999 138.669 319.407 136.891H282.666ZM551.703 145.188C549.332 139.262 543.407 129.188 530.37 129.188C517.332 129.188 506.666 139.262 506.666 154.669C506.666 168.891 517.332 180.151 531.555 180.151C542.814 180.151 549.925 173.04 552.295 168.891L543.999 162.966C541.036 167.114 537.481 170.077 531.555 170.077C525.629 170.077 522.073 167.706 519.11 162.373L552.888 148.151L551.703 145.188ZM517.332 153.484C517.332 144.003 525.036 138.669 530.37 138.669C534.518 138.669 538.666 141.04 539.851 144.003L517.332 153.484ZM489.481 177.78H500.74V103.706H489.481V177.78ZM471.703 134.521C468.74 131.558 463.999 128.595 458.073 128.595C445.629 128.595 433.777 139.854 433.777 154.077C433.777 168.299 445.036 178.966 458.073 178.966C463.999 178.966 468.74 176.003 471.11 173.04H471.703V176.595C471.703 186.077 466.37 191.41 458.073 191.41C451.555 191.41 446.814 186.669 445.629 182.521L436.147 186.669C439.11 193.188 446.221 201.484 458.666 201.484C471.703 201.484 482.37 193.78 482.37 175.41V130.373H471.703V134.521ZM458.666 169.484C450.962 169.484 444.444 162.966 444.444 154.077C444.444 145.188 450.962 138.669 458.666 138.669C466.37 138.669 472.295 145.188 472.295 154.077C472.295 162.966 466.37 169.484 458.666 169.484ZM603.258 103.706H576.592V177.78H587.851V149.929H603.258C615.703 149.929 627.555 141.04 627.555 126.817C627.555 112.595 615.703 103.706 603.258 103.706ZM603.851 139.262H587.851V113.78H603.851C612.147 113.78 616.888 120.891 616.888 126.225C616.295 132.743 611.555 139.262 603.851 139.262ZM671.999 128.595C663.703 128.595 655.407 132.151 652.444 139.854L662.518 144.003C664.888 139.854 668.444 138.669 672.592 138.669C678.518 138.669 683.851 142.225 684.444 148.151V148.743C682.666 147.558 677.925 145.78 673.184 145.78C662.518 145.78 651.851 151.706 651.851 162.373C651.851 172.447 660.74 178.966 670.221 178.966C677.925 178.966 681.481 175.41 684.444 171.854H685.036V177.78H695.703V149.336C694.518 136.299 684.444 128.595 671.999 128.595ZM670.814 169.484C667.258 169.484 661.925 167.706 661.925 162.966C661.925 157.04 668.444 155.262 673.777 155.262C678.518 155.262 680.888 156.447 683.851 157.632C682.666 164.743 676.74 169.484 670.814 169.484ZM733.036 130.373L720.592 162.373H719.999L706.962 130.373H695.11L714.666 175.41L703.407 200.299H714.666L744.888 130.373H733.036ZM633.481 177.78H644.74V103.706H633.481V177.78Z" fill="white"/>
<path d="M61.6301 44.4453C59.8524 46.2231 59.2598 49.1861 59.2598 52.7416V183.705C59.2598 187.26 60.445 190.223 62.2227 192.001L62.8153 192.593L136.297 119.112V117.927L61.6301 44.4453Z" fill="url(#paint0_linear_823_26)"/>
<path d="M160.001 144.003L135.705 119.707V117.929L160.001 93.6328L160.594 94.2254L189.631 110.818C197.927 115.559 197.927 123.262 189.631 128.003L160.001 144.003Z" fill="url(#paint1_linear_823_26)"/>
<path d="M160.594 143.408L135.705 118.52L61.6309 192.594C64.5938 195.557 68.742 195.557 74.0753 193.186L160.594 143.408Z" fill="url(#paint2_linear_823_26)"/>
<path d="M160.594 93.6332L74.0753 44.448C68.742 41.485 64.5938 42.0776 61.6309 45.0406L135.705 118.522L160.594 93.6332Z" fill="url(#paint3_linear_823_26)"/>
<path opacity="0.2" d="M160.001 142.816L74.0753 191.409C69.3346 194.372 65.1864 193.779 62.2235 191.409L61.6309 192.002L62.2235 192.594C65.1864 194.965 69.3346 195.557 74.0753 192.594L160.001 142.816Z" fill="black"/>
<path opacity="0.12" d="M61.6301 191.408C59.8524 189.631 59.2598 186.668 59.2598 183.112V183.705C59.2598 187.26 60.445 190.223 62.2227 192.001V191.408H61.6301ZM189.63 126.223L160.001 142.816L160.593 143.408L189.63 126.816C193.778 124.445 195.556 121.482 195.556 118.52C195.556 121.482 193.186 123.853 189.63 126.223Z" fill="black"/>
<path opacity="0.25" d="M74.0746 45.0388L189.63 110.817C193.186 113.187 195.556 115.557 195.556 118.52C195.556 115.557 193.778 112.594 189.63 110.224L74.0746 44.4462C65.7783 39.7055 59.2598 43.261 59.2598 52.7425V53.3351C59.2598 44.4462 65.7783 40.298 74.0746 45.0388Z" fill="white"/>
<defs>
<linearGradient id="paint0_linear_823_26" x1="129.186" y1="51.6157" x2="29.7309" y2="151.065" gradientUnits="userSpaceOnUse">
<stop stop-color="#00A0FF"/>
<stop offset="0.007" stop-color="#00A1FF"/>
<stop offset="0.26" stop-color="#00BEFF"/>
<stop offset="0.512" stop-color="#00D2FF"/>
<stop offset="0.76" stop-color="#00DFFF"/>
<stop offset="1" stop-color="#00E3FF"/>
</linearGradient>
<linearGradient id="paint1_linear_823_26" x1="200.499" y1="118.528" x2="57.1095" y2="118.528" gradientUnits="userSpaceOnUse">
<stop stop-color="#FFE000"/>
<stop offset="0.409" stop-color="#FFBD00"/>
<stop offset="0.775" stop-color="#FFA500"/>
<stop offset="1" stop-color="#FF9C00"/>
</linearGradient>
<linearGradient id="paint2_linear_823_26" x1="147.124" y1="132.125" x2="12.262" y2="266.988" gradientUnits="userSpaceOnUse">
<stop stop-color="#FF3A44"/>
<stop offset="1" stop-color="#C31162"/>
</linearGradient>
<linearGradient id="paint3_linear_823_26" x1="43.2427" y1="1.04652" x2="103.468" y2="61.2717" gradientUnits="userSpaceOnUse">
<stop stop-color="#32A071"/>
<stop offset="0.069" stop-color="#2DA771"/>
<stop offset="0.476" stop-color="#15CF74"/>
<stop offset="0.801" stop-color="#06E775"/>
<stop offset="1" stop-color="#00F076"/>
</linearGradient>
</defs>
</svg>
