<?xml version="1.0" encoding="utf-8"?>
<!-- Generator: Adobe Illustrator 27.0.0, SVG Export Plug-In . SVG Version: 6.00 Build 0)  -->
<svg version="1.1" id="Layer_1" xmlns="http://www.w3.org/2000/svg" xmlns:xlink="http://www.w3.org/1999/xlink" x="0px" y="0px"
	 viewBox="0 0 1024 1024" style="enable-background:new 0 0 1024 1024;" xml:space="preserve">
<style type="text/css">
	.st0{fill:#00CCBB;}
	.st1{fill:#FFFFFF;}
	.st2{fill-rule:evenodd;clip-rule:evenodd;fill:url(#SVGID_1_);}
</style>
<path class="st0" d="M818.6,257.4c-16.5,0-33,0.1-49.5,0c-17.3-0.1-26.5-9.2-26.5-26.5c0-33.6,0.1-67.3,0.2-100.9
	c0-15.2,9.8-24.9,25.1-24.9c33.8,0,67.6,0,101.4,0.1c16.7,0,26,9.4,26.1,26c0,33.3,0,66.6-0.1,99.9c-0.1,17.3-9.3,26.4-26.7,26.5
	c-16.7,0.1-33.3,0-50,0C818.6,257.5,818.6,257.5,818.6,257.4z M764.4,181.1c0,0,0.1,0,0.1,0c0,9.5-0.1,19,0,28.5
	c0.1,16.8,9.7,26.3,26.5,26.3c18.7,0,37.3-0.1,56-0.1c17.1-0.1,26.6-9.6,26.7-26.6c0-19-0.1-38-0.2-57c-0.1-15.7-9.8-25.5-25.7-25.6
	c-19.5-0.1-39,0.1-58.5,0.3c-15.3,0.2-24.7,9.7-24.9,25.2C764.3,161.8,764.4,171.4,764.4,181.1z"/>
<path class="st0" d="M242.7,833.3c0,17,0,34,0,51c0,16-9.5,25.5-25.5,25.5c-33.8,0.1-67.7,0.1-101.5,0c-16,0-25.4-9.5-25.4-25.6
	c0-33.8,0-67.7,0-101.5c0-16,9.5-25.5,25.5-25.5c33.8,0,67.7,0,101.5,0c15.9,0,25.4,9.5,25.5,25.5
	C242.7,799.6,242.7,816.5,242.7,833.3z M221.1,833.6c-0.1,0-0.2,0-0.3,0c0-10.7,0.4-21.3-0.1-31.9c-0.6-13.2-10-22.4-23.3-22.6
	c-20.8-0.3-41.6-0.2-62.4,0.2c-13.3,0.3-23,10-23.2,23.3c-0.3,21-0.1,41.9,0.3,62.9c0.3,12.6,9.7,22.3,22.2,22.6
	c21.1,0.4,42.3,0.4,63.4-0.1c14.2-0.4,23.2-10.6,23.3-24.8C221.2,853.2,221.1,843.4,221.1,833.6z"/>
<path class="st0" d="M165.5,257.4c-16.2,0-32.3,0-48.5,0c-17.8,0-26.8-8.9-26.8-26.6c0-33,0-65.9,0-98.9c0-17.7,9-26.8,26.7-26.8
	c32.8,0,65.6,0,98.4,0c18.4,0,27.4,8.9,27.4,27.1c0,32.8,0,65.6,0,98.4c0,17.7-9.1,26.8-26.7,26.8
	C199.1,257.4,182.3,257.4,165.5,257.4z M165.7,126.6c0,0.1,0,0.2,0,0.4c-9.8,0-19.7-0.1-29.5,0c-14.6,0.3-24.2,9.6-24.4,24.2
	c-0.2,19.8-0.2,39.7,0.3,59.5c0.4,16.6,10,25.4,26.8,25.4c18.5,0,37-0.1,55.5-0.2c17.2-0.1,26.7-9.6,26.7-26.6
	c0-18.5-0.1-37-0.2-55.5c-0.1-17.8-9.3-27-27.3-27.1C184.3,126.5,175,126.6,165.7,126.6z"/>
<path d="M175.3,681.5c-0.1,4.8-4.3,8.8-9.1,8.6c-4.7-0.1-8.5-4-8.5-8.7c0-4.8,4.1-9,8.8-8.9C171.3,672.6,175.3,676.7,175.3,681.5z"
	/>
<path d="M175.2,615.9c0.1,4.8-3.9,8.9-8.8,8.9c-4.8,0-8.6-3.6-8.8-8.3c-0.2-4.9,3.6-9,8.5-9.2C171,607.2,175.1,611.1,175.2,615.9z"
	/>
<path d="M601.3,846.5c4.8-0.1,8.9,4,8.9,8.8c0,4.7-3.7,8.6-8.4,8.8c-4.9,0.2-9-3.6-9.2-8.5C592.6,850.7,596.5,846.6,601.3,846.5z"/>
<path d="M784.3,703c0.1,4.9-3.9,8.9-8.8,8.8c-4.7,0-8.6-3.8-8.7-8.4c-0.2-4.9,3.7-9,8.6-9.1C780.1,694.2,784.2,698.2,784.3,703z"/>
<path d="M262.2,289.9c0,4.8-4,8.9-8.8,8.9c-4.7,0-8.8-4.2-8.7-9c0.1-4.7,3.9-8.5,8.6-8.6C258.1,281.1,262.2,285.1,262.2,289.9z"/>
<path d="M523.2,855.5c-0.1,4.9-4.2,8.8-9.1,8.6c-4.7-0.2-8.4-4-8.4-8.7c0-4.9,4-8.9,8.8-8.9C519.4,846.5,523.3,850.7,523.2,855.5z"
	/>
<path d="M784.3,529c0.1,4.9-3.9,8.9-8.8,8.9c-4.7,0-8.6-3.7-8.8-8.4c-0.2-4.8,3.7-9,8.5-9.1C780.2,520.3,784.2,524.1,784.3,529z"/>
<path d="M697.3,181.5c-0.1,4.9-4.3,8.8-9.1,8.6c-4.9-0.2-8.7-4.4-8.4-9.2c0.2-4.6,4.2-8.4,8.9-8.3
	C693.5,172.6,697.4,176.6,697.3,181.5z"/>
<path d="M849.5,355c0.1,4.9-3.7,9-8.6,9c-4.9,0.1-9-3.9-9-8.7c0-4.6,3.8-8.6,8.5-8.8C845.3,346.3,849.4,350.1,849.5,355z"/>
<path d="M349.2,442c0.1,4.9-3.8,8.9-8.7,9c-4.9,0.1-8.9-3.9-8.9-8.8c0-4.7,3.7-8.5,8.4-8.7C345,433.3,349.1,437.2,349.2,442z"/>
<path d="M157.7,354.8c0.2-4.9,4.4-8.6,9.3-8.3c4.6,0.3,8.4,4.3,8.3,8.9c-0.1,4.8-4.2,8.7-9.1,8.6
	C161.3,363.9,157.4,359.6,157.7,354.8z"/>
<path d="M601.6,694.4c4.8,0.1,8.7,4.2,8.6,9.1c-0.1,4.7-3.9,8.4-8.7,8.5c-4.9,0-8.9-3.9-8.9-8.8
	C592.8,698.2,596.8,694.3,601.6,694.4z"/>
<path d="M697.3,703c0.1,4.9-3.9,8.9-8.8,8.9c-4.7,0-8.6-3.8-8.8-8.4c-0.2-4.9,3.7-9,8.5-9.1C693.1,694.2,697.2,698.2,697.3,703z"/>
<path d="M253.7,624.9c-4.9,0.1-8.9-3.7-9-8.6c-0.1-4.7,3.6-8.6,8.3-8.9c4.8-0.3,9.1,3.6,9.3,8.4
	C262.4,620.6,258.5,624.7,253.7,624.9z"/>
<path d="M601.3,172.5c4.9-0.1,8.9,3.8,8.9,8.7c0,4.7-3.7,8.6-8.3,8.9c-4.8,0.2-9-3.6-9.2-8.5C592.5,176.7,596.4,172.6,601.3,172.5z"
	/>
<path d="M588.5,355c0.1,4.9-3.8,8.9-8.7,9c-4.9,0.1-8.9-3.9-8.9-8.8c0-4.6,3.8-8.6,8.5-8.7C584.3,346.3,588.4,350.1,588.5,355z"/>
<path d="M601.6,281.2c4.9,0.1,8.8,4.1,8.6,9c-0.1,4.6-4.1,8.5-8.6,8.6c-4.8,0.1-8.9-4-8.9-8.9C592.7,285.1,596.7,281.2,601.6,281.2z
	"/>
<path d="M427.1,124.9c-4.8-0.2-8.6-4.4-8.4-9.3c0.2-4.9,4.5-8.6,9.3-8.3c4.7,0.3,8.3,4.3,8.1,9C436.1,121.1,431.9,125.1,427.1,124.9
	z"/>
<path d="M601.4,194.2c4.9-0.1,8.8,3.9,8.8,8.8c0,4.7-3.8,8.6-8.4,8.8c-4.8,0.2-8.9-3.7-9.1-8.6C592.6,198.3,596.5,194.3,601.4,194.2
	z"/>
<path d="M775.4,690.1c-4.9,0-8.8-4.1-8.7-9c0.1-4.8,4.3-8.8,9.1-8.6c4.5,0.2,8.4,4.2,8.5,8.8C784.3,686.2,780.3,690.2,775.4,690.1z"
	/>
<path d="M697.2,594.5c-0.1,4.8-3.8,8.6-8.6,8.6c-4.9,0.1-8.9-4-8.9-8.9c0.1-4.9,4.3-8.9,9.1-8.7
	C693.5,585.8,697.3,589.8,697.2,594.5z"/>
<path d="M666.6,194.2c4.8-0.1,8.9,4,8.9,8.8c0,4.6-3.9,8.7-8.4,8.9c-4.7,0.2-9-3.8-9.2-8.6C657.8,198.5,661.8,194.3,666.6,194.2z"/>
<path d="M414.4,681.4c0,4.9-4,8.8-8.9,8.8c-4.7-0.1-8.5-3.8-8.6-8.5c-0.1-4.9,3.8-9,8.6-9.1C410.3,672.4,414.4,676.5,414.4,681.4z"
	/>
<path d="M436.2,768.2c0.1,4.9-3.9,8.9-8.8,8.9c-4.7,0-8.6-3.7-8.7-8.4c-0.2-4.8,3.7-9.1,8.5-9.2C432,759.4,436.2,763.4,436.2,768.2z
	"/>
<path d="M601.3,690.1c-4.9-0.1-8.8-4.1-8.6-9c0.1-4.8,4.4-8.8,9.1-8.6c4.6,0.2,8.4,4.2,8.4,8.9C610.2,686.3,606.3,690.2,601.3,690.1
	z"/>
<path d="M862.4,885.8c-4.8-0.1-8.8-4.2-8.7-9c0.1-4.8,4.3-8.7,9.1-8.5c4.6,0.2,8.4,4.1,8.4,8.8C871.3,881.9,867.3,885.9,862.4,885.8
	z"/>
<path d="M688.5,868.3c4.8,0,8.8,4.1,8.8,8.9c-0.1,4.7-3.8,8.5-8.5,8.6c-4.9,0.1-9-3.8-9-8.7C679.7,872.3,683.6,868.3,688.5,868.3z"
	/>
<path d="M175.2,377.2c-0.1,4.8-4.4,8.8-9.1,8.6c-4.8-0.2-8.7-4.5-8.4-9.3c0.3-4.7,4.2-8.4,8.9-8.3
	C171.4,368.3,175.4,372.4,175.2,377.2z"/>
<path d="M862.5,346.5c4.8,0,8.6,3.6,8.8,8.4c0.2,4.9-3.8,9-8.7,9.1c-4.9,0-8.9-4.1-8.8-8.9C853.8,350.4,857.8,346.6,862.5,346.5z"/>
<path d="M666.8,172.5c4.9,0,8.8,4.1,8.7,9c-0.1,4.7-3.9,8.5-8.6,8.6c-4.9,0.1-9-3.9-9-8.7C657.8,176.6,662,172.5,666.8,172.5z"/>
<path d="M427.4,846.5c4.8,0,8.8,4,8.8,8.9c0,4.9-4.1,8.8-8.9,8.7c-4.7-0.1-8.5-3.9-8.5-8.6C418.6,850.7,422.6,846.5,427.4,846.5z"/>
<path d="M579.8,694.3c4.9,0,8.8,4.1,8.7,9c-0.1,4.7-3.9,8.5-8.6,8.6c-4.8,0.1-9-3.9-9-8.8C570.9,698.3,575,694.3,579.8,694.3z"/>
<path d="M657.9,681.4c0-4.8,4.1-8.9,8.9-8.9c4.8,0,8.8,4.2,8.7,9c-0.1,4.7-4,8.5-8.6,8.6C662.1,690.3,657.9,686.2,657.9,681.4z"/>
<path d="M523.2,181.5c-0.1,4.9-4.3,8.8-9.2,8.6c-4.7-0.2-8.4-4.2-8.3-8.9c0.1-4.9,4.2-8.8,9.2-8.6
	C519.6,172.8,523.3,176.7,523.2,181.5z"/>
<path d="M601.5,777.1c-4.9,0-8.8-4-8.7-8.9c0.1-4.8,4.3-8.9,9-8.7c4.6,0.2,8.4,4.1,8.5,8.7C610.3,773.1,606.3,777.1,601.5,777.1z"/>
<path d="M284.1,115.8c0.1,4.8-4,9-8.7,9.1c-4.7,0.1-8.9-4.1-8.9-8.9c0-4.6,3.8-8.6,8.4-8.8C279.7,107.1,283.9,111,284.1,115.8z"/>
<path d="M340.3,864.1c-4.9-0.1-8.8-4.2-8.6-9c0.1-4.6,4.1-8.5,8.6-8.6c4.8-0.1,8.9,4,8.9,8.8C349.2,860.2,345.2,864.2,340.3,864.1z"
	/>
<path d="M427.3,259.5c4.9-0.1,8.9,3.8,9,8.7c0,4.9-3.9,8.9-8.8,8.8c-4.6,0-8.5-3.8-8.7-8.5C418.5,263.7,422.4,259.6,427.3,259.5z"/>
<path d="M666.8,624.8c-4.7,0-8.7-3.8-8.8-8.4c-0.2-4.8,3.9-9,8.8-9c4.9,0,8.9,4,8.8,8.9C675.4,621.1,671.6,624.8,666.8,624.8z"/>
<path d="M492.6,259.5c5-0.1,8.9,3.8,8.9,8.7c0,4.9-4,8.9-8.9,8.8c-4.7-0.1-8.5-3.8-8.7-8.5C483.8,263.7,487.7,259.6,492.6,259.5z"/>
<path d="M231.6,298.8c-4.8,0-8.7-4.2-8.6-9.1c0.1-4.8,3.8-8.5,8.6-8.5c4.9-0.1,8.9,3.9,8.9,8.8C240.4,294.8,236.4,298.9,231.6,298.8
	z"/>
<path d="M514.1,298.8c-4.8-0.2-8.7-4.6-8.4-9.4c0.3-4.7,4.3-8.4,9.1-8.2c4.9,0.2,8.7,4.4,8.4,9.4C522.9,295.3,518.7,299,514.1,298.8
	z"/>
<path d="M688.5,281.3c4.9,0,8.8,4,8.7,8.9c-0.1,4.6-3.9,8.6-8.5,8.7c-4.8,0.1-8.9-3.9-9-8.7C679.7,285.3,683.6,281.3,688.5,281.3z"
	/>
<path d="M688.5,124.8c-4.8,0-8.8-4-8.8-8.9c0-4.9,4.1-8.8,8.9-8.7c4.7,0.1,8.5,3.9,8.6,8.6C697.3,120.7,693.3,124.8,688.5,124.8z"/>
<path d="M710.4,124.9c-4.8,0.1-8.9-4-8.9-8.8c0-4.9,4-8.9,8.9-8.8c4.7,0.1,8.5,3.8,8.6,8.5C719.1,120.7,715.3,124.8,710.4,124.9z"/>
<path d="M754,281.2c4.8,0.1,8.8,4.3,8.6,9.1c-0.2,4.6-4.2,8.5-8.7,8.5c-4.8,0-8.9-4.2-8.9-8.9C745,285.2,749.2,281.1,754,281.2z"/>
<path d="M784.2,290.1c-0.1,4.8-4.2,8.9-9,8.7c-4.8-0.2-8.7-4.4-8.5-9.2c0.2-4.7,4.1-8.4,8.7-8.4
	C780.3,281.2,784.3,285.2,784.2,290.1z"/>
<path d="M775.4,585.6c4.9,0,9,4.2,8.8,8.9c-0.1,4.7-4,8.5-8.7,8.6c-4.8,0.1-8.9-4.1-8.8-8.9C766.8,589.6,770.9,585.6,775.4,585.6z"
	/>
<path d="M571,203.1c-0.1-4.9,4-8.9,8.8-8.9c4.6,0,8.6,3.8,8.7,8.5c0.2,4.8-3.8,9.1-8.6,9.2C575.1,212,571,208,571,203.1z"/>
<path d="M274.9,303c4.9-0.1,9,3.7,9.1,8.6c0.1,4.8-4,8.9-8.8,8.9c-4.7,0-8.6-3.8-8.8-8.4C266.2,307.2,270,303.1,274.9,303z"/>
<path d="M610.2,594.2c0.1,5-3.9,8.9-8.8,8.9c-4.7-0.1-8.6-3.9-8.6-8.6c-0.1-4.9,4-9,8.8-8.9C606.2,585.6,610.1,589.5,610.2,594.2z"
	/>
<path d="M862.4,759.5c4.7-0.1,8.9,4,8.9,8.8c0,4.7-3.7,8.6-8.4,8.8c-4.8,0.2-9-3.7-9.2-8.5C853.6,763.8,857.6,759.6,862.4,759.5z"/>
<path d="M545,768.3c0,4.9-3.9,8.9-8.8,8.8c-4.7,0-8.5-3.8-8.7-8.5c-0.1-4.8,3.8-9.1,8.6-9.2C540.9,759.4,545,763.4,545,768.3z"/>
<path d="M284,224.9c-0.1,4.8-4.3,8.7-9.1,8.6c-4.9-0.1-8.7-4.3-8.5-9.2c0.2-4.7,4-8.3,8.8-8.3C280.2,216.1,284.1,220,284,224.9z"/>
<path d="M175.2,594.7c-0.1,4.8-4.3,8.7-9.2,8.5c-4.7-0.2-8.4-4.1-8.4-8.7c0-4.8,4.1-8.9,8.9-8.8
	C171.4,585.7,175.4,589.9,175.2,594.7z"/>
<path d="M362.2,233.6c-4.9,0-8.8-4.1-8.7-9c0.1-4.7,3.8-8.5,8.6-8.5c5-0.1,9,3.8,9,8.7C371.1,229.5,367,233.6,362.2,233.6z"/>
<path d="M427.3,885.8c-4.9-0.1-8.8-4.1-8.6-9c0.1-4.8,4.3-8.7,9.1-8.5c4.6,0.2,8.3,4.1,8.4,8.8C436.2,881.9,432.2,885.9,427.3,885.8
	z"/>
<path d="M327.5,768.4c0,4.9-4.1,8.8-8.9,8.7c-4.7-0.1-8.4-3.8-8.5-8.6c-0.1-4.9,3.8-9,8.7-9C323.4,759.4,327.5,763.6,327.5,768.4z"
	/>
<path d="M144.7,603.1c-5,0-8.8-3.9-8.7-8.9c0-4.7,3.8-8.6,8.5-8.7c4.8-0.1,8.9,3.8,9,8.7C153.5,599.2,149.6,603.1,144.7,603.1z"/>
<path d="M753.6,846.5c4.7-0.1,8.9,4.1,8.9,8.9c0,4.6-3.8,8.6-8.4,8.8c-4.8,0.2-9.1-3.8-9.2-8.6C744.8,850.8,748.9,846.6,753.6,846.5
	z"/>
<path d="M340.4,520.4c4.9-0.1,8.9,4,8.9,8.9c-0.1,4.7-3.9,8.5-8.6,8.6c-4.9,0.1-8.9-4-8.8-8.9C331.8,524.3,335.6,520.5,340.4,520.4z
	"/>
<path d="M349.2,355.1c0.1,4.9-3.9,9-8.8,8.9c-4.7,0-8.6-3.9-8.7-8.6c-0.1-4.9,3.8-8.9,8.8-8.9C345.2,346.6,349.1,350.4,349.2,355.1z
	"/>
<path d="M610.2,355.3c0,4.9-4.2,8.9-9,8.7c-4.7-0.2-8.5-4.1-8.4-8.8c0-4.9,4.1-8.8,9-8.7C606.5,346.7,610.3,350.5,610.2,355.3z"/>
<path d="M657.9,703.2c0-4.8,4.1-8.8,8.9-8.8c4.9,0,8.8,4.1,8.7,9c-0.1,4.7-3.9,8.5-8.6,8.6C662.1,712,657.9,707.9,657.9,703.2z"/>
<path d="M675.5,855.2c0.1,4.8-4,8.9-8.8,8.9c-4.6,0-8.6-3.9-8.8-8.5c-0.2-4.8,3.8-9,8.6-9.2C671.3,846.3,675.5,850.4,675.5,855.2z"
	/>
<path d="M679.7,376.7c0.1-4.9,4.3-8.7,9.1-8.5c4.7,0.2,8.4,4,8.4,8.8c0,4.8-4.1,8.9-8.9,8.8C683.5,385.7,679.6,381.5,679.7,376.7z"
	/>
<path d="M240.4,377.1c-0.1,4.8-4.2,8.8-9,8.7c-4.8-0.1-8.6-4.3-8.5-9.2c0.2-4.8,3.9-8.4,8.7-8.4
	C236.6,368.2,240.5,372.1,240.4,377.1z"/>
<path d="M492.8,690.1c-4.9,0-8.9-3.9-8.8-8.8c0-4.9,4.1-8.9,8.9-8.8c4.5,0.1,8.5,4,8.6,8.6C501.6,686,497.7,690.1,492.8,690.1z"/>
<path d="M166.3,433.5c4.9-0.1,9,4,8.9,8.8c-0.1,4.6-4,8.5-8.7,8.6c-4.9,0.1-9-3.9-8.9-8.9C157.7,437.3,161.5,433.5,166.3,433.5z"/>
<path d="M427.5,172.5c4.9,0,8.8,4,8.7,8.9c-0.1,4.8-4.2,8.8-9,8.6c-4.6-0.2-8.4-4.1-8.5-8.7C418.7,176.4,422.6,172.5,427.5,172.5z"
	/>
<path d="M840.7,476.9c4.9,0,8.9,3.9,8.9,8.8c0,4.7-3.8,8.6-8.5,8.7c-4.8,0.2-9.1-3.8-9.2-8.6C831.8,481.1,835.8,477,840.7,476.9z"/>
<path d="M327.4,268.2c0,4.9-4,8.9-8.9,8.8c-4.7-0.1-8.5-3.9-8.5-8.7c-0.1-5,3.9-8.9,8.9-8.8C323.6,259.6,327.4,263.4,327.4,268.2z"
	/>
<path d="M327.4,116.2c-0.1,4.9-4.3,8.8-9.1,8.6c-4.9-0.2-8.6-4.3-8.3-9.3c0.2-4.7,4.1-8.4,8.8-8.3
	C323.7,107.3,327.5,111.4,327.4,116.2z"/>
<path d="M697.2,855.2c0.1,4.7-3.7,8.7-8.4,8.9c-4.9,0.2-9-3.7-9.1-8.6c-0.1-4.6,3.9-8.8,8.3-8.9
	C692.9,846.4,697.1,850.4,697.2,855.2z"/>
<path d="M492.8,107.2c4.8,0.1,8.8,4.2,8.6,9.1c-0.1,4.6-4,8.5-8.6,8.6c-4.8,0.1-8.9-4-8.9-8.8C484,111.2,488,107.2,492.8,107.2z"/>
<path d="M514.3,107.3c4.7-0.1,8.6,3.7,8.8,8.4c0.2,4.9-3.7,9.1-8.6,9.2c-4.7,0.1-8.6-3.7-8.8-8.4
	C505.5,111.5,509.4,107.3,514.3,107.3z"/>
<path d="M666.6,777.1c-4.8-0.1-8.8-4.2-8.7-9c0.2-4.8,4.4-8.8,9.1-8.6c4.5,0.2,8.4,4.2,8.4,8.8C675.5,773.1,671.5,777.1,666.6,777.1
	z"/>
<path d="M775.7,433.5c4.7,0.1,8.5,4,8.5,8.7c0,4.8-4.2,8.9-9,8.8c-4.8-0.1-8.7-4.4-8.5-9.2C767,437.1,771,433.4,775.7,433.5z"/>
<path d="M262.2,681.5c-0.1,4.9-4.3,8.8-9.2,8.6c-4.7-0.2-8.4-4.2-8.3-8.9c0.1-4.7,4.1-8.6,8.7-8.6
	C258.2,672.5,262.3,676.7,262.2,681.5z"/>
<path d="M371,203.2c-0.1,4.8-4.3,8.9-9,8.7c-4.7-0.1-8.7-4.4-8.5-9.2c0.2-4.6,4.1-8.4,8.8-8.4C367.1,194.3,371.1,198.4,371,203.2z"
	/>
<path d="M101.2,451c-4.9,0-8.8-3.9-8.8-8.9c0-4.7,3.8-8.5,8.5-8.6c4.9-0.1,9,3.7,9.1,8.6C110,446.9,106.1,450.9,101.2,451z"/>
<path d="M579.7,298.8c-4.8,0-8.9-4.2-8.7-9.1c0.1-4.7,4.1-8.5,8.8-8.5c4.9,0,8.9,4.2,8.7,9C588.3,295,584.3,298.9,579.7,298.8z"/>
<path d="M262.2,377.1c-0.1,4.8-4.3,8.9-9.1,8.7c-4.6-0.2-8.5-4.2-8.4-8.9c0-4.7,3.8-8.6,8.6-8.7
	C258.2,368.2,262.3,372.2,262.2,377.1z"/>
<path d="M371,768.5c-0.1,4.8-4.2,8.8-9.1,8.7c-4.6-0.1-8.5-4-8.5-8.7c-0.1-4.8,4.1-9,8.8-9C367,759.5,371.1,763.7,371,768.5z"/>
<path d="M527.5,876.8c0.2-4.9,4.3-8.7,9.2-8.5c4.8,0.2,8.6,4.4,8.3,9.3c-0.3,4.7-4.2,8.4-8.9,8.3
	C531.2,885.8,527.3,881.7,527.5,876.8z"/>
<path d="M371,812.1c-0.1,4.8-4.2,8.6-9.2,8.4c-4.8-0.2-8.4-3.9-8.4-8.7c0-5,3.9-8.8,8.9-8.7C367.2,803.2,371.2,807.3,371,812.1z"/>
<path d="M327.4,616.3c-0.1,4.7-3.9,8.5-8.7,8.5c-4.9,0-8.8-4-8.7-8.9c0.1-4.8,4-8.5,8.7-8.5C323.6,607.4,327.5,611.4,327.4,616.3z"
	/>
<path d="M275.1,433.4c4.9-0.1,8.9,4,8.9,8.8c0,4.8-4.1,8.8-9,8.7c-4.7-0.1-8.5-3.8-8.6-8.5C266.3,437.5,270.2,433.5,275.1,433.4z"/>
<path d="M188,476.9c4.8-0.1,9,3.9,9,8.7c0,4.8-4,8.8-8.9,8.8c-4.7,0-8.5-3.8-8.7-8.4C179.2,481.1,183.1,477,188,476.9z"/>
<path d="M362.1,864.1c-4.8-0.1-8.8-4.2-8.6-9.1c0.1-4.6,4.1-8.5,8.7-8.6c4.8,0,8.9,4.1,8.9,8.9C371,860.2,366.9,864.2,362.1,864.1z"
	/>
<path d="M579.2,777.1c-4.9-0.3-8.6-4.6-8.2-9.5c0.4-4.8,4.8-8.6,9.5-8.1c4.6,0.4,8.2,4.6,8,9.2C588.3,773.6,584,777.4,579.2,777.1z"
	/>
<path d="M840.9,455.2c4.9,0.1,8.8,4.2,8.6,9c-0.1,4.7-4,8.5-8.6,8.5c-4.8,0.1-8.9-4-9-8.8C831.9,459.2,836.1,455.1,840.9,455.2z"/>
<path d="M414.5,855.2c0.1,4.9-3.9,8.9-8.7,9c-4.7,0-8.6-3.7-8.8-8.4c-0.2-4.9,3.6-9.1,8.4-9.3C410.2,846.3,414.4,850.3,414.5,855.2z
	"/>
<path d="M545,790.1c0,4.9-4,8.9-8.9,8.8c-4.7-0.1-8.5-3.8-8.6-8.5c-0.1-4.9,3.8-9,8.6-9C541,781.2,544.9,785.1,545,790.1z"/>
<path d="M327.4,790.2c-0.1,4.9-4,8.8-9,8.6c-4.7-0.1-8.4-3.9-8.5-8.6c0-5,3.8-8.9,8.7-8.9C323.6,781.3,327.5,785.3,327.4,790.2z"/>
<path d="M275,755.3c-4.9-0.1-8.8-4.1-8.6-9c0.2-4.7,4-8.4,8.7-8.5c4.8,0,8.9,4,8.9,8.8C284,751.5,280,755.4,275,755.3z"/>
<path d="M501.4,355.1c0,4.9-4,8.9-8.9,8.9c-4.7-0.1-8.5-3.9-8.6-8.6c-0.1-4.9,4-8.9,8.9-8.8C497.6,346.6,501.4,350.4,501.4,355.1z"
	/>
<path d="M840.6,868.3c4.9-0.1,8.9,3.8,8.9,8.7c0,4.7-3.7,8.6-8.4,8.8c-4.8,0.2-9.1-3.7-9.3-8.5C831.8,872.5,835.8,868.4,840.6,868.3
	z"/>
<path d="M849.5,790.1c0,4.9-4,8.9-8.9,8.8c-4.6-0.1-8.6-4-8.7-8.5c-0.1-4.8,3.9-8.9,8.7-9C845.6,781.2,849.5,785.2,849.5,790.1z"/>
<path d="M427.9,368.2c4.9,0.2,8.7,4.5,8.3,9.4c-0.4,4.7-4.5,8.4-9.1,8.1c-4.8-0.2-8.7-4.6-8.3-9.5
	C419.1,371.5,423.1,368,427.9,368.2z"/>
<path d="M414.5,181.2c0,4.9-3.9,8.9-8.8,8.9c-4.9,0-8.8-4-8.7-8.9c0.1-4.7,3.8-8.5,8.5-8.6C410.4,172.4,414.4,176.3,414.5,181.2z"/>
<path d="M862.9,520.4c4.7,0.2,8.4,4.1,8.4,8.9c-0.1,4.9-4.2,8.8-9.1,8.6c-4.7-0.2-8.5-4.2-8.4-8.9
	C853.8,524.2,858,520.2,862.9,520.4z"/>
<path d="M275.2,390c4.9,0,8.9,4,8.8,8.9c-0.1,4.8-4.3,8.8-9.1,8.6c-4.7-0.1-8.5-4-8.5-8.6C266.4,394,270.3,390,275.2,390z"/>
<path d="M697.2,202.9c0,4.6-3.9,8.8-8.4,8.9c-4.8,0.2-9-3.9-9.1-8.8c-0.1-4.8,4-9,8.9-8.8C693.3,194.4,697.2,198.3,697.2,202.9z"/>
<path d="M588.5,681.5c0,4.9-4.1,8.8-9,8.7c-4.7-0.1-8.5-4-8.5-8.6c-0.1-4.8,4-8.9,8.8-9C584.5,672.5,588.6,676.7,588.5,681.5z"/>
<path d="M101,346.5c4.9-0.1,8.9,3.9,8.9,8.8c0,4.9-4,8.8-8.9,8.8c-4.7,0-8.5-3.8-8.6-8.5C92.2,350.6,96.1,346.5,101,346.5z"/>
<path d="M371,137.7c0,4.8-4.1,8.8-8.9,8.8c-4.7,0-8.5-3.8-8.7-8.5c-0.2-4.9,3.7-8.9,8.6-9C367,129,371,132.9,371,137.7z"/>
<path d="M414.5,137.9c-0.1,5-4,8.7-9,8.6c-4.9-0.1-8.7-4.2-8.5-9.1c0.2-4.8,3.9-8.3,8.7-8.3C410.7,129.1,414.5,133,414.5,137.9z"/>
<path d="M688.7,516.1c-4.9,0.1-9-3.9-9-8.8c0-4.7,3.8-8.6,8.5-8.7c4.9-0.1,9,3.9,9,8.8C697.2,512.2,693.4,516,688.7,516.1z"/>
<path d="M840.8,450.9c-4.8,0-8.9-4.2-8.8-8.9c0.1-4.5,4.2-8.5,8.8-8.5c4.7,0,8.7,3.9,8.8,8.4C849.6,446.8,845.6,450.9,840.8,450.9z"
	/>
<path d="M436.2,746.4c0.1,4.9-3.7,8.9-8.6,8.9c-4.8,0.1-8.6-3.5-8.8-8.3c-0.2-4.9,3.5-9,8.4-9.2
	C432.1,737.7,436.1,741.5,436.2,746.4z"/>
<path d="M362.1,624.9c-4.8-0.1-8.6-3.8-8.6-8.6c-0.1-5,3.9-8.9,8.8-8.9c4.9,0.1,8.9,4.2,8.7,9.1
	C370.8,621.1,366.8,624.9,362.1,624.9z"/>
<path d="M275.2,607.4c4.9,0,8.9,4,8.8,8.9c-0.1,4.8-4.2,8.8-9.1,8.6c-4.7-0.1-8.4-3.9-8.5-8.6C266.4,611.3,270.3,607.4,275.2,607.4z
	"/>
<path d="M144.5,537.9c-4.7-0.1-8.5-3.9-8.5-8.7c0-5,4-8.9,8.9-8.8c4.7,0.1,8.5,4,8.5,8.7C153.4,534,149.4,538,144.5,537.9z"/>
<path d="M458,137.9c-0.1,4.9-4.2,8.8-9.1,8.6c-4.9-0.1-8.7-4.2-8.5-9.2c0.2-4.7,4-8.3,8.8-8.3C454.2,129.1,458.1,133,458,137.9z"/>
<path d="M197,311.6c0.1,4.8-4,8.9-8.8,8.9c-4.7,0-8.6-3.7-8.8-8.4c-0.2-4.9,3.6-9,8.5-9.1C192.8,302.9,196.9,306.7,197,311.6z"/>
<path d="M188.4,607.4c4.9,0.1,8.8,4.2,8.6,9.1c-0.2,4.8-4.4,8.7-9.2,8.4c-4.7-0.2-8.4-4.1-8.3-8.8
	C179.5,611.2,183.4,607.3,188.4,607.4z"/>
<path d="M327.4,485.5c0.1,4.9-3.7,8.9-8.6,9c-4.9,0.1-8.8-3.8-8.8-8.8c0-4.8,3.6-8.5,8.4-8.7C323.3,476.8,327.3,480.6,327.4,485.5z"
	/>
<path d="M762.5,877.1c0,4.9-4.1,8.8-9,8.6c-4.6-0.1-8.5-4-8.6-8.6c-0.1-4.8,3.9-8.9,8.8-8.9C758.6,868.2,762.5,872.2,762.5,877.1z"
	/>
<path d="M762.5,463.8c0.1,4.9-3.9,8.9-8.8,8.9c-4.8,0-8.9-4.1-8.8-8.9c0.1-4.5,4-8.5,8.6-8.6C758.4,455.1,762.5,459,762.5,463.8z"/>
<path d="M414.5,746.4c0.1,4.9-3.7,8.9-8.7,9c-4.8,0.1-8.6-3.5-8.8-8.3c-0.2-5,3.5-9.1,8.4-9.2C410.3,737.6,414.4,741.4,414.5,746.4z
	"/>
<path d="M449.3,803.1c4.9,0,8.9,4.1,8.7,9c-0.2,4.7-4.1,8.3-8.9,8.3c-4.9-0.1-8.6-3.7-8.6-8.5C440.4,807,444.3,803.1,449.3,803.1z"
	/>
<path d="M318.9,211.8c-4.7,0.1-8.6-3.6-8.8-8.4c-0.2-5,3.6-9.1,8.5-9.1c4.7-0.1,8.7,3.6,8.8,8.3
	C327.6,207.5,323.7,211.7,318.9,211.8z"/>
<path d="M610.2,877.1c0,4.9-4,8.8-8.9,8.7c-4.7-0.1-8.5-3.9-8.6-8.5c-0.1-4.9,3.8-8.9,8.6-9C606.2,868.2,610.2,872.2,610.2,877.1z"
	/>
<path d="M523.2,877.1c0,4.9-4,8.8-8.9,8.7c-4.7-0.1-8.5-3.8-8.6-8.5c-0.1-4.9,3.8-8.9,8.7-9C519.2,868.2,523.2,872.2,523.2,877.1z"
	/>
<path d="M849.5,812c-0.1,5-4,8.7-9.1,8.5c-4.7-0.1-8.5-4-8.5-8.6c0-4.8,4-8.8,8.9-8.8C845.7,803.1,849.6,807.1,849.5,812z"/>
<path d="M492.7,759.5c4.8,0,8.8,4.2,8.7,9.1c-0.1,4.7-4,8.5-8.7,8.5c-4.7,0-8.6-3.8-8.7-8.5C483.9,763.7,487.9,759.5,492.7,759.5z"
	/>
<path d="M797.2,711.9c-4.9-0.1-8.8-4-8.6-9c0.1-4.9,4.2-8.7,9.1-8.6c4.7,0.2,8.3,4,8.4,8.7C806,708,802.1,711.9,797.2,711.9z"/>
<path d="M675.5,268.4c-0.1,4.9-4.3,8.9-9.1,8.6c-4.6-0.2-8.5-4.3-8.4-8.9c0.1-4.8,4.3-8.8,9.2-8.6
	C671.9,259.7,675.6,263.6,675.5,268.4z"/>
<path d="M623.4,694.3c4.9,0.1,8.7,4.1,8.6,9c-0.1,4.7-3.9,8.4-8.6,8.5c-5,0-8.9-3.8-8.8-8.8C614.5,698.2,618.5,694.3,623.4,694.3z"
	/>
<path d="M753.7,385.8c-4.8,0-8.9-4.2-8.8-9c0.1-4.6,4.2-8.5,8.8-8.5c4.9,0,8.9,4.1,8.8,9C762.3,381.9,758.3,385.8,753.7,385.8z"/>
<path d="M862.1,385.7c-4.6-0.1-8.4-4.2-8.4-8.9c0.1-4.8,4.4-8.9,9.1-8.6c4.7,0.2,8.4,4.2,8.3,8.9C871.2,382,867.1,385.9,862.1,385.7
	z"/>
<path d="M362.2,694.3c4.8,0,8.9,4,8.9,8.9c0,4.8-4.2,8.8-9,8.7c-4.7-0.1-8.5-3.9-8.5-8.6C353.4,698.3,357.3,694.4,362.2,694.3z"/>
<path d="M349.2,703.4c-0.1,4.6-4.1,8.4-8.8,8.4c-4.9,0-8.9-4.2-8.7-9c0.2-4.7,4.2-8.5,8.8-8.4C345.3,694.4,349.3,698.5,349.2,703.4z
	"/>
<path d="M514.4,798.8c-4.8-0.1-8.6-3.8-8.6-8.6c-0.1-4.9,3.9-9,8.8-8.9c4.9,0.1,8.8,4.2,8.6,9.1C523,795.1,519.1,798.8,514.4,798.8z
	"/>
<path d="M371,355.1c0.1,4.9-4,9-8.9,8.9c-4.7-0.1-8.5-3.9-8.6-8.6c-0.1-5,3.9-8.9,8.8-8.9C367,346.6,370.9,350.4,371,355.1z"/>
<path d="M371,398.9c-0.1,4.8-4.2,8.7-9.1,8.6c-4.9-0.2-8.7-4.3-8.5-9.2c0.2-4.7,4.1-8.4,8.8-8.3C367.2,390,371.1,394.1,371,398.9z"
	/>
<path d="M688.7,672.6c4.5,0.1,8.5,4.2,8.5,8.7c0,4.8-4.1,8.9-9,8.8c-4.6-0.1-8.5-4.2-8.5-8.7C679.8,676.6,683.9,672.5,688.7,672.6z"
	/>
<path d="M666.8,824.9c4.9,0,8.8,4,8.8,8.9c-0.1,4.7-3.8,8.5-8.5,8.6c-4.9,0.1-9-3.7-9-8.6C657.8,828.9,661.9,824.9,666.8,824.9z"/>
<path d="M806,572.5c0.1,5-3.7,8.9-8.7,8.9c-4.7,0-8.5-3.7-8.7-8.4c-0.2-4.9,3.6-9,8.5-9.1C802,563.8,805.9,567.5,806,572.5z"/>
<path d="M362.2,320.5c-4.9,0-8.8-4-8.8-8.9c0-4.7,3.8-8.5,8.5-8.6c4.9-0.1,9,3.7,9.1,8.6C371.1,316.4,367,320.5,362.2,320.5z"/>
<path d="M666.6,303c4.9-0.1,9,3.8,9,8.7c0,4.7-3.7,8.6-8.4,8.8c-4.8,0.2-9.1-3.6-9.2-8.5C657.7,307.2,661.6,303.1,666.6,303z"/>
<path d="M775.1,472.7c-4.9-0.2-8.7-4.5-8.4-9.3c0.3-4.7,4.4-8.3,9.1-8.1c4.9,0.2,8.7,4.4,8.3,9.3
	C783.9,469.2,779.8,472.9,775.1,472.7z"/>
<path d="M753.8,842.3c-5,0-8.9-4-8.8-8.8c0.1-4.8,4.3-8.8,9.1-8.7c4.7,0.1,8.5,4,8.5,8.7C762.6,838.4,758.7,842.3,753.8,842.3z"/>
<path d="M840.6,907.5c-4.9-0.1-8.9-4.1-8.7-9c0.2-4.9,4.3-8.6,9.2-8.4c4.7,0.2,8.4,4,8.4,8.7C849.5,903.8,845.6,907.5,840.6,907.5z"
	/>
<path d="M840.2,537.8c-5-0.4-8.7-4.6-8.2-9.5c0.5-4.5,4.8-8.2,9.3-7.9c4.9,0.3,8.6,4.7,8.1,9.5C849,534.6,844.8,538.2,840.2,537.8z"
	/>
<path d="M666.2,668.4c-4.9-0.3-8.6-4.6-8.2-9.4c0.4-4.9,4.8-8.5,9.6-8c4.7,0.4,8.2,4.5,8,9.2C675.3,664.9,671,668.7,666.2,668.4z"/>
<path d="M371,659.5c0.1,4.9-3.9,8.8-8.8,8.8c-4.7,0-8.6-3.7-8.7-8.4c-0.2-4.9,3.7-9,8.6-9.1C366.8,650.8,371,654.8,371,659.5z"/>
<path d="M688.5,798.8c-4.7,0-8.6-3.8-8.8-8.5c-0.1-4.9,3.8-9,8.7-9c4.8,0,8.9,4.1,8.7,9C697.1,795.1,693.3,798.8,688.5,798.8z"/>
<path d="M840.7,624.8c-4.6,0.1-8.6-3.8-8.8-8.5c-0.2-4.7,4-9,8.8-9c4.7,0,8.6,3.8,8.8,8.5C849.7,620.6,845.6,624.7,840.7,624.8z"/>
<path d="M675.5,355.3c-0.1,4.9-4.2,8.8-9.1,8.6c-4.7-0.2-8.5-4.2-8.4-8.9c0-4.8,4.3-8.8,9.2-8.6
	C671.9,346.7,675.5,350.6,675.5,355.3z"/>
<path d="M327.4,442.2c0,4.9-3.9,8.8-8.8,8.8c-4.9,0-8.7-4-8.6-9c0.1-4.7,3.9-8.5,8.6-8.5C323.4,433.4,327.4,437.3,327.4,442.2z"/>
<path d="M175.2,703c0,4.7-3.8,8.6-8.5,8.7c-5,0.2-9-3.7-9-8.7c0-4.7,3.8-8.6,8.5-8.8C171.1,694.2,175.2,698.2,175.2,703z"/>
<path d="M501.5,137.7c0.1,4.9-3.8,8.9-8.7,8.9c-4.9,0-8.8-4-8.8-8.8c0-4.7,3.7-8.5,8.5-8.6C497.4,129,501.4,132.8,501.5,137.7z"/>
<path d="M840.8,716.1c4.9,0,8.8,4.1,8.7,9c-0.2,4.8-3.9,8.4-8.8,8.3c-4.8,0-8.6-3.7-8.7-8.5C831.8,720.2,835.9,716.1,840.8,716.1z"
	/>
<path d="M101.3,455.2c4.9,0.1,8.8,4.2,8.6,9c-0.2,4.8-4.3,8.7-9.2,8.5c-4.7-0.2-8.4-4-8.3-8.8C92.4,459.1,96.4,455.1,101.3,455.2z"
	/>
<path d="M753.9,716.1c4.9,0.1,8.7,4.1,8.6,9c-0.1,4.8-3.8,8.4-8.7,8.4c-5,0-8.9-3.8-8.9-8.7C744.9,720,749,716.1,753.9,716.1z"/>
<path d="M318.6,472.7c-4.9-0.1-8.7-4.1-8.6-9c0.1-4.7,3.9-8.4,8.6-8.5c4.9-0.1,8.9,3.8,8.8,8.8C327.4,468.8,323.4,472.8,318.6,472.7
	z"/>
<path d="M840.6,516.2c-4.8-0.1-8.8-4.4-8.6-9.1c0.2-4.9,4.4-8.6,9.3-8.4c4.7,0.2,8.4,4.1,8.3,8.8
	C849.5,512.4,845.4,516.3,840.6,516.2z"/>
<path d="M536.2,907.5c-5,0-8.8-3.9-8.7-8.8c0.1-5,4-8.7,9-8.5c4.8,0.1,8.4,3.8,8.5,8.6C545,903.7,541.2,907.5,536.2,907.5z"/>
<path d="M675.5,725c-0.1,5-4,8.6-9.1,8.5c-4.7-0.1-8.5-4-8.5-8.6c0-4.8,4-8.8,8.9-8.8C671.7,716.2,675.6,720.1,675.5,725z"/>
<path d="M275,733.5c-5-0.1-8.8-4-8.6-9c0.2-4.7,3.9-8.4,8.7-8.4c4.9,0,8.9,4,8.9,8.8C284,729.8,280,733.6,275,733.5z"/>
<path d="M501.4,290.2c-0.1,4.9-4.3,8.8-9.1,8.6c-4.6-0.2-8.3-4.3-8.3-9c0-4.8,4.3-8.8,9.1-8.5C497.8,281.5,501.5,285.5,501.4,290.2z
	"/>
<path d="M762.5,812c-0.1,5-4,8.7-9.1,8.5c-4.7-0.1-8.5-4-8.6-8.6c0-4.8,4-8.8,8.9-8.8C758.7,803.1,762.6,807.1,762.5,812z"/>
<path d="M710.4,494.4c-4.9,0-8.9-3.9-8.9-8.8c0-4.9,4-8.8,8.9-8.7c4.8,0.1,8.4,3.7,8.6,8.5C719.1,490.5,715.3,494.4,710.4,494.4z"/>
<path d="M892.9,789.9c0.1,4.8-3.5,8.7-8.2,8.9c-5,0.2-9.1-3.6-9.1-8.5c-0.1-4.9,3.9-8.9,8.8-8.9
	C889.1,781.3,892.8,785.1,892.9,789.9z"/>
<path d="M110,724.7c0.1,4.9-3.8,8.8-8.8,8.8c-4.8,0-8.6-3.5-8.8-8.3c-0.2-4.9,3.6-9,8.5-9.1C105.8,716,109.9,719.9,110,724.7z"/>
<path d="M775.3,820.5c-5-0.1-8.8-4.1-8.6-9c0.2-4.9,4.3-8.6,9.2-8.4c4.7,0.2,8.4,4,8.4,8.7C784.3,816.8,780.3,820.6,775.3,820.5z"/>
<path d="M284,290c0,4.8-4.2,8.9-8.9,8.8c-4.8-0.1-8.8-4.3-8.7-9.1c0.1-4.6,4-8.5,8.7-8.5C279.9,281.2,284,285.3,284,290z"/>
<path d="M523.2,159.7c-0.1,4.9-4.1,8.7-9,8.5c-4.9-0.1-8.7-4.2-8.5-9.1c0.2-4.7,4-8.3,8.8-8.3C519.5,150.9,523.3,154.8,523.2,159.7z
	"/>
<path d="M318.9,755.3c-5,0.1-8.9-3.7-8.9-8.7c0-4.8,3.6-8.6,8.3-8.8c5-0.2,9,3.5,9.1,8.4C327.6,751.2,323.8,755.2,318.9,755.3z"/>
<path d="M806,485.8c-0.1,5-4,8.8-9,8.6c-4.9-0.2-8.7-4.2-8.5-9.1c0.2-4.7,4-8.3,8.7-8.4C802.2,476.9,806,480.8,806,485.8z"/>
<path d="M545,159.6c0,5-3.9,8.8-8.9,8.7c-5-0.1-8.7-4-8.6-9c0.1-4.8,3.8-8.3,8.6-8.4C541.1,150.8,545,154.6,545,159.6z"/>
<path d="M458,376.9c0,4.8-4,8.9-8.8,8.9c-4.8,0-8.8-4.2-8.7-9c0.1-4.7,3.9-8.5,8.5-8.6C453.9,368.1,458,372,458,376.9z"/>
<path d="M675.5,159.5c0,5-3.8,8.8-8.8,8.8c-4.9,0-8.9-4-8.8-8.9c0.1-4.6,3.9-8.4,8.6-8.5C671.6,150.8,675.5,154.5,675.5,159.5z"/>
<path d="M492.8,824.9c4.9,0,8.8,4,8.7,8.9c-0.1,4.9-4.1,8.7-9.1,8.5c-4.8-0.1-8.4-3.9-8.5-8.6C483.9,828.8,487.9,824.8,492.8,824.9z
	"/>
<path d="M275,172.5c4.8-0.1,9,4,9,8.7c0,4.8-4.1,8.9-8.9,8.8c-4.7,0-8.5-3.8-8.7-8.5C266.2,176.7,270.2,172.6,275,172.5z"/>
<path d="M610.2,311.6c0,4.9-3.8,8.9-8.8,8.9c-4.9,0-8.8-3.9-8.7-8.9c0.1-4.7,3.8-8.5,8.5-8.6C606.2,302.9,610.2,306.7,610.2,311.6z"
	/>
<path d="M458,790c0,4.8-4,8.8-8.9,8.8c-4.7-0.1-8.5-3.8-8.7-8.5c-0.1-4.9,3.8-9,8.6-9C453.9,781.2,458,785.2,458,790z"/>
<path d="M631.9,181.3c0,5-4,8.8-8.9,8.7c-4.8-0.1-8.7-4.2-8.6-9.1c0.1-4.7,3.9-8.4,8.7-8.5C628,172.5,632,176.4,631.9,181.3z"/>
<path d="M710.5,172.6c4.9,0.1,8.7,4.2,8.4,9.1c-0.2,4.8-4,8.4-8.7,8.4c-4.9,0-8.8-4-8.7-8.9C701.6,176.2,705.5,172.4,710.5,172.6z"
	/>
<path d="M523.2,833.7c0,4.9-4,8.7-9,8.6c-4.8-0.1-8.5-3.8-8.6-8.5c-0.1-5,3.8-8.9,8.7-8.9C519.4,824.8,523.3,828.7,523.2,833.7z"/>
<path d="M579.2,277c-4.6-0.3-8.3-4.4-8.2-9c0.1-4.8,4.4-8.7,9.3-8.4c4.8,0.3,8.4,4.2,8.2,9C588.3,273.3,583.9,277.3,579.2,277z"/>
<path d="M827.7,463.9c0,4.9-3.9,8.9-8.8,8.8c-4.8-0.1-8.8-4.2-8.6-9c0.1-4.7,3.9-8.4,8.6-8.5C823.8,455.1,827.7,459,827.7,463.9z"/>
<path d="M492.8,711.8c-4.7,0-8.7-3.7-8.8-8.4c-0.2-4.9,3.7-9,8.7-9.1c4.9,0,8.9,4,8.8,8.9C501.4,708,497.6,711.7,492.8,711.8z"/>
<path d="M144.6,407.5c-4.9,0-8.7-3.9-8.7-8.9c0.1-4.8,3.8-8.5,8.5-8.6c4.9-0.1,8.9,3.8,8.9,8.7C153.5,403.6,149.6,407.5,144.6,407.5
	z"/>
<path d="M558,885.9c-4.8,0-8.8-4.1-8.8-8.9c0.1-4.9,4.1-8.8,9-8.6c4.7,0.1,8.4,3.9,8.5,8.7C566.8,881.8,562.8,885.9,558,885.9z"/>
<path d="M275.2,694.3c4.9,0,8.8,4.1,8.8,8.9c-0.1,4.8-4.2,8.7-9.1,8.6c-4.7-0.1-8.4-3.9-8.5-8.7
	C266.4,698.2,270.3,694.3,275.2,694.3z"/>
<path d="M710.4,194.2c4.9,0.1,8.7,4.1,8.5,9.1c-0.2,4.7-4,8.5-8.6,8.5c-4.8,0-8.8-4.1-8.8-8.9C701.5,198.1,705.5,194.2,710.4,194.2z
	"/>
<path d="M449.1,868.3c4.8-0.1,8.9,3.9,8.9,8.8c0,4.8-4.1,8.9-8.9,8.8c-4.7-0.1-8.5-3.9-8.6-8.5C440.3,872.5,444.3,868.3,449.1,868.3
	z"/>
<path d="M579.9,824.9c4.7,0.1,8.5,3.9,8.6,8.6c0.1,4.9-4,8.9-8.9,8.8c-4.8-0.1-8.5-3.9-8.6-8.6C570.9,828.8,575,824.8,579.9,824.9z"
	/>
<path d="M405.1,233.5c-4.9-0.3-8.5-4.5-8.1-9.5c0.4-4.7,4.3-8.2,9-8c4.9,0.2,8.7,4.3,8.4,9.2C414.2,230.2,410.1,233.8,405.1,233.5z"
	/>
<path d="M545,224.7c0,4.9-3.9,8.9-8.8,8.8c-4.9,0-8.8-4-8.7-8.9c0.1-4.7,3.8-8.4,8.6-8.5C541,215.9,545,219.8,545,224.7z"/>
<path d="M610.3,833.6c0,4.9-4,8.8-8.9,8.7c-4.7-0.1-8.5-3.8-8.6-8.5c-0.1-4.9,3.7-8.9,8.7-8.9C606.4,824.8,610.3,828.7,610.3,833.6z
	"/>
<path d="M623.3,407.5c-4.9,0-8.9-3.9-8.9-8.8c0-4.9,4-8.8,8.9-8.7c4.8,0.1,8.5,3.8,8.6,8.5C632.1,403.5,628.3,407.5,623.3,407.5z"/>
<path d="M579.6,233.5c-4.9-0.1-8.8-4.2-8.6-9c0.2-4.9,4.2-8.6,9.2-8.4c4.7,0.2,8.4,4.1,8.3,8.8C588.5,229.7,584.5,233.6,579.6,233.5
	z"/>
<path d="M371,246.7c-0.1,4.8-4.2,8.7-9.1,8.6c-4.9-0.1-8.7-4.2-8.5-9.1c0.2-4.8,3.9-8.3,8.8-8.3C367.2,237.8,371.1,241.8,371,246.7z
	"/>
<path d="M501.4,855.6c-0.1,4.6-4.1,8.5-8.7,8.5c-4.8,0-8.8-4.1-8.7-9c0-4.8,4.3-8.8,9.2-8.5C497.8,846.8,501.5,850.9,501.4,855.6z"
	/>
<path d="M492.9,255.2c-4.9,0.1-8.9-3.8-8.9-8.7c0-4.8,3.6-8.5,8.4-8.7c5-0.2,9,3.5,9.1,8.4C501.6,251.2,497.8,255.2,492.9,255.2z"/>
<path d="M710.1,563.9c4.9-0.1,8.8,3.7,8.9,8.7c0,4.8-3.5,8.6-8.3,8.8c-4.9,0.2-9-3.5-9.2-8.4C701.4,568,705.2,564,710.1,563.9z"/>
<path d="M688.8,303c4.9,0.1,8.7,4.2,8.5,9.1c-0.2,4.7-4,8.4-8.8,8.4c-4.9,0-8.8-4-8.7-8.9C679.8,306.8,683.8,302.9,688.8,303z"/>
<path d="M697.3,833.5c0.1,4.9-3.9,8.8-8.8,8.8c-4.8,0-8.6-3.6-8.7-8.4c-0.2-4.9,3.6-9,8.5-9.1C693.2,824.7,697.2,828.5,697.3,833.5z
	"/>
<path d="M166.6,411.8c4.9,0.1,8.8,4.1,8.6,9c-0.2,4.8-4.4,8.6-9.2,8.4c-4.7-0.2-8.4-4-8.4-8.8C157.7,415.6,161.7,411.7,166.6,411.8z
	"/>
<path d="M362.2,690.2c-4.9,0-8.8-4-8.8-8.9c0.1-4.6,4-8.6,8.5-8.7c4.7-0.1,9,3.9,9,8.7C371.1,686,367,690.2,362.2,690.2z"/>
<path d="M166.2,629.1c4.9-0.1,9,3.8,9,8.6c0.1,4.8-3.9,8.8-8.8,8.8c-4.8,0-8.6-3.6-8.7-8.3C157.5,633.3,161.3,629.2,166.2,629.1z"/>
<path d="M275,690.1c-4.8-0.1-8.8-4.2-8.6-9.1c0.2-4.6,4.1-8.5,8.7-8.5c4.8,0,8.9,4.1,8.9,8.9C284,686.2,279.8,690.2,275,690.1z"/>
<path d="M362.3,781.3c4.9,0.1,8.8,4.2,8.7,9c-0.1,4.8-4.4,8.7-9.2,8.5c-4.7-0.2-8.4-4.1-8.4-8.8
	C353.5,785.2,357.5,781.2,362.3,781.3z"/>
<path d="M340.4,411.8c5,0,8.9,3.8,8.9,8.7c0,4.9-4.1,8.8-8.9,8.7c-4.7-0.1-8.5-3.8-8.6-8.5C331.6,415.8,335.5,411.8,340.4,411.8z"/>
<path d="M231.7,672.5c4.8,0,8.8,4.2,8.7,9.1c-0.1,4.8-4,8.5-8.7,8.5c-5,0-8.8-4-8.7-9C223.2,676.4,227.1,672.5,231.7,672.5z"/>
<path d="M197,594.6c-0.1,4.8-4.4,8.7-9.2,8.5c-4.7-0.2-8.4-4.1-8.4-8.8c0-4.9,4-8.9,8.9-8.8C193.1,585.7,197.1,589.8,197,594.6z"/>
<path d="M840.8,824.8c4.8,0,8.8,4,8.7,8.9c-0.1,4.7-3.9,8.5-8.6,8.5c-4.9,0.1-9-3.8-9-8.6C831.9,828.9,836,824.8,840.8,824.8z"/>
<path d="M805.9,768.4c0,5-3.9,8.8-8.9,8.7c-4.7-0.1-8.4-3.9-8.5-8.6c-0.1-4.8,3.9-8.9,8.7-9C802,759.4,806,763.5,805.9,768.4z"/>
<path d="M840.6,603.2c-4.8-0.1-8.9-4.3-8.7-9c0.2-4.8,4.4-8.7,9.2-8.5c4.7,0.2,8.4,4.1,8.4,8.8C849.6,599.2,845.5,603.2,840.6,603.2
	z"/>
<path d="M666.7,255.2c-4.9,0-8.9-4.1-8.8-8.9c0.1-4.8,4.2-8.6,9.2-8.5c4.8,0.2,8.4,3.8,8.4,8.6C675.5,251.4,671.6,255.3,666.7,255.2
	z"/>
<path d="M449.3,303c4.9,0.1,8.8,4,8.7,8.9c-0.1,4.8-4.2,8.7-9.1,8.5c-4.7-0.2-8.4-4-8.4-8.7C440.4,306.9,444.4,303,449.3,303z"/>
<path d="M666.5,737.9c4.9-0.1,8.9,3.8,9,8.7c0,4.7-3.7,8.6-8.3,8.8c-4.9,0.2-9.1-3.5-9.2-8.4C657.8,742.2,661.7,738,666.5,737.9z"/>
<path d="M666.8,324.8c5,0,8.9,3.9,8.8,8.8c-0.1,4.7-3.8,8.5-8.6,8.6c-4.8,0.1-9-3.9-9.1-8.6C657.8,328.8,661.8,324.8,666.8,324.8z"
	/>
<path d="M601.5,755.3c-4.9,0-8.8-4-8.8-8.9c0.1-4.9,4.1-8.8,9-8.6c4.7,0.1,8.4,3.9,8.5,8.6C610.3,751.3,606.4,755.3,601.5,755.3z"/>
<path d="M284,659.9c-0.1,4.9-4.3,8.7-9.3,8.5c-4.7-0.2-8.4-4.2-8.3-8.9c0.1-4.9,4.3-8.8,9.2-8.5C280.3,651.2,284.1,655.3,284,659.9z
	"/>
<path d="M841,629.1c4.9,0.1,8.7,4.2,8.5,9.1c-0.2,4.8-3.9,8.3-8.8,8.3c-5,0-8.9-3.9-8.8-8.8C832,633,836.2,629,841,629.1z"/>
<path d="M458,746.8c-0.1,4.9-4.1,8.7-9.1,8.5c-4.7-0.1-8.4-4-8.5-8.7c0-4.9,3.9-8.8,8.8-8.8C454.1,737.9,458.1,742,458,746.8z"/>
<path d="M849.5,333.6c-0.1,4.9-4.1,8.7-9,8.6c-4.8-0.1-8.8-4.3-8.6-9.1c0.2-4.7,4-8.3,8.8-8.3C845.8,324.8,849.6,328.7,849.5,333.6z
	"/>
<path d="M710.1,781.3c4.9-0.1,8.8,3.8,8.9,8.7c0,4.8-3.6,8.6-8.3,8.8c-4.9,0.2-9-3.6-9.1-8.5C701.4,785.5,705.3,781.4,710.1,781.3z"
	/>
<path d="M179.4,441.8c0.2-4.7,4.1-8.4,8.9-8.3c4.9,0.1,8.8,4.2,8.6,9.1c-0.2,4.9-4.5,8.7-9.4,8.3
	C182.8,450.6,179.2,446.5,179.4,441.8z"/>
<path d="M623.4,759.5c4.8,0.1,8.7,4.2,8.6,9.1c-0.1,5-4.2,8.8-9.1,8.5c-4.7-0.2-8.4-4.1-8.3-8.8
	C614.5,763.5,618.7,759.4,623.4,759.5z"/>
<path d="M405.5,107.3c4.8-0.1,9,4.1,9,8.9c0,4.6-4,8.7-8.6,8.8c-4.7,0.1-8.9-4.1-8.9-8.9C397,111.3,400.9,107.3,405.5,107.3z"/>
<path d="M631.9,116.3c-0.1,4.9-4.2,8.8-9,8.6c-4.8-0.2-8.6-4.4-8.4-9.3c0.2-4.7,4.2-8.4,8.8-8.3
	C628.2,107.3,632.1,111.3,631.9,116.3z"/>
<path d="M775.4,624.8c-4.6,0-8.6-3.9-8.7-8.5c-0.1-4.9,4-9,8.8-8.9c4.7,0.1,8.5,3.9,8.7,8.6C784.4,620.9,780.4,624.8,775.4,624.8z"
	/>
<path d="M436.2,790.1c0,4.7-3.8,8.6-8.5,8.7c-4.9,0.1-9-3.8-9-8.7c0-4.7,3.8-8.6,8.5-8.8C432.1,781.2,436.2,785.1,436.2,790.1z"/>
<path d="M305.7,115.8c0.1,4.8-3.9,9-8.6,9.1c-4.8,0.1-8.8-4-8.8-8.9c0-4.7,3.6-8.6,8.4-8.8C301.4,107,305.6,111,305.7,115.8z"/>
<path d="M405.3,777.1c-4.5-0.1-8.4-4.2-8.3-8.9c0.1-4.8,4.4-8.9,9.1-8.7c4.6,0.3,8.4,4.4,8.4,8.9
	C414.4,773.3,410.2,777.2,405.3,777.1z"/>
<path d="M340.6,129.1c5,0.1,8.8,4.1,8.6,9c-0.2,4.9-4.3,8.6-9.2,8.4c-4.7-0.2-8.4-4-8.3-8.8C331.7,132.9,335.7,129,340.6,129.1z"/>
<path d="M383.9,798.9c-4.9,0-8.8-4.1-8.7-9c0.1-4.7,3.9-8.5,8.6-8.6c4.9-0.1,8.9,3.8,8.9,8.7C392.8,794.9,388.8,798.9,383.9,798.9z"
	/>
<path d="M349.2,811.8c0,4.9-3.9,8.7-8.9,8.6c-4.8-0.1-8.5-3.7-8.6-8.4c-0.1-4.9,3.7-8.9,8.7-8.9C345.3,803.1,349.2,807,349.2,811.8z
	"/>
<path d="M545,137.9c-0.1,4.9-4.1,8.7-9,8.6c-4.9-0.1-8.7-4.2-8.5-9.1c0.2-4.7,4-8.3,8.8-8.3C541.2,129.1,545.1,133,545,137.9z"/>
<path d="M566.7,138c-0.1,4.9-4.1,8.7-9.1,8.5c-4.7-0.2-8.4-4-8.4-8.7c0-5,3.8-8.8,8.8-8.8C563,129.1,566.8,133,566.7,138z"/>
<path d="M884.5,820.5c-5,0.1-8.9-3.6-9-8.6c0-4.9,3.8-8.8,8.8-8.8c4.8,0,8.5,3.6,8.7,8.4C893.2,816.5,889.5,820.4,884.5,820.5z"/>
<path d="M479.7,855.3c0,4.8-4,8.9-8.8,8.9c-4.6,0-8.5-3.9-8.7-8.5c-0.2-4.8,3.8-9,8.6-9.1C475.5,846.4,479.7,850.5,479.7,855.3z"/>
<path d="M296.9,868.3c4.9,0,8.9,4.1,8.7,9c-0.1,4.8-3.9,8.5-8.7,8.5c-4.7,0-8.6-3.8-8.7-8.5C288.1,872.3,292,868.3,296.9,868.3z"/>
<path d="M479.7,877c0.1,4.9-4,8.9-8.8,8.9c-4.6,0-8.6-3.9-8.7-8.5c-0.2-4.9,3.7-9,8.6-9.1C475.7,868.2,479.7,872.1,479.7,877z"/>
<path d="M340.6,890.1c4.9,0.1,8.8,4.2,8.6,9.1c-0.2,4.7-4.1,8.3-8.9,8.2c-4.8-0.1-8.5-3.8-8.6-8.6
	C331.7,893.9,335.6,890,340.6,890.1z"/>
<path d="M405.8,890.1c5,0,8.8,4,8.7,9c-0.2,4.8-3.9,8.3-8.8,8.3c-4.8,0-8.6-3.7-8.6-8.5C396.9,894,400.8,890.1,405.8,890.1z"/>
<path d="M871.2,899c-0.1,5-4.1,8.7-9.1,8.5c-4.7-0.2-8.4-4.1-8.3-8.9c0-4.8,4.2-8.6,9.2-8.5C867.6,890.3,871.3,894.2,871.2,899z"/>
<path d="M697.3,159.5c0,4.9-3.9,8.8-8.8,8.8c-4.9,0-8.8-4-8.7-8.9c0.1-4.7,3.8-8.4,8.5-8.5C693.3,150.8,697.2,154.6,697.3,159.5z"/>
<path d="M536.4,172.5c4.7,0.1,8.5,4,8.5,8.7c0,4.9-4.1,9-8.9,8.8c-4.8-0.1-8.7-4.4-8.5-9.3C527.7,176.1,531.7,172.4,536.4,172.5z"/>
<path d="M653.8,181.1c0.1,4.9-3.8,8.9-8.7,9c-4.9,0-8.8-3.9-8.8-8.9c0-4.7,3.7-8.5,8.5-8.7C649.6,172.3,653.7,176.3,653.8,181.1z"/>
<path d="M275.2,194.2c4.8,0.1,8.9,4.2,8.7,9c-0.1,4.8-4.4,8.8-9.1,8.7c-4.6-0.2-8.4-4.2-8.5-8.8
	C266.4,198.3,270.4,194.2,275.2,194.2z"/>
<path d="M427.4,233.4c-5,0-8.8-4-8.7-9c0.1-4.7,4-8.4,8.8-8.4c4.8,0,8.6,3.7,8.7,8.5C436.3,229.5,432.4,233.4,427.4,233.4z"/>
<path d="M349.2,333.3c0.1,4.9-3.8,8.9-8.7,8.9c-4.9,0-8.8-3.8-8.8-8.8c0-4.7,3.7-8.5,8.4-8.6C345.1,324.7,349.1,328.4,349.2,333.3z"
	/>
<path d="M275.9,237.9c4.7,0.3,8.3,4.3,8.1,8.9c-0.2,5-4.6,8.9-9.7,8.4c-4.6-0.4-8.1-4.5-7.8-9.2
	C266.7,241.1,270.8,237.5,275.9,237.9z"/>
<path d="M449.4,237.9c4.8,0.1,8.6,3.9,8.6,8.6c0,4.9-4,8.9-9,8.8c-5-0.1-8.8-4.1-8.5-9.1C440.7,241.3,444.5,237.8,449.4,237.9z"/>
<path d="M806,290c0,4.8-4.2,9-8.9,8.9c-4.5-0.1-8.5-4.2-8.5-8.8c0-4.6,3.8-8.6,8.4-8.8C801.9,281.1,805.9,285,806,290z"/>
<path d="M262.2,311.6c0.1,4.9-3.8,8.9-8.7,8.9c-4.9,0-8.9-3.9-8.9-8.8c0-4.6,3.8-8.5,8.5-8.7C258,302.9,262.1,306.7,262.2,311.6z"/>
<path d="M327.4,312c-0.1,5-4.2,8.7-9.2,8.5c-4.8-0.2-8.3-4.1-8.2-8.9c0.1-5,4.2-8.8,9.1-8.5C323.9,303.3,327.5,307.2,327.4,312z"/>
<path d="M545,311.9c-0.1,4.9-4.2,8.7-9,8.5c-4.9-0.2-8.7-4.3-8.4-9.2c0.2-4.7,4.1-8.3,8.8-8.3C541.3,303.1,545.1,307,545,311.9z"/>
<path d="M710.2,320.5c-4.9-0.1-8.8-4-8.7-9c0.1-4.9,4.1-8.7,9.1-8.6c4.8,0.2,8.4,3.9,8.4,8.7C719,316.7,715.1,320.6,710.2,320.5z"/>
<path d="M166.6,324.8c4.8,0.1,8.6,3.8,8.7,8.5c0,4.9-4,8.9-8.9,8.8c-5-0.1-8.8-4.1-8.6-9.1C157.9,328.4,161.7,324.8,166.6,324.8z"/>
<path d="M501.5,333.3c0.1,5-3.8,8.9-8.8,8.9c-4.7,0-8.6-3.8-8.7-8.5c-0.1-5,3.7-8.9,8.8-8.9C497.6,324.9,501.4,328.6,501.5,333.3z"
	/>
<path d="M775.9,324.8c4.7,0.2,8.4,4.1,8.3,8.8c-0.1,5-4.2,8.7-9.1,8.5c-4.7-0.2-8.4-4.2-8.3-8.9
	C766.8,328.4,770.9,324.6,775.9,324.8z"/>
<path d="M101.4,368.2c4.8,0.1,8.8,4.3,8.6,9.1c-0.2,4.8-4.5,8.7-9.2,8.5c-4.7-0.3-8.3-4.2-8.3-8.9
	C92.4,372.1,96.5,368.1,101.4,368.2z"/>
<path d="M188.3,385.8c-4.8,0.1-8.9-3.9-8.9-8.8c0-4.6,3.7-8.6,8.4-8.8c4.8-0.2,9.1,3.8,9.2,8.5C197.1,381.5,193.1,385.7,188.3,385.8
	z"/>
<path d="M327.4,377.1c-0.1,4.7-4,8.6-8.6,8.7c-4.9,0.1-8.9-4-8.8-8.9c0.1-4.8,3.8-8.5,8.5-8.6C323.5,368.2,327.4,372.1,327.4,377.1z
	"/>
<path d="M666.6,390c4.9-0.1,8.9,3.9,8.9,8.7c0,4.7-3.8,8.5-8.4,8.7c-4.8,0.2-9-3.7-9.2-8.5C657.8,394.1,661.7,390.1,666.6,390z"/>
<path d="M710.1,390c4.8-0.1,8.6,3.5,8.8,8.3c0.2,5.1-3.5,9-8.5,9.1c-5,0.1-8.9-3.9-8.8-8.8C701.6,393.8,705.3,390,710.1,390z"/>
<path d="M806,398.8c0,5-4,8.8-8.9,8.7c-4.9-0.1-8.7-4.2-8.5-9.1c0.2-4.7,3.9-8.4,8.7-8.4C802.2,390,806,393.8,806,398.8z"/>
<path d="M392.7,420.3c0.1,4.9-3.8,8.9-8.7,8.9c-4.9,0-8.8-3.9-8.8-8.8c0-4.8,3.7-8.5,8.4-8.6C388.7,411.6,392.6,415.3,392.7,420.3z"
	/>
<path d="M623,429.2c-5-0.1-8.7-4.1-8.6-9.1c0.2-4.9,4.2-8.6,9.2-8.4c4.8,0.2,8.3,4,8.3,8.8C631.9,425.5,628,429.3,623,429.2z"/>
<path d="M636.3,419.8c0.3-4.9,4.6-8.5,9.6-8c4.7,0.4,8.2,4.5,7.8,9.3c-0.3,4.7-4.3,8.3-9.1,8.1C639.7,428.9,635.9,424.7,636.3,419.8
	z"/>
<path d="M688.6,411.8c4.8,0,8.6,3.8,8.6,8.5c0.1,4.9-3.9,8.9-8.8,8.9c-4.9-0.1-8.8-4.2-8.7-9C679.9,415.4,683.8,411.7,688.6,411.8z"
	/>
<path d="M740.7,420.4c0,4.8-3.7,8.6-8.4,8.8c-5,0.2-9-3.7-9-8.7c0-5,3.9-8.8,8.9-8.7C737,411.9,740.7,415.6,740.7,420.4z"/>
<path d="M784.2,420.5c0,5-4.1,8.8-9,8.7c-4.7-0.2-8.5-4.1-8.5-8.8c0-4.9,4.1-8.8,9.1-8.6C780.5,411.9,784.3,415.8,784.2,420.5z"/>
<path d="M631.9,442.6c-0.2,4.9-4.3,8.6-9.2,8.3c-4.9-0.3-8.5-4.5-8.2-9.4c0.3-4.7,4.2-8.2,9-8.1
	C628.4,433.6,632.2,437.7,631.9,442.6z"/>
<path d="M797.8,433.4c4.9,0.3,8.5,4.6,8,9.6c-0.4,4.8-4.5,8.2-9.2,7.9c-4.9-0.4-8.5-4.6-8.1-9.6C789,436.7,793.1,433.1,797.8,433.4z
	"/>
<path d="M340.3,455.2c4.9,0,8.9,4,8.9,8.8c0,4.5-4,8.6-8.5,8.7c-4.8,0-8.9-4-8.9-8.8C331.7,459.3,335.7,455.2,340.3,455.2z"/>
<path d="M109.9,485.7c0,4.7-3.9,8.6-8.5,8.7c-5,0.1-8.9-3.7-8.9-8.8c0-4.6,3.8-8.6,8.5-8.7C105.7,476.8,109.9,480.8,109.9,485.7z"/>
<path d="M675.5,507.4c0,4.9-4,8.8-8.9,8.7c-4.6-0.1-8.6-4-8.7-8.5c-0.1-4.8,3.8-8.9,8.7-9C671.5,498.6,675.5,502.6,675.5,507.4z"/>
<path d="M753.9,498.7c4.7,0.1,8.5,3.9,8.6,8.6c0,4.9-4,8.9-8.9,8.8c-4.6-0.1-8.6-4-8.6-8.6C744.9,502.6,749,498.6,753.9,498.7z"/>
<path d="M131.7,724.9c0,5-3.9,8.7-8.9,8.6c-4.8-0.1-8.4-3.7-8.5-8.5c-0.1-5,3.7-8.9,8.6-8.9C127.9,716.1,131.7,719.9,131.7,724.9z"
	/>
<path d="M797.2,537.9c-4.9,0-8.8-4.1-8.7-9c0.2-4.7,4-8.4,8.8-8.4c4.9,0,8.8,4,8.6,9C805.8,534.2,801.9,537.9,797.2,537.9z"/>
<path d="M166.3,542.2c4.9,0,9,4,8.9,8.9c-0.1,4.7-3.9,8.5-8.7,8.5c-4.9,0.1-9-4-8.9-8.9C157.8,546,161.6,542.2,166.3,542.2z"/>
<path d="M697.2,550.9c0,4.7-3.8,8.6-8.5,8.7c-5,0.1-9-3.8-9-8.7c0-4.9,4.1-8.8,9-8.7C693.5,542.3,697.2,546.1,697.2,550.9z"/>
<path d="M762.5,550.8c0.1,4.9-3.8,8.8-8.8,8.8c-4.9,0-8.9-4-8.8-8.8c0.1-4.6,4-8.5,8.6-8.6C758.4,542,762.5,545.9,762.5,550.8z"/>
<path d="M784.3,550.9c0,4.9-4,8.8-8.9,8.7c-4.7-0.1-8.5-3.8-8.7-8.5c-0.1-4.8,3.8-8.9,8.7-9C780.3,542.1,784.3,546,784.3,550.9z"/>
<path d="M849.5,550.7c0.1,4.8-3.5,8.6-8.3,8.9c-5,0.2-9.1-3.6-9.2-8.5c-0.1-4.6,3.7-8.7,8.4-8.9
	C845.2,541.9,849.4,545.8,849.5,550.7z"/>
<path d="M175.2,572.7c0,4.8-4.1,8.8-9,8.7c-4.6-0.1-8.5-3.9-8.6-8.6c-0.1-4.8,3.9-8.9,8.7-8.9C171.3,563.9,175.3,567.8,175.2,572.7z
	"/>
<path d="M675.5,572.5c0.1,4.8-3.9,8.9-8.7,8.9c-4.9,0-8.9-4-8.8-8.8c0.1-4.6,3.9-8.5,8.5-8.7C671.3,563.7,675.4,567.7,675.5,572.5z"
	/>
<path d="M797.3,585.6c4.9,0,8.7,4.1,8.6,9c-0.1,4.8-3.8,8.5-8.6,8.6c-5,0.1-8.9-3.8-8.9-8.8C788.5,589.6,792.5,585.5,797.3,585.6z"
	/>
<path d="M892.9,616c0.1,4.8-3.6,8.7-8.3,8.8c-4.9,0.2-9-3.7-9.1-8.6c0-4.9,3.9-8.9,8.9-8.8C889.1,607.4,892.9,611.2,892.9,616z"/>
<path d="M131.6,638c-0.1,4.9-4,8.7-9,8.5c-4.8-0.1-8.4-3.8-8.4-8.6c0-5,3.8-8.8,8.7-8.8C127.9,629.2,131.7,633,131.6,638z"/>
<path d="M197,637.9c0,4.9-3.9,8.7-8.9,8.7c-4.8,0-8.5-3.7-8.7-8.4c-0.1-4.9,3.7-8.9,8.6-9C192.9,629.1,197,633,197,637.9z"/>
<path d="M231.5,629.2c4.9-0.1,8.9,3.7,9,8.6c0.1,4.9-3.8,8.8-8.8,8.8c-4.8,0-8.5-3.6-8.7-8.3C222.8,633.3,226.6,629.3,231.5,629.2z"
	/>
<path d="M262.2,638.1c-0.1,4.9-4.3,8.6-9.3,8.4c-4.7-0.2-8.4-4.2-8.2-8.9c0.2-4.8,4-8.5,8.7-8.4
	C258.3,629.1,262.3,633.2,262.2,638.1z"/>
<path d="M405.8,646.6c-5,0.1-8.9-3.7-8.8-8.7c0-4.7,3.7-8.5,8.4-8.7c4.9-0.2,8.9,3.6,9.1,8.5C414.6,642.6,410.8,646.5,405.8,646.6z"
	/>
<path d="M666.9,629.2c4.9,0.1,8.8,4,8.6,9c-0.1,4.9-4.1,8.6-9.1,8.4c-4.7-0.2-8.4-4-8.5-8.7C657.9,633.1,662,629.1,666.9,629.2z"/>
<path d="M784.3,637.8c0.1,4.9-3.8,8.8-8.8,8.8c-4.8,0-8.6-3.6-8.8-8.3c-0.2-4.8,3.7-9,8.5-9.1C780.2,629,784.2,632.8,784.3,637.8z"
	/>
<path d="M458,659.9c-0.1,4.9-4.2,8.7-9.2,8.5c-4.7-0.2-8.4-4.2-8.3-8.9c0.1-4.9,4.3-8.7,9.2-8.5C454.4,651.1,458.1,655.2,458,659.9z
	"/>
<path d="M536.3,668.3c-4.9,0.1-8.9-3.9-8.9-8.8c0-4.9,4-8.8,8.9-8.7c4.7,0.1,8.5,3.8,8.6,8.5C545.1,664.3,541.3,668.3,536.3,668.3z"
	/>
<path d="M632,659.4c0.1,5-3.7,8.9-8.6,8.9c-4.7,0-8.6-3.6-8.8-8.3c-0.2-4.9,3.5-9,8.4-9.2C627.9,650.7,631.8,654.5,632,659.4z"/>
<path d="M449.2,672.5c4.8,0,8.9,4.2,8.8,9c-0.1,4.7-4.1,8.5-8.7,8.5c-4.9,0-8.9-4.1-8.7-9C440.6,676.5,444.6,672.5,449.2,672.5z"/>
<path d="M327.4,702.9c0.1,4.7-3.5,8.6-8.3,8.9c-5.1,0.2-9.1-3.5-9.1-8.5c0-4.8,3.6-8.7,8.2-8.9C323,694.2,327.3,698.1,327.4,702.9z"
	/>
<path d="M240.4,725.5c-0.3,4.8-4.6,8.3-9.5,8c-4.7-0.4-8.1-4.3-7.9-9.1c0.3-4.9,4.3-8.6,9.3-8.2
	C237.1,716.5,240.8,720.6,240.4,725.5z"/>
<path d="M253.4,733.5c-4.8,0-8.6-3.7-8.7-8.4c-0.1-5,3.8-8.9,8.8-8.9c4.9,0,8.9,4.1,8.7,9C262.1,729.8,258.2,733.5,253.4,733.5z"/>
<path d="M327.4,724.7c0.1,4.8-3.5,8.6-8.3,8.8c-5.1,0.2-9.1-3.5-9.1-8.5c-0.1-4.8,3.6-8.7,8.3-8.9
	C323.3,715.9,327.3,719.7,327.4,724.7z"/>
<path d="M275.2,777.1c-4.8,0-8.9-4-8.8-8.9c0.1-4.6,3.9-8.6,8.5-8.7c4.7-0.2,9,3.9,9.1,8.6C284.1,772.9,280,777,275.2,777.1z"/>
<path d="M384,759.5c4.7,0,8.8,4.3,8.7,9.1c-0.1,4.8-4.3,8.8-9.1,8.6c-4.7-0.2-8.4-4.1-8.4-8.7C375.2,763.5,379.2,759.5,384,759.5z"
	/>
<path d="M384.1,124.9c-4.8,0.1-8.9-3.9-8.9-8.8c0-4.7,3.6-8.6,8.3-8.8c4.8-0.2,9,3.7,9.2,8.5C392.8,120.5,388.9,124.7,384.1,124.9z"
	/>
<path d="M305.7,181.4c-0.1,4.9-4.2,8.9-9.1,8.7c-4.7-0.2-8.4-4.1-8.3-8.9c0-4.9,4.2-8.9,9.1-8.6
	C302.1,172.7,305.7,176.6,305.7,181.4z"/>
<path d="M479.7,137.9c0,4.9-4.1,8.8-9,8.7c-4.7-0.1-8.5-3.9-8.6-8.6c-0.1-5,3.7-8.8,8.7-8.9C475.9,129.1,479.8,132.9,479.7,137.9z"
	/>
<path d="M631.9,137.6c0.1,4.8-3.5,8.7-8.3,8.8c-5.1,0.2-9-3.5-9.1-8.5c-0.1-5,3.8-8.9,8.8-8.8C628.2,129.1,631.8,132.7,631.9,137.6z
	"/>
<path d="M566.7,202.9c0.1,4.8-3.9,9-8.7,9c-4.8,0-8.8-4.1-8.8-8.9c0-4.6,3.8-8.6,8.4-8.7C562.5,194.1,566.6,198,566.7,202.9z"/>
<path d="M566.7,768.6c-0.1,4.8-4.3,8.8-9.1,8.6c-4.6-0.2-8.4-4.1-8.4-8.8c0-4.8,4.1-8.9,8.9-8.9
	C562.9,759.5,566.8,763.7,566.7,768.6z"/>
<path d="M644.9,324.8c4.8,0,8.6,3.6,8.8,8.4c0.1,5-3.7,9-8.7,9c-5,0-8.9-3.9-8.8-8.9C636.3,328.5,640.1,324.8,644.9,324.8z"/>
<path d="M371,159.3c0.1,4.9-3.8,8.9-8.8,8.9c-4.8,0-8.6-3.6-8.7-8.4c-0.2-4.8,3.4-8.7,8.2-8.9C366.7,150.7,370.8,154.4,371,159.3z"
	/>
<path d="M479.7,681.6c-0.1,4.8-4.3,8.7-9.1,8.5c-4.6-0.2-8.4-4.1-8.4-8.8c0-4.9,4.1-8.9,8.9-8.8
	C475.9,672.6,479.8,676.7,479.7,681.6z"/>
<path d="M697.3,572.7c0,4.9-4,8.8-8.9,8.7c-4.7-0.1-8.5-3.8-8.6-8.5c-0.1-4.9,3.7-8.9,8.6-9C693.3,563.9,697.3,567.8,697.3,572.7z"
	/>
<path d="M545,725c-0.1,5-3.9,8.7-9,8.5c-4.8-0.1-8.4-3.8-8.5-8.6c0-5,3.8-8.8,8.7-8.8C541.1,716.1,545,720,545,725z"/>
<path d="M131.7,594.4c0,4.9-3.9,8.8-8.8,8.8c-4.7,0-8.5-3.8-8.6-8.5c-0.1-5,3.7-9,8.5-9C127.6,585.5,131.6,589.5,131.7,594.4z"/>
<path d="M697.3,485.7c0,4.9-4,8.8-8.9,8.8c-4.9-0.1-8.8-4.1-8.7-9c0.1-4.7,3.9-8.4,8.6-8.5C693.3,476.9,697.3,480.8,697.3,485.7z"/>
<path d="M667,476.9c4.8,0.1,8.7,4.3,8.5,9.1c-0.2,4.7-4.1,8.4-8.8,8.4c-4.9,0-8.9-4.1-8.8-8.9C658,480.7,662.1,476.8,667,476.9z"/>
<path d="M240.4,594.4c0,5-4,8.8-8.9,8.7c-4.8-0.1-8.4-3.9-8.4-8.7c0-4.7,3.7-8.6,8.4-8.8C236.3,585.5,240.4,589.5,240.4,594.4z"/>
<path d="M153.4,724.7c0.1,4.7-3.6,8.6-8.4,8.7c-5,0.2-9-3.6-9-8.6c0-4.8,3.6-8.6,8.4-8.8C149.3,716,153.3,719.8,153.4,724.7z"/>
<path d="M197,725.1c-0.1,4.9-4.3,8.6-9.3,8.3c-4.8-0.3-8.4-4.1-8.2-8.9c0.2-4.8,4-8.4,8.8-8.4C193.2,716.2,197.1,720.3,197,725.1z"
	/>
<path d="M623.5,603.2c-4.9,0.1-8.9-3.7-9-8.7c0-4.8,4-8.9,8.8-8.9c4.6,0,8.5,3.8,8.7,8.5C632.1,599,628.4,603,623.5,603.2z"/>
<path d="M349.2,485.8c0,4.9-4.1,8.8-9.1,8.6c-4.7-0.2-8.5-4.1-8.4-8.8c0-4.7,3.8-8.6,8.6-8.6C345.2,476.9,349.2,480.8,349.2,485.8z"
	/>
<path d="M340.5,216.1c5,0,8.9,4,8.7,8.9c-0.1,4.7-4,8.5-8.7,8.5c-5,0-8.9-4-8.7-8.9C331.8,219.8,335.7,216.1,340.5,216.1z"/>
<path d="M732,603.1c-4.9,0-8.8-4.1-8.7-9c0.1-4.6,4.1-8.5,8.7-8.5c4.9,0,8.8,4.1,8.7,9C740.6,599.3,736.7,603.1,732,603.1z"/>
<path d="M218.7,724.8c0,4.8-3.6,8.5-8.5,8.7c-5.1,0.1-9-3.6-8.9-8.6c0-4.8,3.7-8.6,8.5-8.7C214.7,716,218.6,719.8,218.7,724.8z"/>
<path d="M827.7,594.6c-0.1,4.7-4,8.5-8.7,8.5c-4.9,0-8.9-4-8.7-9c0.1-4.7,4.1-8.5,8.7-8.6C823.9,585.6,827.8,589.6,827.7,594.6z"/>
<path d="M601.4,390c4.9-0.1,8.9,3.9,8.8,8.8c0,4.7-3.7,8.5-8.4,8.7c-4.9,0.2-9-3.6-9.1-8.5C592.6,394,596.5,390,601.4,390z"/>
<path d="M740.7,550.7c0.1,4.8-3.5,8.7-8.3,8.9c-5,0.2-9.1-3.5-9.2-8.5c-0.1-5,3.8-8.9,8.8-8.9C736.8,542.2,740.6,546,740.7,550.7z"
	/>
<path d="M645.2,737.9c4.9,0.1,8.7,4.2,8.5,9.1c-0.2,4.8-3.9,8.4-8.7,8.4c-4.9,0-8.8-3.9-8.8-8.8
	C636.3,741.6,640.4,737.7,645.2,737.9z"/>
<path d="M501.4,224.9c-0.1,4.9-4.2,8.8-9.1,8.6c-4.7-0.2-8.4-4.1-8.3-8.8c0.2-4.8,3.9-8.6,8.6-8.6
	C497.6,216.1,501.5,220,501.4,224.9z"/>
<path d="M566.7,224.9c0,4.9-4.1,8.8-9,8.7c-4.7-0.1-8.5-3.9-8.5-8.6c-0.1-4.9,3.8-8.8,8.7-8.9C562.9,216,566.8,219.9,566.7,224.9z"
	/>
<path d="M566.7,855.3c0,4.8-4,8.9-8.8,8.8c-4.6,0-8.5-3.9-8.7-8.5c-0.1-4.8,3.8-9,8.6-9.1C562.6,846.4,566.7,850.5,566.7,855.3z"/>
<path d="M305.6,746.4c0.1,4.7-3.6,8.7-8.3,8.9c-5,0.2-9-3.5-9.1-8.5c-0.1-4.7,3.6-8.7,8.3-8.9C301.5,737.6,305.5,741.5,305.6,746.4z
	"/>
<path d="M240.4,463.7c0.1,4.9-3.9,9-8.7,9c-4.7,0-8.5-3.8-8.6-8.5c-0.1-4.8,3.4-8.7,8.2-8.9C236.1,455,240.3,458.8,240.4,463.7z"/>
<path d="M153.4,464c0,4.9-4.2,8.9-9,8.7c-4.7-0.2-8.4-4.1-8.4-8.8c0-4.9,3.7-8.6,8.5-8.7C149.4,455.1,153.4,459.1,153.4,464z"/>
<path d="M284,268.2c0,4.9-4,8.8-8.9,8.8c-4.9,0-8.8-4-8.7-8.9c0.1-4.7,3.9-8.5,8.6-8.6C279.8,259.4,284,263.4,284,268.2z"/>
<path d="M819.2,842.3c-4.8,0.1-8.7-3.5-8.9-8.2c-0.2-5,3.5-9.1,8.5-9.2c4.9-0.1,8.9,3.8,8.9,8.8C827.7,838.4,824,842.2,819.2,842.3z
	"/>
<path d="M740.7,442.3c-0.1,5-4.1,8.8-9.1,8.6c-4.8-0.2-8.4-4-8.4-8.8c0-5,4.1-8.8,9.1-8.6C737.1,433.6,740.8,437.5,740.7,442.3z"/>
<path d="M775.7,824.8c4.8,0.1,8.5,3.9,8.6,8.7c0,4.9-4,8.9-8.9,8.8c-4.7-0.1-8.5-3.9-8.6-8.7C766.7,828.7,770.8,824.7,775.7,824.8z"
	/>
<path d="M740.7,833.8c-0.1,5-4.2,8.7-9.2,8.5c-4.7-0.2-8.4-4.2-8.3-8.9c0.1-5,4.2-8.8,9.2-8.5C737.2,825.1,740.8,829,740.7,833.8z"
	/>
<path d="M362.3,277c-4.8,0-8.9-4-8.9-8.9c0-4.6,3.9-8.5,8.6-8.6c4.6-0.1,8.8,3.8,8.9,8.3C371.1,272.7,367.1,277,362.3,277z"/>
<path d="M819.1,346.5c4.9,0,8.8,4,8.7,8.9c-0.1,4.8-3.8,8.5-8.5,8.6c-4.9,0.1-8.9-3.8-8.9-8.7C810.2,350.4,814.1,346.5,819.1,346.5z
	"/>
<path d="M449,324.8c4.8-0.1,8.7,3.6,8.9,8.2c0.2,4.9-3.7,9-8.6,9.1c-5,0.1-8.9-3.8-8.9-8.8C440.5,328.6,444.2,324.9,449,324.8z"/>
<path d="M231.5,498.7c4.9-0.1,8.9,3.9,8.9,8.8c-0.1,4.7-3.8,8.5-8.5,8.6c-4.9,0.1-8.9-3.8-8.8-8.8
	C223.1,502.5,226.8,498.8,231.5,498.7z"/>
<path d="M153.4,637.8c0.1,4.9-3.8,8.8-8.8,8.7c-4.8,0-8.5-3.6-8.6-8.4c-0.1-5,3.6-8.9,8.5-9C149.4,629.1,153.4,632.9,153.4,637.8z"
	/>
<path d="M623.4,277c-4.9,0.1-8.9-3.9-8.9-8.9c0-4.8,3.7-8.5,8.5-8.6c4.7-0.1,8.7,3.6,8.9,8.3C632.1,272.8,628.3,276.9,623.4,277z"/>
<path d="M131.6,551.1c-0.1,4.9-4.2,8.7-9.2,8.5c-4.8-0.2-8.3-4-8.2-8.9c0.1-4.8,3.9-8.5,8.7-8.5
	C127.9,542.2,131.7,546.1,131.6,551.1z"/>
<path d="M201.2,637.7c0.1-5,4.2-8.8,9.1-8.5c4.8,0.2,8.4,4,8.3,8.9c-0.1,5-4.1,8.7-9.1,8.5C204.7,646.3,201.1,642.5,201.2,637.7z"/>
<path d="M697.2,333.2c0.1,5-3.7,9-8.7,9c-4.7,0-8.7-3.8-8.8-8.4c-0.1-4.9,3.8-8.9,8.7-8.9C693.4,324.9,697.1,328.4,697.2,333.2z"/>
<path d="M479.7,724.9c0,5-3.9,8.7-8.9,8.6c-4.8-0.1-8.5-3.7-8.6-8.5c-0.1-4.9,3.7-8.9,8.7-8.9C475.8,716.1,479.7,720,479.7,724.9z"
	/>
<path d="M405.8,842.3c-4.8,0.1-8.6-3.6-8.8-8.3c-0.2-5,3.6-9,8.6-9.1c4.8,0,8.6,3.6,8.8,8.3C414.6,838.2,410.8,842.2,405.8,842.3z"
	/>
<path d="M188.3,298.8c-4.8,0.1-8.9-4-8.9-8.8c0-4.6,3.7-8.6,8.4-8.8c4.8-0.2,9.1,3.8,9.2,8.5C197.1,294.5,193.1,298.7,188.3,298.8z"
	/>
<path d="M340.4,298.7c-4.8-0.1-8.8-4.2-8.6-9.1c0.2-4.6,4.2-8.5,8.8-8.4c4.9,0.1,8.7,4.2,8.6,9.1C349,295,345.1,298.7,340.4,298.7z"
	/>
<path d="M427.6,298.7c-4.9,0-8.9-4-8.8-8.8c0.1-4.6,4-8.5,8.6-8.6c4.8,0,8.8,4,8.7,8.9C436,294.8,432.2,298.6,427.6,298.7z"/>
<path d="M740.7,355c0.1,5-3.8,8.9-8.7,8.9c-4.9,0-8.8-3.9-8.8-8.8c0-4.7,3.7-8.5,8.4-8.7C736.6,346.3,740.7,350.1,740.7,355z"/>
<path d="M384.1,694.3c4.9,0.1,8.7,4.1,8.6,9.1c-0.1,4.9-4.2,8.7-9.2,8.5c-4.7-0.2-8.4-4.1-8.3-8.8
	C375.3,698.1,379.2,694.2,384.1,694.3z"/>
<path d="M601.6,629.2c4.9,0.1,8.8,4.1,8.6,9.1c-0.2,4.7-4,8.4-8.8,8.3c-4.8-0.1-8.6-3.8-8.6-8.5
	C592.7,633.1,596.7,629.1,601.6,629.2z"/>
<path d="M471.1,737.8c4.9,0.1,8.8,4.2,8.6,9.1c-0.2,4.7-4.1,8.4-8.8,8.4c-5-0.1-8.8-4.1-8.6-9.1
	C462.4,741.6,466.4,737.8,471.1,737.8z"/>
<path d="M697.2,638.1c-0.1,4.7-3.9,8.4-8.7,8.4c-5,0-8.9-4-8.7-8.9c0.1-4.7,4-8.4,8.7-8.5C693.4,629.2,697.3,633.1,697.2,638.1z"/>
<path d="M884.3,890.1c4.8,0,8.5,3.7,8.6,8.5c0.1,5.1-3.6,8.9-8.7,8.9c-4.8,0-8.6-3.7-8.7-8.4C875.4,894,879.3,890.1,884.3,890.1z"/>
<path d="M732,298.9c-4.7,0-8.8-4.2-8.7-9c0.1-4.8,4.2-8.8,9-8.7c4.7,0.1,8.4,4,8.5,8.7C740.8,294.8,736.8,298.9,732,298.9z"/>
<path d="M892.9,377c0,4.8-3.8,8.7-8.5,8.8c-4.8,0.1-8.9-4-8.9-8.9c0-5,4-8.8,9-8.7C889.3,368.4,892.9,372.1,892.9,377z"/>
<path d="M362.4,581.3c-4.7,0.1-8.7-3.6-8.9-8.3c-0.3-4.9,3.6-9.1,8.5-9.2c4.9-0.1,9,3.9,9,8.8C371,577.3,367.1,581.2,362.4,581.3z"
	/>
<path d="M862.5,629.1c4.8,0,8.6,3.7,8.7,8.5c0.1,4.9-3.8,8.9-8.8,8.9c-4.8,0-8.6-3.7-8.7-8.4C853.6,633.2,857.6,629.2,862.5,629.1z"
	/>
<path d="M327.4,811.7c0.1,4.8-3.6,8.6-8.3,8.8c-5.1,0.2-9-3.5-9.1-8.5c0-4.8,3.6-8.6,8.3-8.8C323.3,802.9,327.3,806.7,327.4,811.7z"
	/>
<path d="M558.2,711.9c-4.9,0.1-8.9-3.7-9-8.6c0-4.9,3.9-8.9,8.8-8.9c4.7,0,8.5,3.7,8.7,8.4C566.9,707.6,563.1,711.7,558.2,711.9z"/>
<path d="M892.9,290c0,4.8-3.8,8.7-8.4,8.8c-4.8,0.1-8.9-3.9-8.9-8.8c0-4.9,4-8.9,9-8.7C889.3,281.4,892.9,285.1,892.9,290z"/>
<path d="M841,368.2c4.5,0.1,8.5,4.1,8.5,8.7c0.1,4.5-3.9,8.7-8.5,8.8c-4.8,0.1-9.1-4-9.1-8.7C832,372.2,836.1,368.2,841,368.2z"/>
<path d="M740.7,333.3c0.1,4.9-3.7,8.9-8.7,8.9c-4.9,0-8.8-3.8-8.8-8.8c0-4.8,3.6-8.4,8.4-8.6C736.7,324.7,740.6,328.3,740.7,333.3z"
	/>
<path d="M740.7,377.1c-0.1,5-4.1,8.9-9,8.7c-4.6-0.2-8.5-4.2-8.4-8.8c0-4.9,4.1-8.9,9-8.7C737,368.4,740.7,372.4,740.7,377.1z"/>
<path d="M631.9,377.1c-0.1,4.8-3.8,8.6-8.5,8.7c-4.8,0.1-8.9-4-8.9-8.9c0.1-4.9,4.1-8.8,9.1-8.6C628.3,368.5,632,372.3,631.9,377.1z
	"/>
<path d="M557.8,798.8c-4.8-0.1-8.5-3.9-8.5-8.7c0-5,4-8.9,8.9-8.8c4.9,0.1,8.8,4.2,8.5,9.2C566.5,795.2,562.5,798.9,557.8,798.8z"/>
<path d="M588.4,377.2c-0.1,4.8-4.4,8.8-9.2,8.5c-4.6-0.2-8.4-4.4-8.3-9c0.1-4.6,4.1-8.5,8.7-8.5
	C584.5,368.3,588.5,372.4,588.4,377.2z"/>
<path d="M566.7,376.8c0.1,4.9-3.9,9-8.8,9c-4.6,0-8.6-3.9-8.7-8.6c-0.1-4.9,3.9-9,8.8-9C562.7,368.2,566.6,372.1,566.7,376.8z"/>
<path d="M240.4,333.6c-0.1,5-4.1,8.8-9.1,8.6c-4.7-0.2-8.4-4-8.4-8.8c0-5,4-8.8,9.1-8.6C236.8,325,240.5,328.8,240.4,333.6z"/>
<path d="M753.6,759.5c4.5-0.1,8.6,3.8,8.9,8.4c0.2,4.8-3.7,9.1-8.6,9.1c-4.6,0.1-8.7-3.8-8.9-8.3
	C744.8,763.9,748.8,759.6,753.6,759.5z"/>
<path d="M610.2,724.7c0.1,4.9-3.8,8.8-8.7,8.8c-4.8,0-8.6-3.6-8.8-8.3c-0.2-4.9,3.6-9,8.5-9.1C606.1,716,610.1,719.8,610.2,724.7z"
	/>
<path d="M805.9,659.4c0.1,4.9-3.4,8.7-8.2,8.9c-4.9,0.2-9.1-3.6-9.2-8.5c-0.1-5,3.8-8.9,8.8-8.9
	C802.1,650.9,805.8,654.5,805.9,659.4z"/>
<path d="M601.4,429.2c-4.7,0-8.6-3.8-8.7-8.5c-0.1-4.9,3.8-8.9,8.8-8.9c5,0,8.7,3.8,8.7,8.9C610,425.5,606.2,429.2,601.4,429.2z"/>
<path d="M262.2,333.3c0.1,4.9-4,8.9-8.9,8.8c-4.8,0-8.5-3.8-8.6-8.6c-0.1-4.9,3.9-8.9,8.9-8.8C258.3,324.9,262.1,328.6,262.2,333.3z
	"/>
<path d="M819.1,342.2c-5,0-8.8-3.8-8.8-8.7c0-4.9,3.9-8.7,8.9-8.7c4.8,0.1,8.5,3.7,8.6,8.5C827.8,338.2,824,342.2,819.1,342.2z"/>
<path d="M383.9,737.8c4.9,0,8.8,4,8.8,8.8c0,4.9-4,8.7-9,8.6c-4.8-0.1-8.4-3.8-8.5-8.5C375.1,741.9,379.1,737.9,383.9,737.8z"/>
<path d="M284,420.6c-0.1,4.8-4.3,8.7-9.1,8.6c-4.9-0.1-8.7-4.3-8.5-9.2c0.2-4.7,4-8.3,8.8-8.3C280.2,411.8,284.1,415.8,284,420.6z"
	/>
<path d="M284,333.4c0,4.8-3.9,8.8-8.8,8.8c-4.9,0-8.8-3.9-8.8-8.9c0.1-4.8,3.7-8.4,8.5-8.5C279.9,324.7,283.9,328.5,284,333.4z"/>
<path d="M188.4,429.2c-4.9,0.1-8.9-3.8-9-8.7c-0.1-4.8,3.5-8.5,8.3-8.7c5-0.2,9.1,3.5,9.2,8.4C197.1,425,193.2,429.1,188.4,429.2z"
	/>
<path d="M383.9,690.1c-4.7,0-8.5-3.7-8.6-8.5c-0.2-4.9,3.9-9,8.7-9c4.6,0,8.5,3.9,8.6,8.6C392.8,686.1,388.9,690.1,383.9,690.1z"/>
<path d="M718.9,159.6c-0.1,5-3.9,8.7-8.9,8.6c-4.9-0.1-8.7-4.1-8.5-9c0.1-4.7,3.9-8.3,8.7-8.4C715.2,150.9,719,154.6,718.9,159.6z"
	/>
<path d="M566.7,159.6c-0.1,5-4.1,8.8-9.1,8.6c-4.8-0.2-8.4-4-8.4-8.8c0-5,4-8.7,9.1-8.6C563.1,151,566.7,154.8,566.7,159.6z"/>
<path d="M871.3,485.6c0.1,4.7-3.7,8.7-8.4,8.8c-4.9,0.2-9.1-3.7-9.1-8.6c-0.1-4.9,4-8.9,8.9-8.8C867.3,477,871.2,480.9,871.3,485.6z
	"/>
<path d="M631.9,898.6c0.1,4.9-3.4,8.6-8.3,8.8c-5.1,0.2-9.1-3.5-9.1-8.5c-0.1-4.8,3.5-8.6,8.3-8.8
	C627.8,889.9,631.8,893.6,631.9,898.6z"/>
<path d="M305.7,594.2c0.1,4.9-3.9,8.9-8.8,8.9c-4.7,0-8.6-3.9-8.6-8.6c-0.1-5,3.9-9,8.8-8.9C301.7,585.7,305.6,589.6,305.7,594.2z"
	/>
<path d="M296.7,494.4c-4.7-0.1-8.5-3.9-8.5-8.7c0-5,3.9-8.9,8.9-8.8c4.7,0.1,8.5,4,8.5,8.7C305.7,490.5,301.7,494.5,296.7,494.4z"/>
<path d="M210.1,494.4c-4.8,0.1-8.6-3.5-8.9-8.3c-0.2-5.1,3.5-9,8.5-9.2c4.7-0.1,8.7,3.5,8.9,8.3
	C218.9,490.2,215.1,494.2,210.1,494.4z"/>
<path d="M114.2,616.1c0-5,3.9-8.8,8.9-8.7c4.9,0.1,8.7,4.1,8.5,9.1c-0.1,4.7-3.9,8.4-8.6,8.4C118.1,624.9,114.2,621,114.2,616.1z"/>
<path d="M122.8,494.4c-4.9,0-8.6-4-8.6-9c0.1-4.6,4.1-8.5,8.7-8.4c4.7,0.1,8.5,3.9,8.6,8.6C131.7,490.4,127.7,494.4,122.8,494.4z"/>
<path d="M296.9,624.9c-4.7,0-8.6-3.7-8.7-8.5c-0.1-5,3.8-9,8.7-9c4.8,0,8.6,3.7,8.7,8.5C305.8,620.9,301.9,624.8,296.9,624.9z"/>
<path d="M275,516.1c-4.7-0.1-8.5-4-8.5-8.7c0-4.9,4-8.8,9-8.7c4.9,0.1,8.8,4.3,8.5,9.2C283.7,512.5,279.7,516.2,275,516.1z"/>
<path d="M110,637.7c0,5-3.9,8.8-8.9,8.8c-4.8-0.1-8.5-3.7-8.6-8.5c-0.1-4.9,3.9-8.9,8.8-8.8C106,629.3,109.9,633.1,110,637.7z"/>
<path d="M153.4,551.1c-0.1,4.9-4.1,8.7-9.1,8.5c-4.7-0.2-8.4-3.9-8.4-8.7c0-5,3.9-8.8,8.8-8.8C149.7,542.2,153.5,546.2,153.4,551.1z
	"/>
<path d="M305.7,529.2c0,5-4,8.8-9,8.7c-4.8-0.1-8.5-4-8.4-8.7c0-4.8,3.7-8.6,8.5-8.7C301.7,520.3,305.7,524.2,305.7,529.2z"/>
<path d="M571,637.8c0.1-5,4.2-8.8,9.1-8.6c4.8,0.2,8.4,4,8.4,8.7c0,4.9-4,8.7-9,8.6C574.7,646.4,570.9,642.4,571,637.8z"/>
<path d="M305.6,550.9c0,4.9-4,8.8-8.9,8.7c-4.8-0.1-8.5-3.9-8.5-8.7c0-4.7,3.7-8.6,8.4-8.7C301.6,542,305.6,545.9,305.6,550.9z"/>
<path d="M827.7,637.8c0,4.8-3.6,8.6-8.4,8.7c-5,0.2-9-3.6-9-8.6c0-4.8,3.6-8.6,8.4-8.8C823.7,629,827.7,632.8,827.7,637.8z"/>
<path d="M849.5,420.2c0.1,4.7-3.6,8.7-8.3,8.9c-4.9,0.2-9.1-3.6-9.3-8.5c-0.2-4.9,3.8-8.9,8.8-8.9
	C845.6,411.8,849.4,415.5,849.5,420.2z"/>
<path d="M384.1,668.4c-5,0.1-8.9-3.7-8.9-8.7c0-4.7,3.7-8.6,8.3-8.8c4.9-0.2,9,3.6,9.2,8.5C392.9,664.2,389,668.3,384.1,668.4z"/>
<path d="M405.4,668.3c-4.7-0.1-8.4-3.9-8.4-8.7c0-5,4-8.8,9-8.7c4.7,0.1,8.5,4,8.5,8.7C414.4,664.5,410.4,668.4,405.4,668.3z"/>
<path d="M514.4,650.9c5,0,8.9,3.9,8.8,8.9c-0.1,4.8-3.9,8.5-8.7,8.5c-4.8,0-8.7-3.7-8.8-8.4C505.6,655,509.4,650.9,514.4,650.9z"/>
<path d="M187.9,498.7c5-0.1,9,3.8,9,8.7c0,4.7-3.8,8.6-8.5,8.7c-4.9,0.1-9-3.8-9-8.7C179.4,502.6,183.1,498.8,187.9,498.7z"/>
<path d="M645,650.9c4.7,0,8.6,3.8,8.7,8.5c0.1,5-3.8,9-8.7,8.9c-4.7,0-8.6-3.8-8.7-8.5C636.2,654.9,640.1,650.9,645,650.9z"/>
<path d="M710.4,668.3c-5,0.1-8.9-3.9-8.9-8.8c0.1-4.7,3.8-8.5,8.6-8.6c5-0.1,8.9,3.8,8.8,8.8C718.9,664.5,715.2,668.2,710.4,668.3z"
	/>
<path d="M784.2,659.7c-0.1,5-4.1,8.8-9.1,8.6c-4.7-0.2-8.5-4.1-8.4-8.8c0-4.9,4.1-8.8,9.1-8.6C780.6,651.1,784.3,655,784.2,659.7z"
	/>
<path d="M362.2,411.8c4.9,0,8.9,3.9,8.8,8.8c-0.1,4.8-4.2,8.7-9,8.6c-4.7-0.1-8.4-3.9-8.5-8.6C353.3,415.7,357.2,411.8,362.2,411.8z
	"/>
<path d="M318.9,429.2c-4.9,0.1-8.8-3.8-8.9-8.7c0-4.8,3.5-8.5,8.3-8.7c5-0.2,9,3.5,9.1,8.4C327.6,425.1,323.8,429.1,318.9,429.2z"/>
<path d="M827.7,398.5c0.1,5-3.7,8.9-8.6,9c-4.9,0-8.9-3.9-8.8-8.8c0-4.7,3.7-8.5,8.4-8.7C823.7,389.8,827.6,393.5,827.7,398.5z"/>
<path d="M536,672.5c4.8-0.1,8.9,3.9,8.9,8.8c0,4.7-3.8,8.6-8.5,8.7c-4.7,0.1-8.7-3.6-8.9-8.3C527.3,676.9,531.3,672.6,536,672.5z"/>
<path d="M697.3,398.7c0,4.9-3.9,8.9-8.8,8.8c-4.9,0-8.8-4-8.7-8.9c0.1-4.7,3.8-8.4,8.6-8.6C693.2,389.9,697.2,393.8,697.3,398.7z"/>
<path d="M644.8,407.4c-4.6-0.1-8.4-4-8.5-8.7c-0.1-4.8,4.1-8.9,8.9-8.8c4.7,0.1,8.6,4,8.5,8.6C653.7,403.5,649.6,407.5,644.8,407.4z
	"/>
<path d="M383.8,407.5c-4.9-0.1-8.7-4.2-8.6-9.1c0.2-4.7,3.9-8.4,8.6-8.4c4.9,0,8.9,3.9,8.8,8.8C392.7,403.6,388.6,407.6,383.8,407.5
	z"/>
<path d="M305.7,398.5c0.1,4.9-3.8,8.9-8.8,8.9c-4.7,0-8.6-3.8-8.6-8.5c-0.1-5,3.7-8.9,8.8-8.9C301.7,390,305.6,393.8,305.7,398.5z"
	/>
<path d="M262.2,398.5c0.1,4.9-3.8,9-8.8,9c-4.7,0-8.6-3.7-8.7-8.5c-0.1-4.7,3.6-8.7,8.3-9C257.9,389.8,262.1,393.6,262.2,398.5z"/>
<path d="M188.2,390c4.7,0,8.7,3.9,8.7,8.5c0.1,4.9-4,9-8.8,9c-4.7,0-8.6-3.8-8.7-8.5C179.3,394.2,183.4,390,188.2,390z"/>
<path d="M166.2,407.5c-4.9-0.1-8.8-4.3-8.6-9.1c0.2-4.7,4.1-8.4,8.8-8.4c4.9,0,8.9,4,8.8,8.8C175.2,403.7,171.1,407.6,166.2,407.5z"
	/>
<path d="M841,711.8c-4.6,0.1-8.7-3.7-8.9-8.3c-0.2-4.8,3.7-9,8.5-9.1c4.6-0.1,8.7,3.7,8.9,8.3C849.7,707.5,845.8,711.6,841,711.8z"
	/>
<path d="M131.6,377.1c-0.1,4.7-4,8.6-8.6,8.7c-4.9,0.1-8.8-4-8.8-9c0.1-4.8,3.8-8.6,8.6-8.6C127.8,368.2,131.7,372.2,131.6,377.1z"
	/>
<path d="M383.9,733.5c-4.8,0-8.5-3.7-8.6-8.5c-0.1-4.9,3.9-8.9,8.8-8.8c5,0.1,8.8,4.1,8.6,9.1C392.5,730,388.7,733.6,383.9,733.5z"
	/>
<path d="M427.9,716.2c4.7,0.2,8.4,4.1,8.3,8.9c-0.1,4.9-4.1,8.7-9.2,8.5c-4.8-0.2-8.4-4.1-8.3-8.8
	C418.9,719.7,422.9,715.9,427.9,716.2z"/>
<path d="M557.9,733.5c-5,0-8.8-3.9-8.7-8.9c0.1-4.9,4.1-8.7,9.1-8.5c4.7,0.2,8.4,3.9,8.4,8.7C566.8,729.8,562.9,733.6,557.9,733.5z"
	/>
<path d="M218.6,398.8c-0.1,5-4.1,8.8-9.1,8.6c-4.7-0.2-8.4-4-8.3-8.8c0.1-5,4-8.8,9.1-8.6C215,390.2,218.7,394.1,218.6,398.8z"/>
<path d="M710.4,716.1c5,0.1,8.7,4.1,8.5,9.2c-0.2,4.8-4,8.3-8.9,8.2c-4.8-0.1-8.5-3.8-8.5-8.6C701.5,719.9,705.4,716,710.4,716.1z"
	/>
<path d="M732,733.5c-4.9,0-8.6-3.6-8.7-8.5c-0.1-5,3.8-8.9,8.8-8.9c5,0,8.8,4,8.7,9C740.6,730,736.8,733.5,732,733.5z"/>
<path d="M558.1,346.5c4.9,0.1,8.7,4.2,8.6,9.1c-0.2,4.9-4.3,8.7-9.2,8.4c-4.7-0.2-8.3-4.1-8.3-8.8
	C549.2,350.3,553.2,346.4,558.1,346.5z"/>
<path d="M784.2,724.6c0.1,4.7-3.5,8.7-8.3,8.9c-5,0.2-9.1-3.5-9.2-8.4c-0.1-4.7,3.6-8.7,8.3-8.9
	C780.1,715.9,784.1,719.7,784.2,724.6z"/>
<path d="M471.1,364c-4.9,0-8.8-3.9-8.8-8.8c0-4.9,4-8.8,8.9-8.7c4.7,0.1,8.5,3.8,8.6,8.5C479.8,360,475.9,364,471.1,364z"/>
<path d="M892.9,725c0,4.8-3.7,8.5-8.6,8.5c-5,0-8.9-3.8-8.8-8.8c0.1-4.9,4.1-8.7,9.1-8.6C889.4,716.3,893,720.1,892.9,725z"/>
<path d="M283.9,355.6c-0.2,4.9-4.5,8.7-9.4,8.3c-4.7-0.3-8.3-4.4-8.1-9.1c0.2-4.9,4.4-8.7,9.4-8.3
	C280.5,346.9,284.1,350.9,283.9,355.6z"/>
<path d="M862.3,737.9c5-0.1,8.9,3.7,9,8.7c0,4.6-3.7,8.4-8.5,8.6c-4.8,0.2-9-3.9-9-8.7C853.8,742,857.7,738,862.3,737.9z"/>
<path d="M631.9,333.4c0,5-3.9,8.9-8.8,8.8c-4.8-0.1-8.5-3.8-8.6-8.6c-0.1-5,3.8-8.9,8.9-8.8C628.2,324.9,631.9,328.5,631.9,333.4z"
	/>
<path d="M566.7,333.4c0,5-4,8.9-8.9,8.8c-4.8-0.1-8.5-3.9-8.5-8.6c-0.1-5,3.9-8.8,8.9-8.7C563,324.9,566.7,328.6,566.7,333.4z"/>
<path d="M588.5,725.3c-0.1,4.6-4.2,8.3-8.9,8.2c-5.1-0.2-8.8-4.1-8.6-9c0.2-4.7,4.2-8.4,8.9-8.3
	C584.8,716.3,588.6,720.3,588.5,725.3z"/>
<path d="M645.1,759.5c4.8,0,8.8,4.2,8.7,9.1c-0.1,4.7-4.1,8.5-8.8,8.5c-4.9,0-8.8-4.2-8.7-9.1C636.4,763.4,640.5,759.5,645.1,759.5z
	"/>
<path d="M101.3,342.2c-5,0.1-8.9-3.9-8.8-8.9c0.1-4.8,3.8-8.5,8.6-8.5c4.8,0,8.7,3.6,8.9,8.3C110.1,338.1,106.2,342.1,101.3,342.2z"
	/>
<path d="M827.7,311.7c0,4.9-3.9,8.8-8.8,8.8c-4.9-0.1-8.7-4.1-8.6-9c0.1-4.7,3.9-8.4,8.6-8.5C823.9,302.9,827.7,306.7,827.7,311.7z"
	/>
<path d="M805.9,312c-0.1,4.8-3.7,8.4-8.6,8.5c-4.9,0.1-8.8-4-8.7-8.9c0.1-4.8,4.2-8.7,9.2-8.5C802.4,303.2,805.9,307,805.9,312z"/>
<path d="M731.9,303c5-0.1,8.9,3.7,8.9,8.7c0,4.7-3.7,8.6-8.3,8.8c-4.9,0.2-9-3.6-9.1-8.5C723.1,307.1,727,303.1,731.9,303z"/>
<path d="M523.2,311.6c0.1,5-3.9,8.9-8.9,8.8c-4.8-0.1-8.5-3.8-8.6-8.6c-0.1-4.9,3.9-8.9,8.9-8.8
	C519.3,303.1,523.1,306.9,523.2,311.6z"/>
<path d="M462.2,311.5c0.1-5,4.2-8.7,9.2-8.5c4.7,0.2,8.4,4.1,8.3,8.9c-0.1,4.9-4.2,8.7-9.2,8.5C465.8,320.2,462.1,316.2,462.2,311.5
	z"/>
<path d="M392.7,311.6c0,4.9-3.9,8.9-8.9,8.8c-4.7-0.1-8.5-3.9-8.6-8.6c-0.1-5,3.9-8.8,8.8-8.8C388.8,303.1,392.6,306.9,392.7,311.6z
	"/>
<path d="M296.6,303.1c5-0.1,9,3.7,9,8.6c0,4.7-3.8,8.6-8.4,8.7c-4.8,0.1-8.7-3.5-8.9-8.2C288,307.3,291.8,303.2,296.6,303.1z"/>
<path d="M827.7,790c0,4.8-3.6,8.7-8.3,8.8c-5,0.2-9-3.6-9.1-8.6c-0.1-4.9,3.9-8.9,8.8-8.9C823.8,781.4,827.7,785.3,827.7,790z"/>
<path d="M209.7,320.4c-4.7-0.1-8.4-3.9-8.4-8.7c0-5,3.9-8.8,8.9-8.7c4.7,0.1,8.5,4,8.5,8.7C218.6,316.7,214.7,320.5,209.7,320.4z"/>
<path d="M827.7,289.9c0,5-3.9,9-8.8,8.9c-4.6-0.1-8.5-4.1-8.6-8.7c-0.1-4.9,4-9,8.8-8.9C823.9,281.3,827.7,285.1,827.7,289.9z"/>
<path d="M392.7,811.6c0.1,4.8-3.4,8.6-8.3,8.8c-5.1,0.2-9-3.4-9.1-8.5c-0.1-4.8,3.6-8.7,8.3-8.8
	C388.6,802.9,392.6,806.6,392.7,811.6z"/>
<path d="M631.9,811.7c0.1,4.9-3.5,8.6-8.3,8.7c-5,0.2-9-3.6-9.1-8.5c0-4.8,3.6-8.6,8.3-8.8C627.8,802.9,631.8,806.7,631.9,811.7z"/>
<path d="M740.7,811.6c0.1,5-3.7,8.9-8.7,8.9c-4.9,0-8.6-3.5-8.8-8.2c-0.2-5,3.5-9,8.4-9.2C736.6,803,740.6,806.7,740.7,811.6z"/>
<path d="M818.8,803.1c5-0.1,9,3.8,9,8.7c0,4.7-3.7,8.5-8.5,8.6c-5,0.2-8.9-3.7-8.9-8.7C810.3,807,814,803.2,818.8,803.1z"/>
<path d="M449.1,259.6c4.6-0.1,8.6,3.7,8.8,8.3c0.2,4.8-3.8,9.1-8.6,9.1c-4.7,0-8.6-3.7-8.8-8.4C440.3,263.9,444.3,259.7,449.1,259.6
	z"/>
<path d="M392.7,268.4c-0.1,4.9-4.2,8.8-9.1,8.6c-4.7-0.2-8.4-4.1-8.3-8.9c0.1-4.9,4.2-8.8,9.1-8.6
	C389.1,259.7,392.8,263.6,392.7,268.4z"/>
<path d="M305.6,268c0.1,4.9-3.8,9-8.7,9c-4.7,0-8.6-3.7-8.7-8.5c-0.2-4.9,3.8-9,8.7-9C301.7,259.5,305.5,263.3,305.6,268z"/>
<path d="M884.9,824.8c4.9,0.3,8.4,4.4,8,9.5c-0.3,4.7-4.3,8.2-9,8c-4.9-0.2-8.6-4.3-8.3-9.2C875.8,828.1,879.9,824.5,884.9,824.8z"
	/>
<path d="M305.7,855.2c0.1,4.8-3.9,8.9-8.8,8.9c-4.7,0-8.5-3.8-8.7-8.4c-0.2-4.9,3.6-9,8.5-9.2C301.4,846.3,305.6,850.4,305.7,855.2z
	"/>
<path d="M392.7,855.5c-0.1,4.8-4.3,8.8-9.1,8.6c-4.7-0.2-8.4-4.1-8.4-8.8c0-4.8,4-8.9,8.8-8.9C388.8,846.5,392.8,850.8,392.7,855.5z
	"/>
<path d="M544.9,246.5c0,5-4,8.8-8.9,8.7c-4.8-0.1-8.5-3.9-8.5-8.7c0-5,3.9-8.8,9-8.7C541.3,237.9,544.9,241.6,544.9,246.5z"/>
<path d="M653.7,572.6c0,4.7-3.7,8.6-8.4,8.8c-4.9,0.2-9-3.8-9.1-8.6c0-4.9,4-8.9,8.9-8.8C649.9,564,653.7,567.8,653.7,572.6z"/>
<path d="M405.8,255.2c-5,0.1-8.9-3.9-8.8-8.8c0.1-4.8,3.8-8.5,8.6-8.5c4.8,0,8.7,3.5,8.8,8.3C414.6,251.1,410.7,255.1,405.8,255.2z"
	/>
<path d="M527.5,811.7c0.1-5,4-8.8,9.1-8.6c4.8,0.2,8.4,4,8.4,8.8c0,5-4,8.7-9.1,8.6C531,820.3,527.4,816.5,527.5,811.7z"/>
<path d="M645.2,846.5c4.8,0.1,8.7,4.3,8.6,9.1c-0.1,4.8-4.4,8.7-9.1,8.5c-4.6-0.2-8.4-4.2-8.3-8.8
	C636.3,850.5,640.5,846.4,645.2,846.5z"/>
<path d="M675.5,224.7c0,4.7-3.9,8.7-8.5,8.7c-5,0.1-9-3.8-9-8.7c-0.1-4.8,4.1-8.8,9-8.7C671.7,216.2,675.5,220,675.5,224.7z"/>
<path d="M392.6,224.9c0,4.6-3.9,8.5-8.6,8.6c-5,0-8.8-3.8-8.8-8.8c0-4.9,4-8.7,9.1-8.6C389,216.2,392.6,220.1,392.6,224.9z"/>
<path d="M644.7,211.8c-4.8-0.1-8.8-4.5-8.5-9.3c0.2-4.6,4.3-8.4,9-8.3c4.9,0.1,8.8,4.4,8.5,9.3C653.4,208.2,649.4,212,644.7,211.8z"
	/>
<path d="M296.2,168.2c-4.7-0.3-8.2-4.4-8-9.2c0.3-5,4.4-8.5,9.5-8.1c4.8,0.4,8.2,4.3,7.9,9.1C305.4,165.1,301.2,168.6,296.2,168.2z"
	/>
<path d="M340.4,168.2c-4.9,0-8.8-4.1-8.7-9c0.1-4.8,3.9-8.4,8.8-8.3c4.8,0,8.6,3.7,8.7,8.5C349.3,164.3,345.3,168.2,340.4,168.2z"/>
<path d="M427.2,150.9c5-0.1,9,3.8,9,8.7c0,4.6-3.9,8.6-8.5,8.7c-5,0.1-9-3.7-9-8.7C418.7,154.8,422.5,150.9,427.2,150.9z"/>
<path d="M392.7,898.6c0.1,4.8-3.4,8.6-8.3,8.8c-5.1,0.2-9.1-3.4-9.2-8.4c-0.1-4.8,3.5-8.7,8.3-8.9
	C388.6,889.9,392.6,893.6,392.7,898.6z"/>
<path d="M479.7,898.9c0,4.8-3.7,8.5-8.6,8.6c-5.1,0.1-9-3.8-8.9-8.7c0.1-4.8,3.8-8.5,8.6-8.6C475.8,890,479.7,893.9,479.7,898.9z"/>
<path d="M558.1,907.4c-4.9,0.1-8.7-3.5-8.8-8.3c-0.2-5,3.6-9,8.6-9.1c5-0.1,8.9,3.8,8.8,8.8C566.6,903.7,562.9,907.4,558.1,907.4z"
	/>
<path d="M601.6,907.4c-4.8,0-8.7-3.6-8.8-8.3c-0.2-4.9,3.7-9,8.6-9c5,0,8.9,3.9,8.8,8.8C610.1,903.7,606.4,907.4,601.6,907.4z"/>
<path d="M740.7,485.5c0.1,4.8-3.6,8.7-8.3,8.9c-4.9,0.2-9-3.7-9.1-8.6c-0.1-4.9,3.9-8.9,8.8-8.9C736.9,477,740.6,480.7,740.7,485.5z
	"/>
<path d="M688.4,890.1c5,0,8.9,3.9,8.8,8.9c-0.1,4.7-3.9,8.4-8.7,8.5c-4.8,0-8.7-3.6-8.8-8.3C679.6,894.1,683.4,890.1,688.4,890.1z"
	/>
<path d="M818.9,494.4c-4.6-0.1-8.5-4-8.6-8.6c0-5,3.7-8.8,8.8-8.8c4.9,0,8.8,4.1,8.6,9C827.5,490.8,823.6,494.5,818.9,494.4z"/>
<path d="M436.2,637.9c0,4.9-4,8.7-9.1,8.6c-4.7-0.2-8.4-4-8.4-8.7c0.1-4.8,3.8-8.5,8.6-8.6C432.2,629.1,436.2,633,436.2,637.9z"/>
<path d="M109.9,420.3c0.1,4.9-4,8.9-8.9,8.9c-4.7-0.1-8.6-3.9-8.6-8.6c-0.1-4.8,3.6-8.6,8.4-8.8
	C105.8,411.6,109.9,415.4,109.9,420.3z"/>
<path d="M523.2,224.7c0,4.6-3.8,8.6-8.4,8.8c-4.8,0.1-9-3.9-9.1-8.7c-0.1-4.6,3.7-8.6,8.5-8.7C519.1,216,523.2,219.9,523.2,224.7z"
	/>
<path d="M805.9,507.4c0,5-3.8,8.9-8.7,8.8c-5,0-8.8-3.9-8.7-8.9c0.1-4.7,3.8-8.5,8.5-8.6C802,498.6,805.9,502.4,805.9,507.4z"/>
<path d="M797.1,781.3c4.5-0.1,8.7,3.8,8.8,8.4c0.2,5-3.6,9.1-8.5,9.2c-4.7,0.1-8.6-3.6-8.8-8.3C788.3,785.6,792.2,781.5,797.1,781.3
	z"/>
<path d="M327.4,333.3c0.1,5-3.8,8.9-8.8,8.9c-4.7,0-8.5-3.8-8.6-8.5c-0.1-5,3.7-8.9,8.8-8.8C323.6,324.9,327.4,328.6,327.4,333.3z"
	/>
<path d="M349.1,725.2c-0.1,4.7-4,8.3-8.8,8.3c-4.9,0-8.8-4.1-8.6-9c0.2-4.7,4.1-8.3,8.8-8.3C345.5,716.2,349.3,720.2,349.1,725.2z"
	/>
<path d="M631.8,463.8c0.1,4.6-3.6,8.7-8.3,8.8c-4.9,0.2-9-3.7-9.1-8.6c-0.1-4.9,3.9-8.8,8.8-8.8C628,455.3,631.7,459,631.8,463.8z"
	/>
<path d="M275.3,803.1c4.9,0.1,8.8,4.2,8.6,9c-0.2,4.7-4,8.3-8.9,8.3c-4.8-0.1-8.6-3.7-8.6-8.5C266.4,807,270.3,803.1,275.3,803.1z"
	/>
<path d="M623.2,733.4c-5,0-8.8-3.9-8.7-8.9c0.1-4.8,3.8-8.4,8.6-8.4c4.7-0.1,8.6,3.6,8.7,8.3C632,729.4,628.1,733.4,623.2,733.4z"/>
<path d="M218.6,529.1c0,5-3.9,8.9-8.9,8.8c-4.8-0.1-8.5-3.8-8.5-8.6c0-4.8,3.6-8.6,8.4-8.8C214.6,520.3,218.6,524.1,218.6,529.1z"/>
<path d="M196.9,681.4c0,4.8-4.2,8.9-9,8.7c-4.7-0.1-8.5-4.1-8.5-8.8c0-4.7,3.9-8.6,8.5-8.8C192.7,672.4,196.9,676.5,196.9,681.4z"/>
<path d="M710.1,603.1c-4.8,0-8.6-3.8-8.6-8.5c0-5,3.9-8.9,8.8-8.9c4.9,0,8.8,4.1,8.6,9.1C718.7,599.5,714.9,603.1,710.1,603.1z"/>
<path d="M318.7,542.2c5,0,8.8,3.9,8.8,8.8c0,4.9-4,8.7-9,8.6c-4.8-0.1-8.4-3.8-8.5-8.6C309.9,546.1,313.8,542.2,318.7,542.2z"/>
<path d="M457.9,159.2c0.1,4.9-3.8,9-8.6,9.1c-4.7,0.1-8.6-3.6-8.8-8.4c-0.3-4.9,3.7-9,8.6-9C453.9,150.8,457.8,154.5,457.9,159.2z"
	/>
<path d="M688.5,733.5c-4.7,0-8.7-3.8-8.8-8.4c-0.1-4.9,3.9-8.9,8.7-9c4.9,0,8.8,4,8.7,8.9C697.1,729.8,693.3,733.5,688.5,733.5z"/>
<path d="M710.2,129.1c4.8-0.1,8.5,3.5,8.7,8.4c0.2,5-3.6,9-8.6,9c-4.8,0-8.7-3.7-8.7-8.3C701.5,133,705.1,129.2,710.2,129.1z"/>
<path d="M457.9,203c0,4.9-4.1,9-8.9,8.8c-4.6-0.1-8.5-4.1-8.5-8.7c0-4.9,4-8.9,8.9-8.8C454.1,194.4,457.9,198.3,457.9,203z"/>
<path d="M392.7,202.9c0.1,4.8-4,9-8.8,9c-4.7-0.1-8.5-3.9-8.6-8.7c-0.1-4.9,3.9-9,8.8-9C388.7,194.3,392.6,198.2,392.7,202.9z"/>
<path d="M805.9,877.1c0,4.8-3.7,8.6-8.5,8.6c-5,0.1-8.9-3.8-8.8-8.8c0.1-4.7,3.9-8.6,8.5-8.7C802,868.2,805.9,872.1,805.9,877.1z"/>
<path d="M805.9,811.9c0,5-3.9,8.7-9,8.6c-4.7-0.1-8.4-3.9-8.4-8.7c0-4.7,3.8-8.5,8.5-8.6C802,803,805.9,806.8,805.9,811.9z"/>
<path d="M797.4,429.2c-5,0-8.9-3.9-8.8-8.9c0.1-4.8,3.8-8.5,8.6-8.6c4.9-0.1,8.6,3.5,8.8,8.3C806.1,425.2,802.3,429.2,797.4,429.2z"
	/>
<path d="M284,898.7c0.1,4.7-3.6,8.6-8.4,8.8c-5.1,0.2-9-3.5-9.1-8.5c-0.1-4.8,3.6-8.6,8.3-8.8C279.8,889.9,283.9,893.7,284,898.7z"
	/>
<path d="M862.7,303c4.7,0.1,8.5,4,8.5,8.7c0,4.9-4,8.8-9,8.7c-4.7-0.1-8.5-4-8.6-8.7C853.7,306.9,857.8,303,862.7,303z"/>
<path d="M109.9,290.1c-0.1,4.8-4.4,8.9-9.1,8.7c-4.6-0.2-8.4-4.2-8.4-8.9c0.1-4.6,4-8.6,8.6-8.6C105.9,281.2,110,285.3,109.9,290.1z
	"/>
<path d="M210,346.5c5,0,8.8,4,8.7,9c-0.1,4.7-4,8.5-8.7,8.5c-4.9,0-8.8-4.1-8.7-9C201.4,350.2,205.3,346.5,210,346.5z"/>
<path d="M479.7,268.3c0,5-4,8.9-9,8.8c-4.7-0.1-8.5-4-8.5-8.7c0-4.9,4-8.9,9-8.7C476,259.7,479.7,263.5,479.7,268.3z"/>
<path d="M610.1,333.9c-0.1,4.7-4,8.4-8.8,8.3c-5-0.1-8.8-4.2-8.6-9.1c0.2-4.8,4-8.3,8.8-8.3C606.6,324.9,610.3,328.8,610.1,333.9z"
	/>
<path d="M884.3,694.4c4.9,0,8.7,4,8.6,9c-0.1,4.8-3.9,8.5-8.6,8.4c-4.8,0-8.5-3.7-8.6-8.5C875.5,698.4,879.4,694.4,884.3,694.4z"/>
<path d="M131.6,442.1c0.1,4.9-3.9,8.9-8.8,8.8c-4.7-0.1-8.4-3.8-8.5-8.6c-0.1-4.8,3.6-8.6,8.3-8.8
	C127.5,433.3,131.5,437.1,131.6,442.1z"/>
<path d="M797.3,624.8c-5,0-8.9-3.9-8.8-8.9c0.1-4.7,3.9-8.5,8.6-8.6c4.9-0.1,8.8,3.9,8.8,8.9C805.8,621,802.1,624.8,797.3,624.8z"/>
<path d="M653.7,311.6c0.1,4.9-3.9,8.9-8.8,8.9c-4.7-0.1-8.5-3.8-8.6-8.5c-0.1-4.8,3.9-8.8,8.8-8.8
	C649.8,303.1,653.6,306.9,653.7,311.6z"/>
<path d="M740.7,616.2c-0.1,4.7-3.8,8.5-8.6,8.5c-5,0-8.9-3.9-8.8-8.8c0.1-4.8,3.8-8.5,8.6-8.6C736.8,607.3,740.8,611.3,740.7,616.2z
	"/>
<path d="M631.8,616.4c-0.1,4.8-3.9,8.5-8.6,8.4c-5-0.1-8.9-4-8.7-8.9c0.1-4.7,4-8.5,8.7-8.5C628,607.4,631.9,611.4,631.8,616.4z"/>
<path d="M784.2,899.3c-0.3,4.9-4.4,8.5-9.4,8.1c-4.7-0.3-8.3-4.4-8-9.1c0.3-4.9,4.5-8.5,9.4-8.2
	C780.9,890.5,784.5,894.5,784.2,899.3z"/>
<path d="M253.9,563.9c4.9,0.2,8.7,4.5,8.3,9.4c-0.4,4.7-4.4,8.2-9.2,8c-4.7-0.2-8.4-4.2-8.3-8.9C244.8,567.5,249,563.7,253.9,563.9z
	"/>
<path d="M536.2,324.8c4.9,0,8.6,3.6,8.8,8.4c0.1,5-3.7,9-8.7,9c-5,0-8.9-3.9-8.8-8.9C527.6,328.5,531.3,324.9,536.2,324.8z"/>
<path d="M470.8,150.9c4.9-0.1,8.7,3.5,8.9,8.2c0.1,4.9-3.7,9-8.6,9.1c-4.9,0.1-8.9-3.8-8.9-8.8C462.2,154.8,466,151,470.8,150.9z"/>
<path d="M827.7,376.8c0.1,4.8-3.9,9-8.7,9c-4.7,0-8.5-3.8-8.7-8.6c-0.2-4.7,3.6-8.8,8.2-9C823.4,368,827.6,371.9,827.7,376.8z"/>
<path d="M775.6,563.9c4.6,0,8.6,3.9,8.7,8.6c0.1,4.9-3.9,8.9-8.8,8.9c-4.8-0.1-8.6-3.8-8.7-8.5C766.6,567.9,770.6,564,775.6,563.9z"
	/>
<path d="M579.6,255.2c-4.6,0-8.6-3.9-8.7-8.5c-0.1-4.9,3.8-8.8,8.8-8.8c4.9,0,8.7,4,8.6,9C588.3,251.5,584.4,255.2,579.6,255.2z"/>
<path d="M523.2,724.9c-0.1,5-3.9,8.6-9.1,8.5c-4.6-0.1-8.4-4.2-8.3-8.8c0.1-4.9,4.2-8.7,9.1-8.5
	C519.6,716.3,523.2,720.2,523.2,724.9z"/>
<path d="M479.7,703c0,4.9-4,8.9-8.9,8.8c-4.6-0.1-8.5-4-8.5-8.7c0-4.7,3.8-8.7,8.4-8.8C475.5,694.2,479.7,698.2,479.7,703z"/>
<path d="M383.7,629.2c4.9-0.1,8.9,3.9,8.9,8.8c0,4.8-3.6,8.4-8.5,8.6c-4.8,0.1-8.7-3.5-8.9-8.2C375.1,633.4,378.9,629.2,383.7,629.2
	z"/>
<path d="M340.3,646.5c-4.7-0.1-8.5-3.9-8.5-8.6c0-5,3.9-8.9,8.9-8.7c4.9,0.1,8.8,4.2,8.5,9.1C349,643,345.1,646.6,340.3,646.5z"/>
<path d="M818.2,429.1c-4.9-0.4-8.4-4.8-7.9-9.7c0.5-4.7,4.7-8,9.4-7.6c4.8,0.4,8.2,4.4,7.9,9.2C827.3,426,823.2,429.6,818.2,429.1z"
	/>
<path d="M283.9,463.9c0,4.9-4.1,8.9-8.9,8.8c-4.7-0.1-8.5-4-8.5-8.7c0-4.9,4-8.9,8.9-8.8C280,455.3,283.9,459.2,283.9,463.9z"/>
<path d="M710,755.3c-4.7-0.1-8.5-4-8.5-8.6c0-4.9,4.1-8.8,8.9-8.7c4.8,0.1,8.5,3.9,8.4,8.6C718.9,751.5,714.9,755.4,710,755.3z"/>
<path d="M797.2,737.9c4.8,0,8.6,3.7,8.7,8.4c0.1,5-3.7,8.9-8.6,9c-4.9,0-8.8-4-8.7-8.9C788.6,741.7,792.5,737.9,797.2,737.9z"/>
<path d="M753.6,646.5c-4.7-0.1-8.5-3.9-8.6-8.6c-0.1-4.7,4.3-8.9,9-8.7c4.7,0.1,8.5,4.1,8.5,8.6
	C762.5,642.7,758.5,646.6,753.6,646.5z"/>
<path d="M718.9,812.1c-0.1,5-4.1,8.6-9.2,8.3c-4.7-0.2-8.3-4.2-8.2-8.9c0.1-4.6,4.1-8.4,8.8-8.4C715.2,803.1,719,807,718.9,812.1z"
	/>
<path d="M805.9,724.8c0.1,4.7-3.5,8.5-8.4,8.7c-4.9,0.2-9-3.8-9-8.6c0-4.7,3.8-8.6,8.4-8.7C802,716,805.8,719.7,805.9,724.8z"/>
<path d="M718.9,246.3c0.1,5-3.8,8.9-8.7,8.9c-4.7,0-8.5-3.8-8.6-8.5c-0.1-5,3.7-8.8,8.8-8.8C715.1,237.9,718.8,241.5,718.9,246.3z"
	/>
<path d="M383.9,624.8c-4.6,0-8.5-3.9-8.6-8.6c-0.1-4.9,3.9-8.9,8.8-8.8c4.6,0,8.6,4,8.6,8.6C392.6,620.9,388.8,624.8,383.9,624.8z"
	/>
<path d="M327.4,898.9c0,4.9-4,8.7-9,8.6c-4.7-0.1-8.4-4-8.3-8.7c0.1-4.8,3.8-8.5,8.5-8.6C323.6,890.1,327.4,893.9,327.4,898.9z"/>
<path d="M718.9,768.2c0.1,5-3.8,8.9-8.7,8.9c-4.5,0-8.5-4-8.7-8.6c-0.1-4.5,3.8-8.8,8.3-9C714.5,759.3,718.8,763.3,718.9,768.2z"/>
<path d="M732.2,472.7c-4.8,0.1-8.9-4-8.9-8.8c0-4.5,4-8.6,8.6-8.6c5-0.1,8.9,3.8,8.8,8.8C740.6,468.8,736.9,472.6,732.2,472.7z"/>
<path d="M710.1,342.2c-4.7,0-8.6-3.8-8.6-8.5c-0.1-5,3.8-8.9,8.8-8.9c4.7,0,8.5,3.8,8.6,8.5C719,338.3,715.2,342.2,710.1,342.2z"/>
<path d="M492.8,194.3c4.5,0,8.5,4,8.6,8.6c0.1,4.8-4,8.9-8.8,8.9c-4.6,0-8.5-4-8.6-8.6C484,198.4,488,194.3,492.8,194.3z"/>
<path d="M501.4,159.5c0,4.9-3.9,8.8-8.9,8.8c-4.7-0.1-8.5-3.9-8.6-8.6c-0.1-4.8,4-8.8,8.9-8.8C497.6,150.9,501.4,154.8,501.4,159.5z
	"/>
<path d="M144.1,385.7c-4.8-0.2-8.4-4.6-8-9.6c0.3-4.7,4.4-8.2,9.1-7.9c4.7,0.3,8.3,4.3,8.2,9C153.2,382.1,149,386,144.1,385.7z"/>
<path d="M327.3,572.3c0.1,4.9-3.8,9.1-8.6,9.1c-4.7,0-8.6-3.7-8.7-8.4c-0.2-5,3.6-9,8.6-9C323.3,563.9,327.2,567.7,327.3,572.3z"/>
<path d="M327.4,681.5c-0.1,4.7-4.1,8.6-8.6,8.5c-5-0.1-8.8-3.9-8.7-8.9c0.1-4.7,4-8.6,8.5-8.6C323.4,672.6,327.6,676.8,327.4,681.5z
	"/>
<path d="M688.7,650.9c4.7,0.1,8.5,4.1,8.5,8.7c-0.1,4.9-4.1,8.8-9,8.7c-4.6-0.1-8.5-4.1-8.5-8.7
	C679.7,654.8,683.8,650.8,688.7,650.9z"/>
<path d="M231.1,559.6c-4.7-0.3-8.2-4.2-8-9c0.2-5,4.3-8.7,9.2-8.3c4.9,0.3,8.5,4.6,8.1,9.5C240,556.4,235.8,559.9,231.1,559.6z"/>
<path d="M231.6,411.8c5-0.1,8.9,3.8,8.8,8.8c-0.1,4.7-3.8,8.5-8.6,8.6c-4.9,0.1-8.8-3.8-8.8-8.8
	C223.1,415.5,226.8,411.8,231.6,411.8z"/>
<path d="M740.7,529.2c0,4.9-4,8.8-8.9,8.7c-4.6-0.1-8.4-4-8.4-8.7c0-4.9,4-8.8,8.9-8.7C736.9,520.6,740.7,524.5,740.7,529.2z"/>
<path d="M318.6,255.2c-4.6-0.1-8.5-4-8.5-8.6c0-5.1,3.9-8.8,8.9-8.7c4.9,0.1,8.4,3.7,8.4,8.6C327.4,251.5,323.5,255.3,318.6,255.2z"
	/>
<path d="M610.1,659.7c-0.1,4.9-4.1,8.8-9,8.7c-4.7-0.2-8.4-4.1-8.4-8.8c0-4.9,4.1-8.7,9-8.6C606.5,651.1,610.2,654.9,610.1,659.7z"
	/>
<path d="M414.4,333.5c0,4.9-3.9,8.8-8.9,8.7c-4.7-0.1-8.4-3.9-8.5-8.6c0-5,3.8-8.8,8.9-8.7C410.7,325,414.4,328.7,414.4,333.5z"/>
<path d="M370.9,877.2c-0.1,5-4.1,8.7-9.1,8.5c-4.7-0.2-8.4-4-8.3-8.8c0.1-4.7,3.9-8.5,8.6-8.6C366.9,868.2,370.9,872.3,370.9,877.2z
	"/>
<path d="M427.3,129.1c4.7-0.1,8.7,3.7,8.9,8.3c0.2,4.9-3.7,9-8.6,9.1c-4.7,0.1-8.6-3.7-8.8-8.3C418.6,133.2,422.4,129.2,427.3,129.1
	z"/>
<path d="M732,690.1c-4.7,0-8.6-3.8-8.7-8.4c-0.1-4.8,3.9-9,8.7-9.1c4.8,0,8.8,4.1,8.7,9C740.6,686.2,736.7,690,732,690.1z"/>
<path d="M718.9,224.6c0.1,5-3.8,8.9-8.8,8.8c-4.8-0.1-8.5-3.8-8.5-8.6c0-5.1,3.8-8.8,8.8-8.8C715.2,216.1,718.8,219.8,718.9,224.6z"
	/>
<path d="M101.2,498.7c4.9,0.1,8.9,4.1,8.7,9c-0.2,4.6-4.2,8.5-8.8,8.4c-4.8,0-8.8-4.2-8.7-9C92.6,502.4,96.5,498.7,101.2,498.7z"/>
<path d="M623.4,237.9c5,0.1,8.7,4,8.5,9c-0.2,4.8-4,8.4-8.8,8.3c-5-0.1-8.8-4.1-8.5-9C614.8,241.4,618.6,237.8,623.4,237.9z"/>
<path d="M109.9,659.9c-0.1,4.5-4.2,8.5-8.7,8.4c-5-0.1-8.9-4.2-8.6-9c0.2-4.8,4.1-8.5,8.7-8.4C106,650.9,110,655,109.9,659.9z"/>
<path class="st0" d="M852.2,181c-0.4,5.1-0.3,10.4-1.4,15.3c-2.2,9.9-10.9,17.1-21,17.7c-7,0.4-14,0.4-21,0.1
	c-11.5-0.5-21.2-9.1-22.2-20.5c-0.8-8.2-0.7-16.7,0-24.9c0.8-10.1,9.1-18.4,19.7-19.6c8.2-0.9,16.7-1,24.9-0.2
	c12,1.3,20,10.6,20.6,22.6c0.2,3.2,0,6.3,0,9.5C851.9,180.9,852.1,181,852.2,181z"/>
<path class="st0" d="M166.3,866.1c-4.3,0-8.7,0.5-12.9-0.1c-11.3-1.7-19.3-11-19.8-22.9c-0.3-6.5-0.3-13,0.1-19.5
	c0.7-12.4,9.3-21.6,21.8-22.7c7.6-0.6,15.3-0.5,22.9,0.2c12.1,1.2,20.5,10.6,21,22.8c0.2,6.1,0.2,12.3,0,18.5
	c-0.4,14-10,23.6-24,24.1c-3,0.1-6,0-9,0C166.3,866.3,166.3,866.2,166.3,866.1z"/>
<path class="st0" d="M166.2,213.9c-4.3,0-8.7,0.6-12.9-0.1c-11-1.8-18.9-10.6-19.6-22.1c-0.5-7-0.4-14,0.1-20.9
	c0.9-12.1,9.2-21,21.3-22c8.1-0.7,16.3-0.6,24.4,0.3c11.5,1.4,19.4,10.6,19.9,22.1c0.3,6.6,0.3,13.3,0,20
	c-0.5,12.8-10.3,22.4-23.1,23c-3.3,0.1-6.7,0-10,0C166.2,214.1,166.2,214,166.2,213.9z"/>
<circle class="st0" cx="492.8" cy="507.4" r="125.5"/>
<g>
	<path class="st1" d="M503.5,498.7L493,509.6l-10.4-10.9h-24.9c-3,0-5.4,1-7.4,3.1c-2,2-3.1,4.5-3.1,7.3v83.3l26.2-8.4v-64.5h6.6
		v62.3l13-4.1l13.1,4.2v-62.4h6.6V584l26.1,8.4v-83.3c0-2.9-1-5.3-3.1-7.3s-4.5-3.1-7.3-3.1H503.5z"/>
	
		<linearGradient id="SVGID_1_" gradientUnits="userSpaceOnUse" x1="492.7996" y1="536.573" x2="492.7996" y2="522.392" gradientTransform="matrix(1 0 0 -1 0 1026)">
		<stop  offset="0" style="stop-color:#FFDA00"/>
		<stop  offset="1" style="stop-color:#00CCBB"/>
	</linearGradient>
	<path class="st2" d="M449.6,457c2.2-4.6-1.1-10-6.3-10.1c-3.7-0.1-6.9,2.8-7.2,6.5c-0.3,4.1,2.8,7.5,6.7,7.7
		c1.7,3.3,5.5,11.1,8.2,20.5c0.1,0.5,0.6,0.8,1.1,0.8h81.5c0.5,0,0.9-0.3,1.1-0.8c2.6-9.4,6.4-17.1,8.2-20.5
		c3.9-0.2,7.1-3.6,6.7-7.7c-0.3-3.7-3.5-6.6-7.2-6.5c-5.1,0.1-8.4,5.5-6.3,10.1c-3.9,3.3-9.3,6.7-12.2,6c-0.3-0.1-1.7-1.9-1.7-8.7
		c0-2.8,0.2-5.5,0.5-7.5c3.5-0.7,6.1-4,5.7-7.8c-0.4-3.8-3.7-6.6-7.6-6.3c-5.2,0.4-8.3,6.2-5.5,10.8c-2.7,4-6.9,8.6-9.8,8.7
		c-0.4-0.2-2.7-1.9-5.9-11.8c-1.4-4.2-2.5-8.9-2.5-9c1.8-1.3,3-3.4,3-5.8c0-4.1-3.5-7.4-7.6-7.1c-3.5,0.2-6.4,3.1-6.6,6.6
		c-0.2,2.6,1,4.8,3,6.2c0,0.1-1.3,5.2-2.5,9c-3.2,9.9-5.6,11.6-5.9,11.8c-2.9-0.1-7.1-4.7-9.8-8.7c2.8-4.5-0.3-10.4-5.5-10.8
		c-3.8-0.3-7.2,2.5-7.6,6.3c-0.4,3.8,2.2,7.1,5.7,7.8c0.2,2,0.5,4.7,0.5,7.5c0,6.8-1.5,8.6-1.7,8.7
		C458.9,463.7,453.5,460.3,449.6,457z M498.1,469c0,4.8-2.1,8-5.3,8s-5.3-3.2-5.3-8c0-4.8,2.1-8,5.3-8S498.1,464.3,498.1,469z
		 M531.8,500.1c0-3.1,0.3-6.3,0.8-9.3c0.1-0.7-0.4-1.3-1.1-1.3h-77.4c-0.7,0-1.2,0.6-1.1,1.3c0.5,3.1,0.8,6.2,0.8,9.3
		c0,2,1.6,3.6,3.5,3.6h70.9C530.2,503.6,531.8,502,531.8,500.1z"/>
	<rect x="486.3" y="501.1" class="st0" width="15.9" height="10.9"/>
</g>
</svg>
