<svg xmlns="http://www.w3.org/2000/svg" version="1.1" xmlns:xlink="http://www.w3.org/1999/xlink" width="32" height="32" x="0" y="0" viewBox="0 0 512 512" style="enable-background:new 0 0 512 512" xml:space="preserve" fill-rule="evenodd" class=""><g transform="matrix(-1,0,0,1,511.99979400634766,0)"><path d="M119.086 320.183a223.316 223.316 0 0 0 72.731 72.731L87.721 497.01c-20.083 20.083-52.644 20.083-72.727 0a.008.008 0 0 0-.004-.004c-20.083-20.083-20.083-52.644 0-72.727zM308.12-.072c112.564 0 203.952 91.388 203.952 203.952S420.684 407.831 308.12 407.831 104.169 316.444 104.169 203.88 195.556-.072 308.12-.072zm0 70.144c-73.85 0-133.807 59.957-133.807 133.808 0 73.85 59.957 133.807 133.807 133.807 73.851 0 133.808-59.957 133.808-133.807 0-73.851-59.957-133.808-133.808-133.808z" fill="#1ABC9C" opacity="1" data-original="#000000" class=""></path></g></svg>