<svg width="17" height="17" viewBox="0 0 17 17" fill="none" xmlns="http://www.w3.org/2000/svg">
<path d="M4.49951 10.5C5.60408 10.5 6.49951 9.60457 6.49951 8.5C6.49951 7.39543 5.60408 6.5 4.49951 6.5C3.39494 6.5 2.49951 7.39543 2.49951 8.5C2.49951 9.60457 3.39494 10.5 4.49951 10.5Z" stroke="#1ABC9C" stroke-linecap="round" stroke-linejoin="round"/>
<path d="M11.4995 15C12.6041 15 13.4995 14.1046 13.4995 13C13.4995 11.8954 12.6041 11 11.4995 11C10.3949 11 9.49951 11.8954 9.49951 13C9.49951 14.1046 10.3949 15 11.4995 15Z" stroke="#1ABC9C" stroke-linecap="round" stroke-linejoin="round"/>
<path d="M11.4995 6C12.6041 6 13.4995 5.10457 13.4995 4C13.4995 2.89543 12.6041 2 11.4995 2C10.3949 2 9.49951 2.89543 9.49951 4C9.49951 5.10457 10.3949 6 11.4995 6Z" stroke="#1ABC9C" stroke-linecap="round" stroke-linejoin="round"/>
<path d="M9.81734 5.08142L6.18164 7.41865" stroke="#1ABC9C" stroke-linecap="round" stroke-linejoin="round"/>
<path d="M6.18164 9.58133L9.81733 11.9186" stroke="#1ABC9C" stroke-linecap="round" stroke-linejoin="round"/>
</svg>
