<svg width="14" height="14" viewBox="0 0 14 14" fill="none" xmlns="http://www.w3.org/2000/svg">
<path d="M13.1289 6.69332C13.4656 6.36532 13.5849 5.88399 13.4396 5.43666C13.2942 4.98932 12.9149 4.66999 12.4502 4.60199L9.53022 4.17732C9.50349 4.1734 9.47812 4.16303 9.45629 4.14712C9.43445 4.13121 9.41681 4.11023 9.40489 4.08599L8.09956 1.44066C7.89156 1.01932 7.47022 0.757324 7.00022 0.757324C6.53022 0.757324 6.10889 1.01999 5.90089 1.44066L4.59556 4.08599C4.58373 4.1103 4.56611 4.13134 4.54426 4.14726C4.52241 4.16319 4.49699 4.17351 4.47022 4.17732L1.55156 4.60199C1.08622 4.66999 0.706224 4.98932 0.561557 5.43666C0.416891 5.88399 0.535557 6.36532 0.872224 6.69332L2.98422 8.75199C3.02422 8.79066 3.04156 8.84599 3.03222 8.89999L2.53356 11.8067C2.49391 12.0322 2.51867 12.2644 2.60499 12.4765C2.69131 12.6887 2.83569 12.8722 3.02156 13.006C3.20616 13.1413 3.42512 13.2218 3.65338 13.2385C3.88164 13.2551 4.10997 13.2071 4.31222 13.1L6.92289 11.7273C6.9469 11.7145 6.97369 11.7079 7.00089 11.7079C7.02809 11.7079 7.05488 11.7145 7.07889 11.7273L9.68956 13.1C9.89178 13.2068 10.1199 13.2546 10.348 13.238C10.5761 13.2214 10.795 13.141 10.9796 13.006C11.1655 12.8722 11.3099 12.6887 11.3962 12.4766C11.4826 12.2644 11.5073 12.0322 11.4676 11.8067L10.9689 8.89999C10.9644 8.87328 10.9664 8.84587 10.9747 8.8201C10.9831 8.79433 10.9975 8.77096 11.0169 8.75199L13.1289 6.69332Z" fill="#AAAAAA"/>
</svg>
