<svg width="13" height="15" viewBox="0 0 13 15" fill="none" xmlns="http://www.w3.org/2000/svg">
<path d="M1.02393 3.85001H11.9749" stroke="#0EBFB1" stroke-linecap="round" stroke-linejoin="round"/>
<path d="M10.7587 3.85002V12.368C10.7586 12.5278 10.727 12.6861 10.6657 12.8337C10.6044 12.9813 10.5147 13.1154 10.4016 13.2283C10.2885 13.3412 10.1542 13.4307 10.0065 13.4918C9.85882 13.5528 9.70054 13.5841 9.54072 13.584H3.45772C3.13495 13.584 2.82541 13.4558 2.59717 13.2276C2.36894 12.9993 2.24072 12.6898 2.24072 12.367V3.85002M4.06572 3.85002V2.63302C4.06572 2.31025 4.19394 2.0007 4.42217 1.77247C4.65041 1.54423 4.95995 1.41602 5.28272 1.41602H7.71672C7.87654 1.41602 8.0348 1.44749 8.18245 1.50865C8.3301 1.56981 8.46426 1.65946 8.57727 1.77247C8.69028 1.88548 8.77992 2.01964 8.84108 2.16729C8.90224 2.31494 8.93372 2.4732 8.93372 2.63302V3.85002" stroke="#0EBFB1" stroke-linecap="round" stroke-linejoin="round"/>
</svg>
