<svg xmlns="http://www.w3.org/2000/svg" version="1.1" xmlns:xlink="http://www.w3.org/1999/xlink" width="32" height="33.6" x="0" y="0" viewBox="0 0 20 21" style="enable-background:new 0 0 512 512" xml:space="preserve"><g><g fill="#000"><path d="M2 18a5.127 5.127 0 0 1 5.127-5.127h5.746A5.127 5.127 0 0 1 18 18c0 1.168-.79 2.182-1.943 2.373-1.442.24-3.582.5-6.057.5-2.475 0-4.615-.26-6.057-.5C2.791 20.183 2 19.168 2 18zM5 5.873a5 5 0 1 1 10 0 5 5 0 0 1-10 0z" fill="#1ABC9C" opacity="1" data-original="#000000"></path></g></g></svg>