<svg width="40" height="41" viewBox="0 0 40 41" fill="none" xmlns="http://www.w3.org/2000/svg">
<g clip-path="url(#clip0_59_648)">
<path d="M14.8034 33.3569C13.8708 32.0782 5.71877 18.3237 5.62694 18.1726C5.27054 17.5516 5.10003 16.9616 5.14131 16.4742C5.18447 15.9679 5.44658 15.5856 5.94486 15.2996C6.40864 15.0334 6.90733 14.9612 7.38695 15.091C7.97214 15.2494 8.4973 15.6894 8.86168 16.3287L12.5733 22.5068C12.6379 22.6149 12.7411 22.6881 12.8527 22.7184C12.9415 22.7426 13.0355 22.7401 13.1228 22.7111C13.2102 22.682 13.287 22.6279 13.3437 22.5553C13.4003 22.4828 13.4343 22.3951 13.4412 22.3034C13.4482 22.2116 13.4279 22.1198 13.3829 22.0395L7.61297 11.6007C7.02778 10.5811 6.98302 9.25137 8.19423 8.55617C8.65801 8.28997 9.1567 8.21776 9.63632 8.34758C10.2215 8.50597 10.7467 8.94597 11.1111 9.58525L17.1417 19.7904C17.2063 19.8985 17.3087 19.9748 17.4233 20.0058C17.538 20.0368 17.6679 20.0234 17.779 19.9596C18.0013 19.832 18.0811 19.5493 17.9543 19.324L10.8449 6.57361C10.5127 5.99483 10.386 5.37456 10.4814 4.8306C10.5823 4.27841 10.9079 3.82911 11.4254 3.53211C11.8891 3.26592 12.3878 3.1937 12.8674 3.32352C13.4526 3.48192 13.9778 3.92191 14.343 4.55818L21.7301 17.06C21.7947 17.1681 21.8971 17.2444 22.0117 17.2754C22.1263 17.3064 22.2562 17.293 22.3674 17.2292C22.5897 17.1016 22.6695 16.8189 22.5427 16.5936L17.2822 7.13111C16.9478 6.54851 16.8203 5.93125 16.9188 5.3881C17.0197 4.83591 17.3452 4.38662 17.8627 4.08962C18.3265 3.82342 18.8251 3.75121 19.3048 3.88103C19.89 4.03942 20.4151 4.47941 20.7795 5.1187C22.7417 8.46641 27.8613 17.2173 28.028 17.5344C28.7565 18.3953 29.1906 17.5092 29.4 16.9151C29.6423 16.2231 29.501 13.5399 30.5716 11.4502C32.1597 8.717 34.3064 9.81607 34.3512 9.85408C35.4416 10.7773 34.9665 11.5876 34.0471 13.2261L33.908 13.5608C32.8213 15.7336 34.1691 23.4086 34.2664 23.982C34.7768 27.0598 34.7156 33.0034 28.6481 36.4859C21.9979 40.3029 16.2444 35.8675 14.8034 33.3569Z" fill="url(#paint0_radial_59_648)"/>
<path d="M20.7221 38.1122C17.5126 37.2435 15.1983 34.9692 14.4097 33.6129C13.6553 32.5605 9.14097 25.0062 5.471 18.8296C5.32197 18.5789 5.23454 18.4354 5.22655 18.4171C4.81516 17.7003 4.62446 17.0174 4.67515 16.4354C4.73117 15.7739 5.08155 15.2569 5.71097 14.8931C6.28591 14.5631 6.90543 14.475 7.50873 14.6383C8.21759 14.8302 8.8413 15.3487 9.26728 16.0953L12.9745 22.2657L7.20158 11.826C6.52839 10.6531 6.47781 8.99806 7.96034 8.14968C8.53528 7.81969 9.1548 7.73162 9.7581 7.89491C10.467 8.08678 11.0907 8.60525 11.5166 9.35185L17.5429 19.5493L10.4357 6.80277C10.0529 6.13584 9.90408 5.40598 10.0199 4.75097C10.1471 4.05374 10.5514 3.49302 11.1915 3.12563C11.7664 2.79563 12.3859 2.70756 12.9892 2.87086C13.6951 3.06191 14.3196 3.57736 14.7486 4.32478L22.1335 16.8227L16.873 7.36028C16.488 6.68951 16.3392 5.95965 16.458 5.30546C16.5844 4.61125 16.9887 4.05053 17.6288 3.68313C18.2037 3.35313 18.8232 3.26506 19.4265 3.42836C20.1354 3.62023 20.7591 4.1387 21.1851 4.8853L22.7827 7.60661C25.6301 12.4565 28.0084 16.5158 28.2589 16.9656C28.3911 17.1471 28.5974 17.2579 28.7032 17.238C28.7717 17.2242 28.8756 17.1034 28.9427 16.8075C29.0634 16.2898 29.1633 15.6338 29.27 14.9407C29.4849 13.5485 29.7069 12.1064 30.1528 11.2364C31.0147 9.75063 32.04 9.29972 32.7466 9.17695C33.7171 9.01229 34.5151 9.37721 34.6546 9.4959C36.0239 10.6565 35.3801 11.8031 34.4896 13.3945L34.4692 13.4343L34.3254 13.7741C33.5936 15.2336 34.0491 19.9379 34.7185 23.8519L34.7296 23.9067C35.1696 26.551 35.4754 33.1119 28.8828 36.8959C25.8525 38.63 23.0508 38.7425 20.7221 38.1122ZM7.26378 15.5433C6.90784 15.4469 6.52999 15.5033 6.17736 15.7057C5.81323 15.9147 5.63857 16.1652 5.60909 16.5134C5.57666 16.8963 5.72755 17.4034 6.03253 17.9392C6.03473 17.943 6.12355 18.0933 6.2778 18.3487C11.4865 27.1173 14.6487 32.347 15.1818 33.0805L15.209 33.1235C16.4234 35.2393 21.81 39.87 28.4142 36.0795C34.497 32.5881 34.2091 26.5112 33.8018 24.057L33.7929 24.006C33.3611 21.487 32.4719 15.4189 33.4774 13.3665L33.6693 12.9328C34.6335 11.2125 34.7651 10.8338 34.0807 10.2406C33.8599 10.1355 32.2495 9.48268 30.9705 11.6844C30.6056 12.3982 30.3847 13.8244 30.1898 15.0828C30.0813 15.7948 29.9765 16.469 29.8468 17.0199C29.6443 17.8877 29.148 18.1063 28.868 18.16C28.2981 18.268 27.7542 17.8973 27.4651 17.4824L27.4357 17.4356C27.3056 17.1867 24.0905 11.7096 21.9638 8.08426L20.3648 5.3561C19.8245 4.41018 18.9017 4.02768 18.0853 4.49628C17.6867 4.72508 17.4453 5.05471 17.3683 5.47091C17.2893 5.90603 17.3986 6.4115 17.678 6.89828L22.9535 16.3648C23.0733 16.5804 23.1036 16.8344 23.0381 17.0721C22.9725 17.3099 22.8162 17.5124 22.6029 17.6361C22.1774 17.8803 21.5846 17.7263 21.3305 17.3014L13.9382 4.79501C13.397 3.85211 12.4713 3.46879 11.6579 3.93821C11.2592 4.167 11.0179 4.49664 10.9408 4.91284C10.8649 5.34877 10.9733 5.85726 11.2513 6.33719L18.3621 19.0944C18.6143 19.5382 18.4561 20.1105 18.0115 20.3657C17.5861 20.6099 16.9932 20.4559 16.7391 20.031L10.7063 9.82208C10.1667 8.87315 9.24013 8.49285 8.42673 8.96226C7.434 9.53206 7.58819 10.613 8.01857 11.3673L13.7929 21.8138C13.9124 22.0285 13.9424 22.2816 13.8765 22.5183C13.8107 22.755 13.6541 22.9562 13.4409 23.0783C13.0116 23.3247 12.4256 23.1693 12.1707 22.7474L8.4591 16.5693C8.15191 16.0297 7.72832 15.669 7.26378 15.5433Z" fill="#EDA600"/>
<path d="M27.3856 17.0472C24.8143 19.9804 23.7474 24.7712 25.205 29.2417C25.3468 29.8304 25.8941 29.7098 25.7927 29.1158C24.5296 21.8814 28.9282 18.1057 28.9282 18.1057L27.3856 17.0472Z" fill="#EDA600"/>
<path d="M24.3064 2.60268C25.2818 2.61095 26.2474 2.89497 27.132 3.37073C28.0089 3.85089 28.818 4.58141 29.3041 5.54826C29.7768 6.505 29.9422 7.55661 29.8178 8.57834C29.6868 9.58858 29.2912 10.5596 28.6044 11.2672C28.8032 10.3174 28.873 9.41363 28.8132 8.54601C28.7784 8.11248 28.7146 7.69051 28.6088 7.27987C28.5052 6.87306 28.3647 6.45946 28.1919 6.10513C27.8413 5.37894 27.2746 4.73346 26.5958 4.16769C25.9171 3.58903 25.143 3.08812 24.3064 2.60268Z" fill="#B0BEC5"/>
<path d="M23.7826 5.53014C24.3729 5.34675 25.0213 5.45103 25.5869 5.71745C26.1586 5.98551 26.6509 6.43927 26.9915 6.97499C27.3275 7.51593 27.5044 8.13036 27.5549 8.73324C27.5771 9.03387 27.547 9.33651 27.5163 9.62929C27.453 9.92295 27.3746 10.2125 27.251 10.4899C27.1024 10.2133 26.9992 9.94903 26.9033 9.69322C26.78 9.44295 26.6992 9.19122 26.5924 8.95188C26.384 8.47785 26.1749 8.04246 25.931 7.63975C25.6756 7.24364 25.3924 6.87883 25.042 6.53471C24.6962 6.18537 24.2886 5.86136 23.7826 5.53014Z" fill="#90A4AE"/>
<path d="M1.36416 19.9747C1.56414 20.9224 1.79854 21.8146 2.12983 22.6359C2.4581 23.4565 2.88955 24.1948 3.47222 24.7572C3.75423 25.031 4.10611 25.2979 4.45956 25.523C4.8152 25.752 5.19655 25.9459 5.59731 26.1159C6.40209 26.4438 7.28176 26.6625 8.24618 26.7714C7.35926 27.2015 6.31021 27.2736 5.31329 27.0815C4.30593 26.88 3.35942 26.394 2.59768 25.6439C1.83236 24.8832 1.39082 23.8831 1.21051 22.8986C1.03184 21.9082 1.06418 20.9036 1.36416 19.9747Z" fill="#B0BEC5"/>
<path d="M4.31083 20.3933C4.46626 20.9792 4.64561 21.4649 4.86599 21.9065C5.08336 22.3474 5.34201 22.7314 5.63816 23.0965C5.9428 23.4541 6.29181 23.7914 6.67701 24.1385C6.8692 24.3135 7.083 24.4685 7.28236 24.6649C7.49812 24.8366 7.71526 25.0152 7.9314 25.2453C7.62914 25.2735 7.33228 25.2579 7.03347 25.2256C6.74666 25.1609 6.44998 25.0968 6.17102 24.9792C5.61309 24.744 5.08863 24.3852 4.67739 23.8951C4.27684 23.4014 3.9983 22.7918 3.92475 22.1665C3.84736 21.5434 3.95083 20.898 4.31083 20.3933Z" fill="#90A4AE"/>
</g>
<defs>
<radialGradient id="paint0_radial_59_648" cx="0" cy="0" r="1" gradientUnits="userSpaceOnUse" gradientTransform="translate(15.8025 11.1467) rotate(-29.8545) scale(28.44)">
<stop offset="0.353" stop-color="#FFCA28"/>
<stop offset="0.872" stop-color="#FFB300"/>
</radialGradient>
<clipPath id="clip0_59_648">
<rect width="40" height="40" fill="white" transform="translate(0 0.5)"/>
</clipPath>
</defs>
</svg>
