<svg width="49" height="47" viewBox="0 0 49 47" fill="none" xmlns="http://www.w3.org/2000/svg">
<path d="M1.82211 23.6063C1.8209 27.5064 2.88282 31.3147 4.90222 34.6713L1.62891 46.1406L13.8598 43.0631C17.2295 44.8255 21.0235 45.7556 24.8848 45.7569H24.8951C37.6103 45.7569 47.961 35.8275 47.9662 23.6235C47.9688 17.7096 45.571 12.1489 41.2146 7.9654C36.859 3.78188 31.0661 1.47677 24.8942 1.47413C12.1774 1.47413 1.82726 11.4026 1.82211 23.6063Z" fill="url(#paint0_linear_674_4)"/>
<path d="M1.01318 23.6028C1.01163 27.6437 2.11187 31.5882 4.20313 35.0651L0.8125 46.9453L13.4821 43.7574C16.9728 45.5842 20.903 46.547 24.9027 46.5484H24.913C38.0846 46.5484 48.8069 36.262 48.8125 23.6215C48.8147 17.4949 46.331 11.7345 41.819 7.40089C37.3063 3.06745 31.3059 0.679866 24.913 0.677062C11.7392 0.677062 1.01842 10.9617 1.01309 23.6028H1.01318ZM8.55804 34.4665L8.08509 33.7456C6.09654 30.7115 5.04674 27.205 5.04846 23.6044C5.05268 13.0974 13.9633 4.54957 24.9206 4.54957C30.2267 4.55163 35.2135 6.53633 38.9644 10.1382C42.7149 13.7397 44.7788 18.5278 44.7772 23.6199C44.7726 34.1272 35.8616 42.6763 24.9131 42.6763H24.9054C21.3403 42.6745 17.8441 41.756 14.7948 40.0195L14.0691 39.6068L6.55075 41.4983L8.55804 34.4665Z" fill="url(#paint1_linear_674_4)"/>
<path fill-rule="evenodd" clip-rule="evenodd" d="M18.9345 14.0192C18.4871 13.065 18.0163 13.0457 17.5907 13.029C17.2426 13.0147 16.8441 13.0156 16.4462 13.0156C16.0482 13.0156 15.4011 13.1591 14.854 13.7326C14.3065 14.306 12.7637 15.6922 12.7637 18.5116C12.7637 21.3314 14.9037 24.0556 15.202 24.4383C15.5006 24.8205 19.3333 30.791 25.403 33.088C30.4475 34.9969 31.474 34.6172 32.5689 34.5217C33.6638 34.4262 36.102 33.1358 36.5996 31.7977C37.0973 30.4597 37.0973 29.3129 36.9481 29.0732C36.7987 28.8343 36.4006 28.6911 35.8034 28.4045C35.2061 28.1179 32.2703 26.7313 31.7228 26.5403C31.1753 26.3493 30.7772 26.2538 30.3791 26.8275C29.9809 27.4007 28.8373 28.6911 28.4887 29.0732C28.1403 29.4562 27.792 29.5039 27.1947 29.2173C26.5975 28.9299 24.6742 28.3254 22.3926 26.3733C20.6173 24.8544 19.4189 22.9787 19.0703 22.405C18.722 21.8318 19.0331 21.5214 19.3326 21.2357C19.6008 20.979 19.9299 20.5668 20.2285 20.2322C20.5265 19.8976 20.6261 19.6587 20.8251 19.2766C21.0242 18.894 20.9247 18.5593 20.7754 18.2728C20.6261 17.9862 19.4655 15.1522 18.9345 14.0192Z" fill="white"/>
<defs>
<linearGradient id="paint0_linear_674_4" x1="24.7974" y1="46.1407" x2="24.7974" y2="1.47409" gradientUnits="userSpaceOnUse">
<stop stop-color="#20B038"/>
<stop offset="1" stop-color="#60D66A"/>
</linearGradient>
<linearGradient id="paint1_linear_674_4" x1="24.8126" y1="46.9454" x2="24.8126" y2="0.677089" gradientUnits="userSpaceOnUse">
<stop stop-color="#F9F9F9"/>
<stop offset="1" stop-color="white"/>
</linearGradient>
</defs>
</svg>
